<?xml version="1.0" encoding="UTF-8"?>
<svg xmlns="http://www.w3.org/2000/svg" xmlns:xlink="http://www.w3.org/1999/xlink" width="365pt" height="123pt" viewBox="0 0 365 123" version="1.1">
<defs>
<clipPath id="clip1">
  <path d="M 185 0.542969 L 364.378906 0.542969 L 364.378906 123 L 185 123 Z M 185 0.542969 "/>
</clipPath>
</defs>
<g id="surface1">
<g clip-path="url(#clip1)" clip-rule="nonzero">
<path style=" stroke:none;fill-rule:nonzero;fill:rgb(100%,100%,100%);fill-opacity:1;" d="M 185.230469 123 L 364.378906 123 L 364.378906 0.542969 L 185.230469 0.542969 L 185.230469 123 "/>
</g>
<path style=" stroke:none;fill-rule:nonzero;fill:rgb(32.93457%,22.363281%,63.084412%);fill-opacity:1;" d="M 14.964844 12.167969 L 29.9375 12.167969 L 29.9375 14.921875 L 17.992188 14.921875 L 17.992188 23.078125 L 27.804688 23.078125 L 27.804688 25.832031 L 17.992188 25.832031 L 17.992188 33.855469 L 30.660156 33.855469 L 30.660156 36.609375 L 14.964844 36.609375 L 14.964844 12.167969 "/>
<path style=" stroke:none;fill-rule:nonzero;fill:rgb(32.93457%,22.363281%,63.084412%);fill-opacity:1;" d="M 48.667969 19.84375 L 48.667969 36.609375 L 45.878906 36.609375 L 45.878906 33.820312 L 45.84375 33.820312 C 44.503906 35.746094 42.507812 36.8125 40.335938 36.8125 C 36.480469 36.8125 34.039062 34.609375 34.039062 29.828125 L 34.039062 19.84375 L 36.828125 19.84375 L 36.828125 29.035156 C 36.828125 32.855469 38.238281 34.265625 40.921875 34.265625 C 43.574219 34.265625 45.878906 31.960938 45.878906 27.96875 L 45.878906 19.84375 L 48.667969 19.84375 "/>
<path style=" stroke:none;fill-rule:nonzero;fill:rgb(32.93457%,22.363281%,63.084412%);fill-opacity:1;" d="M 62.65625 19.671875 L 62.65625 22.769531 C 62.28125 22.734375 61.832031 22.699219 61.554688 22.699219 C 58.390625 22.699219 56.460938 25.144531 56.460938 28.519531 L 56.460938 36.609375 L 53.671875 36.609375 L 53.671875 19.84375 L 56.460938 19.84375 L 56.460938 22.804688 L 56.496094 22.804688 C 57.734375 20.808594 59.699219 19.636719 61.96875 19.636719 C 62.246094 19.636719 62.484375 19.636719 62.65625 19.671875 "/>
<path style=" stroke:none;fill-rule:nonzero;fill:rgb(32.93457%,22.363281%,63.084412%);fill-opacity:1;" d="M 78.949219 28.242188 C 78.949219 24.664062 76.402344 22.21875 73.164062 22.21875 C 69.65625 22.21875 67.3125 24.902344 67.3125 28.242188 C 67.3125 31.582031 69.6875 34.265625 73.164062 34.265625 C 76.402344 34.265625 78.949219 31.789062 78.949219 28.242188 Z M 64.492188 28.242188 C 64.492188 23.421875 67.933594 19.636719 73.164062 19.636719 C 78.089844 19.636719 81.773438 23.148438 81.773438 28.242188 C 81.773438 33.335938 78.089844 36.8125 73.164062 36.8125 C 67.933594 36.8125 64.492188 33.0625 64.492188 28.242188 "/>
<path style=" stroke:none;fill-rule:nonzero;fill:rgb(32.93457%,22.363281%,63.084412%);fill-opacity:1;" d="M 99.84375 28.34375 C 99.84375 24.628906 97.363281 22.21875 94.164062 22.21875 C 90.996094 22.21875 88.621094 24.902344 88.621094 28.34375 C 88.621094 31.890625 91.238281 34.265625 94.199219 34.265625 C 97.605469 34.265625 99.84375 31.71875 99.84375 28.34375 Z M 102.667969 28.34375 C 102.667969 33.476562 99.085938 36.8125 94.472656 36.8125 C 92.097656 36.8125 90.101562 35.816406 88.757812 34.128906 L 88.691406 34.128906 L 88.691406 43.421875 L 85.9375 43.421875 L 85.9375 19.84375 L 88.726562 19.84375 L 88.726562 22.320312 L 88.757812 22.320312 C 90.171875 20.566406 92.234375 19.636719 94.472656 19.636719 C 99.222656 19.636719 102.667969 23.386719 102.667969 28.34375 "/>
<path style=" stroke:none;fill-rule:nonzero;fill:rgb(32.93457%,22.363281%,63.084412%);fill-opacity:1;" d="M 108.738281 26.796875 L 118.859375 26.796875 C 118.410156 24.042969 116.65625 22.21875 113.972656 22.21875 C 111.355469 22.21875 109.257812 23.9375 108.738281 26.796875 Z M 121.546875 29.101562 L 108.636719 29.101562 C 109.015625 32.234375 111.21875 34.265625 114.246094 34.265625 C 116.347656 34.265625 117.929688 33.304688 118.964844 31.996094 L 120.925781 33.679688 C 119.480469 35.539062 117.207031 36.8125 114.144531 36.8125 C 109.394531 36.8125 105.8125 33.335938 105.8125 28.242188 C 105.8125 23.183594 109.289062 19.636719 113.835938 19.636719 C 118.515625 19.636719 121.613281 23.148438 121.613281 27.96875 C 121.613281 28.414062 121.546875 29 121.546875 29.101562 "/>
<path style=" stroke:none;fill-rule:nonzero;fill:rgb(32.93457%,22.363281%,63.084412%);fill-opacity:1;" d="M 138.789062 28.34375 C 138.789062 24.902344 136.414062 22.21875 133.179688 22.21875 C 130.011719 22.21875 127.5 24.628906 127.5 28.34375 C 127.5 31.71875 129.738281 34.265625 133.144531 34.265625 C 136.175781 34.265625 138.789062 31.890625 138.789062 28.34375 Z M 141.476562 19.84375 L 141.476562 36.609375 L 138.789062 36.609375 L 138.789062 33.957031 L 138.757812 33.957031 C 137.414062 35.746094 135.347656 36.8125 132.902344 36.8125 C 128.257812 36.8125 124.675781 33.476562 124.675781 28.34375 C 124.675781 23.386719 128.121094 19.636719 132.871094 19.636719 C 135.175781 19.636719 137.242188 20.601562 138.652344 22.355469 L 138.6875 22.355469 L 138.6875 19.84375 L 141.476562 19.84375 "/>
<path style=" stroke:none;fill-rule:nonzero;fill:rgb(32.93457%,22.363281%,63.084412%);fill-opacity:1;" d="M 161.421875 26.660156 L 161.421875 36.609375 L 158.632812 36.609375 L 158.632812 27.449219 C 158.632812 23.527344 156.980469 22.21875 154.535156 22.21875 C 151.367188 22.21875 149.269531 24.457031 149.269531 28.242188 L 149.269531 36.609375 L 146.480469 36.609375 L 146.480469 19.84375 L 149.269531 19.84375 L 149.269531 22.769531 L 149.304688 22.769531 C 150.714844 20.773438 152.917969 19.636719 155.394531 19.636719 C 159.011719 19.636719 161.421875 21.875 161.421875 26.660156 "/>
<path style=" stroke:none;fill-rule:nonzero;fill:rgb(32.93457%,22.363281%,63.084412%);fill-opacity:1;" d="M 0 49.554688 L 3.027344 49.554688 L 3.027344 73.996094 L 0 73.996094 L 0 49.554688 "/>
<path style=" stroke:none;fill-rule:nonzero;fill:rgb(32.93457%,22.363281%,63.084412%);fill-opacity:1;" d="M 23.679688 64.046875 L 23.679688 73.996094 L 20.890625 73.996094 L 20.890625 64.839844 C 20.890625 60.914062 19.238281 59.605469 16.792969 59.605469 C 13.628906 59.605469 11.527344 61.84375 11.527344 65.628906 L 11.527344 73.996094 L 8.738281 73.996094 L 8.738281 57.230469 L 11.527344 57.230469 L 11.527344 60.15625 L 11.5625 60.15625 C 12.972656 58.160156 15.175781 57.023438 17.652344 57.023438 C 21.269531 57.023438 23.679688 59.261719 23.679688 64.046875 "/>
<path style=" stroke:none;fill-rule:nonzero;fill:rgb(32.93457%,22.363281%,63.084412%);fill-opacity:1;" d="M 43.542969 64.046875 L 43.542969 73.996094 L 40.753906 73.996094 L 40.753906 64.839844 C 40.753906 60.914062 39.101562 59.605469 36.660156 59.605469 C 33.492188 59.605469 31.390625 61.84375 31.390625 65.628906 L 31.390625 73.996094 L 28.605469 73.996094 L 28.605469 57.230469 L 31.390625 57.230469 L 31.390625 60.15625 L 31.425781 60.15625 C 32.839844 58.160156 35.039062 57.023438 37.519531 57.023438 C 41.132812 57.023438 43.542969 59.261719 43.542969 64.046875 "/>
<path style=" stroke:none;fill-rule:nonzero;fill:rgb(32.93457%,22.363281%,63.084412%);fill-opacity:1;" d="M 61.878906 65.628906 C 61.878906 62.050781 59.332031 59.605469 56.09375 59.605469 C 52.582031 59.605469 50.242188 62.289062 50.242188 65.628906 C 50.242188 68.96875 52.617188 71.652344 56.09375 71.652344 C 59.332031 71.652344 61.878906 69.175781 61.878906 65.628906 Z M 47.417969 65.628906 C 47.417969 60.8125 50.859375 57.023438 56.09375 57.023438 C 61.015625 57.023438 64.699219 60.535156 64.699219 65.628906 C 64.699219 70.722656 61.015625 74.203125 56.09375 74.203125 C 50.859375 74.203125 47.417969 70.449219 47.417969 65.628906 "/>
<path style=" stroke:none;fill-rule:nonzero;fill:rgb(32.93457%,22.363281%,63.084412%);fill-opacity:1;" d="M 82.527344 57.230469 L 75.710938 73.996094 L 73.027344 73.996094 L 66.175781 57.230469 L 69.171875 57.230469 L 74.335938 70.449219 L 74.4375 70.449219 L 79.5 57.230469 L 82.527344 57.230469 "/>
<path style=" stroke:none;fill-rule:nonzero;fill:rgb(32.93457%,22.363281%,63.084412%);fill-opacity:1;" d="M 98.097656 65.734375 C 98.097656 62.289062 95.722656 59.605469 92.484375 59.605469 C 89.320312 59.605469 86.804688 62.015625 86.804688 65.734375 C 86.804688 69.105469 89.042969 71.652344 92.453125 71.652344 C 95.480469 71.652344 98.097656 69.277344 98.097656 65.734375 Z M 100.78125 57.230469 L 100.78125 73.996094 L 98.097656 73.996094 L 98.097656 71.34375 L 98.0625 71.34375 C 96.71875 73.132812 94.65625 74.203125 92.210938 74.203125 C 87.5625 74.203125 83.984375 70.863281 83.984375 65.734375 C 83.984375 60.777344 87.425781 57.023438 92.175781 57.023438 C 94.480469 57.023438 96.546875 57.988281 97.960938 59.742188 L 97.992188 59.742188 L 97.992188 57.230469 L 100.78125 57.230469 "/>
<path style=" stroke:none;fill-rule:nonzero;fill:rgb(32.93457%,22.363281%,63.084412%);fill-opacity:1;" d="M 106.285156 69.003906 L 106.285156 59.640625 L 104.152344 59.640625 L 104.152344 57.230469 L 106.285156 57.230469 L 106.285156 51.515625 L 109.074219 51.207031 L 109.074219 57.230469 L 114.652344 57.230469 L 114.652344 59.640625 L 109.074219 59.640625 L 109.074219 68.589844 C 109.074219 70.585938 109.554688 71.585938 111.140625 71.585938 C 112.136719 71.585938 113.171875 71.171875 113.960938 70.722656 L 114.71875 73.167969 C 113.789062 73.683594 112.621094 74.203125 110.65625 74.203125 C 107.660156 74.203125 106.285156 72.378906 106.285156 69.003906 "/>
<path style=" stroke:none;fill-rule:nonzero;fill:rgb(32.93457%,22.363281%,63.084412%);fill-opacity:1;" d="M 118.121094 57.230469 L 120.90625 57.230469 L 120.90625 73.996094 L 118.121094 73.996094 Z M 117.535156 52.171875 C 117.535156 51.105469 118.394531 50.207031 119.53125 50.207031 C 120.632812 50.207031 121.527344 51.105469 121.527344 52.171875 C 121.527344 53.273438 120.632812 54.132812 119.53125 54.132812 C 118.394531 54.132812 117.535156 53.273438 117.535156 52.171875 "/>
<path style=" stroke:none;fill-rule:nonzero;fill:rgb(32.93457%,22.363281%,63.084412%);fill-opacity:1;" d="M 139.507812 65.628906 C 139.507812 62.050781 136.960938 59.605469 133.726562 59.605469 C 130.214844 59.605469 127.871094 62.289062 127.871094 65.628906 C 127.871094 68.96875 130.25 71.652344 133.726562 71.652344 C 136.960938 71.652344 139.507812 69.175781 139.507812 65.628906 Z M 125.050781 65.628906 C 125.050781 60.8125 128.492188 57.023438 133.726562 57.023438 C 138.648438 57.023438 142.332031 60.535156 142.332031 65.628906 C 142.332031 70.722656 138.648438 74.203125 133.726562 74.203125 C 128.492188 74.203125 125.050781 70.449219 125.050781 65.628906 "/>
<path style=" stroke:none;fill-rule:nonzero;fill:rgb(32.93457%,22.363281%,63.084412%);fill-opacity:1;" d="M 161.417969 64.046875 L 161.417969 73.996094 L 158.628906 73.996094 L 158.628906 64.839844 C 158.628906 60.914062 156.976562 59.605469 154.535156 59.605469 C 151.367188 59.605469 149.265625 61.84375 149.265625 65.628906 L 149.265625 73.996094 L 146.480469 73.996094 L 146.480469 57.230469 L 149.265625 57.230469 L 149.265625 60.15625 L 149.300781 60.15625 C 150.714844 58.160156 152.914062 57.023438 155.394531 57.023438 C 159.007812 57.023438 161.417969 59.261719 161.417969 64.046875 "/>
<path style=" stroke:none;fill-rule:nonzero;fill:rgb(32.93457%,22.363281%,63.084412%);fill-opacity:1;" d="M 47.710938 99.257812 C 47.710938 92.304688 52.046875 86.695312 59.898438 86.695312 C 63.273438 86.695312 66.78125 88.070312 69.433594 91.375 L 67.195312 93.234375 C 65.335938 90.894531 62.71875 89.550781 59.898438 89.550781 C 54.320312 89.550781 50.84375 93.578125 50.84375 99.257812 C 50.84375 105.078125 54.734375 108.691406 59.898438 108.691406 C 63.066406 108.691406 65.472656 107.175781 67.195312 105.042969 L 69.433594 106.9375 C 67.300781 109.585938 64.199219 111.550781 59.898438 111.550781 C 53.289062 111.550781 47.710938 107.246094 47.710938 99.257812 "/>
<path style=" stroke:none;fill-rule:nonzero;fill:rgb(32.93457%,22.363281%,63.084412%);fill-opacity:1;" d="M 86.71875 103.011719 C 86.71875 99.429688 84.171875 96.988281 80.933594 96.988281 C 77.421875 96.988281 75.082031 99.671875 75.082031 103.011719 C 75.082031 106.351562 77.457031 109.035156 80.933594 109.035156 C 84.171875 109.035156 86.71875 106.558594 86.71875 103.011719 Z M 72.261719 103.011719 C 72.261719 98.191406 75.703125 94.40625 80.933594 94.40625 C 85.855469 94.40625 89.539062 97.917969 89.539062 103.011719 C 89.539062 108.105469 85.855469 111.585938 80.933594 111.585938 C 75.703125 111.585938 72.261719 107.832031 72.261719 103.011719 "/>
<path style=" stroke:none;fill-rule:nonzero;fill:rgb(32.93457%,22.363281%,63.084412%);fill-opacity:1;" d="M 108.03125 94.613281 L 108.03125 111.378906 L 105.242188 111.378906 L 105.242188 108.589844 L 105.207031 108.589844 C 103.863281 110.515625 101.867188 111.585938 99.699219 111.585938 C 95.84375 111.585938 93.398438 109.382812 93.398438 104.597656 L 93.398438 94.613281 L 96.1875 94.613281 L 96.1875 103.804688 C 96.1875 107.625 97.597656 109.035156 100.285156 109.035156 C 102.933594 109.035156 105.242188 106.730469 105.242188 102.734375 L 105.242188 94.613281 L 108.03125 94.613281 "/>
<path style=" stroke:none;fill-rule:nonzero;fill:rgb(32.93457%,22.363281%,63.084412%);fill-opacity:1;" d="M 127.976562 101.429688 L 127.976562 111.378906 L 125.1875 111.378906 L 125.1875 102.21875 C 125.1875 98.296875 123.535156 96.988281 121.089844 96.988281 C 117.925781 96.988281 115.824219 99.226562 115.824219 103.011719 L 115.824219 111.378906 L 113.035156 111.378906 L 113.035156 94.613281 L 115.824219 94.613281 L 115.824219 97.539062 L 115.859375 97.539062 C 117.269531 95.542969 119.472656 94.40625 121.949219 94.40625 C 125.566406 94.40625 127.976562 96.644531 127.976562 101.429688 "/>
<path style=" stroke:none;fill-rule:nonzero;fill:rgb(32.93457%,22.363281%,63.084412%);fill-opacity:1;" d="M 131.851562 103.011719 C 131.851562 97.953125 135.328125 94.40625 140.25 94.40625 C 142.761719 94.40625 145.34375 95.4375 146.996094 97.402344 L 145.070312 99.085938 C 144.035156 97.8125 142.382812 96.988281 140.386719 96.988281 C 137.015625 96.988281 134.671875 99.464844 134.671875 103.011719 C 134.671875 106.59375 137.015625 109.035156 140.386719 109.035156 C 142.351562 109.035156 144.105469 108.175781 145.136719 107.039062 L 147.066406 108.761719 C 145.652344 110.34375 143.140625 111.585938 140.148438 111.585938 C 135.328125 111.585938 131.851562 108.105469 131.851562 103.011719 "/>
<path style=" stroke:none;fill-rule:nonzero;fill:rgb(32.93457%,22.363281%,63.084412%);fill-opacity:1;" d="M 150.542969 94.613281 L 153.328125 94.613281 L 153.328125 111.378906 L 150.542969 111.378906 Z M 149.957031 89.550781 C 149.957031 88.484375 150.816406 87.589844 151.953125 87.589844 C 153.054688 87.589844 153.949219 88.484375 153.949219 89.550781 C 153.949219 90.652344 153.054688 91.515625 151.953125 91.515625 C 150.816406 91.515625 149.957031 90.652344 149.957031 89.550781 "/>
<path style=" stroke:none;fill-rule:nonzero;fill:rgb(32.93457%,22.363281%,63.084412%);fill-opacity:1;" d="M 158.632812 86.9375 L 161.421875 86.9375 L 161.421875 111.378906 L 158.632812 111.378906 L 158.632812 86.9375 "/>
<path style=" stroke:none;fill-rule:nonzero;fill:rgb(0%,19.993591%,59.959412%);fill-opacity:1;" d="M 189.769531 5.078125 L 359.84375 5.078125 L 359.84375 118.464844 L 189.769531 118.464844 L 189.769531 5.078125 "/>
<path style=" stroke:none;fill-rule:nonzero;fill:rgb(100%,80.076599%,0%);fill-opacity:1;" d="M 271.183594 29.78125 L 274.769531 27.164062 L 278.359375 29.78125 L 276.992188 25.546875 L 280.640625 22.929688 L 276.144531 22.929688 L 274.769531 18.640625 L 273.394531 22.933594 L 268.90625 22.929688 L 272.546875 25.546875 L 271.183594 29.78125 "/>
<path style=" stroke:none;fill-rule:nonzero;fill:rgb(100%,80.076599%,0%);fill-opacity:1;" d="M 252.609375 34.773438 L 256.199219 32.152344 L 259.785156 34.773438 L 258.421875 30.539062 L 262.066406 27.917969 L 257.570312 27.917969 L 256.195312 23.625 L 254.820312 27.921875 L 250.332031 27.917969 L 253.972656 30.539062 L 252.609375 34.773438 "/>
<path style=" stroke:none;fill-rule:nonzero;fill:rgb(100%,80.076599%,0%);fill-opacity:1;" d="M 242.609375 37.246094 L 241.234375 41.542969 L 236.742188 41.539062 L 240.386719 44.15625 L 239.019531 48.390625 L 242.609375 45.773438 L 246.199219 48.390625 L 244.832031 44.15625 L 248.476562 41.539062 L 243.984375 41.539062 L 242.609375 37.246094 "/>
<path style=" stroke:none;fill-rule:nonzero;fill:rgb(100%,80.076599%,0%);fill-opacity:1;" d="M 237.625 64.320312 L 241.210938 66.941406 L 239.847656 62.707031 L 243.488281 60.085938 L 239 60.085938 L 237.625 55.796875 L 236.25 60.097656 L 231.757812 60.085938 L 235.402344 62.707031 L 234.035156 66.941406 L 237.625 64.320312 "/>
<path style=" stroke:none;fill-rule:nonzero;fill:rgb(100%,80.076599%,0%);fill-opacity:1;" d="M 243.984375 78.691406 L 242.609375 74.398438 L 241.234375 78.695312 L 236.742188 78.691406 L 240.386719 81.308594 L 239.019531 85.546875 L 242.609375 82.921875 L 246.199219 85.546875 L 244.832031 81.308594 L 248.476562 78.691406 L 243.984375 78.691406 "/>
<path style=" stroke:none;fill-rule:nonzero;fill:rgb(100%,80.076599%,0%);fill-opacity:1;" d="M 257.601562 92.304688 L 256.226562 88.019531 L 254.851562 92.3125 L 250.359375 92.304688 L 254.003906 94.925781 L 252.636719 99.160156 L 256.226562 96.542969 L 259.8125 99.160156 L 258.449219 94.925781 L 262.09375 92.304688 L 257.601562 92.304688 "/>
<path style=" stroke:none;fill-rule:nonzero;fill:rgb(100%,80.076599%,0%);fill-opacity:1;" d="M 276.148438 97.238281 L 274.773438 92.949219 L 273.402344 97.246094 L 268.90625 97.238281 L 272.550781 99.859375 L 271.1875 104.09375 L 274.777344 101.476562 L 278.363281 104.09375 L 276.996094 99.859375 L 280.640625 97.238281 L 276.148438 97.238281 "/>
<path style=" stroke:none;fill-rule:nonzero;fill:rgb(100%,80.076599%,0%);fill-opacity:1;" d="M 294.695312 92.304688 L 293.324219 88.019531 L 291.945312 92.3125 L 287.457031 92.304688 L 291.097656 94.925781 L 289.734375 99.160156 L 293.324219 96.542969 L 296.914062 99.160156 L 295.546875 94.925781 L 299.191406 92.304688 L 294.695312 92.304688 "/>
<path style=" stroke:none;fill-rule:nonzero;fill:rgb(100%,80.076599%,0%);fill-opacity:1;" d="M 308.316406 78.691406 L 306.9375 74.398438 L 305.5625 78.695312 L 301.074219 78.691406 L 304.71875 81.308594 L 303.351562 85.546875 L 306.9375 82.921875 L 310.527344 85.546875 L 309.160156 81.308594 L 312.804688 78.691406 L 308.316406 78.691406 "/>
<path style=" stroke:none;fill-rule:nonzero;fill:rgb(100%,80.076599%,0%);fill-opacity:1;" d="M 317.738281 60.035156 L 313.246094 60.035156 L 311.867188 55.742188 L 310.496094 60.039062 L 306.003906 60.035156 L 309.648438 62.652344 L 308.285156 66.890625 L 311.867188 64.265625 L 315.457031 66.890625 L 314.09375 62.652344 L 317.738281 60.035156 "/>
<path style=" stroke:none;fill-rule:nonzero;fill:rgb(100%,80.076599%,0%);fill-opacity:1;" d="M 303.351562 48.335938 L 306.9375 45.71875 L 310.527344 48.335938 L 309.160156 44.101562 L 312.804688 41.488281 L 308.316406 41.488281 L 306.9375 37.195312 L 305.5625 41.492188 L 301.074219 41.488281 L 304.71875 44.101562 L 303.351562 48.335938 "/>
<path style=" stroke:none;fill-rule:nonzero;fill:rgb(100%,80.076599%,0%);fill-opacity:1;" d="M 293.375 23.632812 L 292.003906 27.929688 L 287.511719 27.917969 L 291.148438 30.542969 L 289.785156 34.777344 L 293.382812 32.152344 L 296.964844 34.777344 L 295.601562 30.542969 L 299.246094 27.917969 L 294.746094 27.917969 L 293.375 23.632812 "/>
</g>
</svg>
