<?xml version="1.0" encoding="UTF-8" standalone="no"?>
<svg
   width="179.34843pt"
   height="122.65703pt"
   viewBox="0 0 179.34843 122.65703"
   version="1.1"
   id="svg88"
   sodipodi:docname="logo--en (copy 1).svg"
   inkscape:version="1.1.2 (0a00cf5339, 2022-02-04)"
   xmlns:inkscape="http://www.inkscape.org/namespaces/inkscape"
   xmlns:sodipodi="http://sodipodi.sourceforge.net/DTD/sodipodi-0.dtd"
   xmlns="http://www.w3.org/2000/svg"
   xmlns:svg="http://www.w3.org/2000/svg">
  <sodipodi:namedview
     id="namedview90"
     pagecolor="#ffffff"
     bordercolor="#666666"
     borderopacity="1.0"
     inkscape:pageshadow="2"
     inkscape:pageopacity="0.0"
     inkscape:pagecheckerboard="0"
     inkscape:document-units="pt"
     showgrid="false"
     fit-margin-top="0.1"
     fit-margin-right="0.1"
     fit-margin-bottom="0.1"
     fit-margin-left="0.1"
     inkscape:zoom="2.3136986"
     inkscape:cx="-6.9153345"
     inkscape:cy="81.687389"
     inkscape:window-width="3840"
     inkscape:window-height="1552"
     inkscape:window-x="0"
     inkscape:window-y="0"
     inkscape:window-maximized="1"
     inkscape:current-layer="surface1" />
  <defs
     id="defs5">
    <clipPath
       id="clip1">
      <path
         d="M 185,0.542969 H 364.37891 V 123 H 185 Z m 0,0"
         id="path2" />
    </clipPath>
  </defs>
  <g
     id="surface1"
     transform="translate(-185.13047,-0.442969)">
    <g
       clip-path="url(#clip1)"
       clip-rule="nonzero"
       id="g9">
      <path
         style="fill:#ffffff;fill-opacity:1;fill-rule:nonzero;stroke:none"
         d="M 185.23047,123 H 364.37891 V 0.542969 H 185.23047 V 123"
         id="path7" />
    </g>
    <path
       style="fill:#003097;fill-opacity:1;fill-rule:nonzero;stroke:none"
       d="M 189.76953,5.078125 H 359.84375 V 118.46484 H 189.76953 V 5.078125"
       id="path61" />
    <path
       style="fill:#ffcc00;fill-opacity:1;fill-rule:nonzero;stroke:none"
       d="m 271.18359,29.78125 3.58594,-2.617188 3.58984,2.617188 -1.36718,-4.234375 3.64843,-2.617187 h -4.49609 l -1.375,-4.289063 -1.375,4.292969 -4.48828,-0.0039 3.64062,2.617187 -1.36328,4.234375"
       id="path63" />
    <path
       style="fill:#ffcc00;fill-opacity:1;fill-rule:nonzero;stroke:none"
       d="m 252.60937,34.773438 3.58985,-2.621094 3.58594,2.621094 -1.36329,-4.234376 3.64454,-2.621093 h -4.4961 l -1.375,-4.292969 -1.375,4.296875 -4.48828,-0.0039 3.64063,2.621093 -1.36329,4.234376"
       id="path65" />
    <path
       style="fill:#ffcc00;fill-opacity:1;fill-rule:nonzero;stroke:none"
       d="m 242.60937,37.246094 -1.375,4.296875 -4.49218,-0.0039 3.64453,2.617188 -1.36719,4.234375 3.58984,-2.617187 3.58985,2.617187 -1.36719,-4.234375 3.64453,-2.617188 h -4.49219 l -1.375,-4.292968"
       id="path67" />
    <path
       style="fill:#ffcc00;fill-opacity:1;fill-rule:nonzero;stroke:none"
       d="m 237.625,64.320312 3.58594,2.621094 -1.36328,-4.234375 3.64062,-2.621093 H 239 l -1.375,-4.289063 -1.375,4.300781 -4.49219,-0.01172 3.64453,2.621093 -1.36718,4.234375 3.58984,-2.621094"
       id="path69" />
    <path
       style="fill:#ffcc00;fill-opacity:1;fill-rule:nonzero;stroke:none"
       d="m 243.98437,78.691406 -1.375,-4.292968 -1.375,4.296874 -4.49218,-0.0039 3.64453,2.617188 -1.36719,4.238281 3.58984,-2.625 3.58985,2.625 -1.36719,-4.238281 3.64453,-2.617188 h -4.49219"
       id="path71" />
    <path
       style="fill:#ffcc00;fill-opacity:1;fill-rule:nonzero;stroke:none"
       d="m 257.60156,92.304688 -1.375,-4.285157 -1.375,4.292969 -4.49219,-0.0078 3.64454,2.621093 -1.36719,4.234375 3.58984,-2.617187 3.58594,2.617187 -1.36328,-4.234375 3.64453,-2.621093 h -4.49219"
       id="path73" />
    <path
       style="fill:#ffcc00;fill-opacity:1;fill-rule:nonzero;stroke:none"
       d="m 276.14844,97.238281 -1.375,-4.289062 -1.3711,4.296875 -4.49609,-0.0078 3.64453,2.621094 -1.36328,4.234372 3.58984,-2.61719 3.58594,2.61719 -1.36719,-4.234372 3.64453,-2.621094 h -4.49218"
       id="path75" />
    <path
       style="fill:#ffcc00;fill-opacity:1;fill-rule:nonzero;stroke:none"
       d="m 294.69531,92.304688 -1.37109,-4.285157 -1.37891,4.292969 -4.48828,-0.0078 3.64063,2.621093 -1.36329,4.234375 3.58985,-2.617187 3.58984,2.617187 -1.36719,-4.234375 3.64454,-2.621093 h -4.4961"
       id="path77" />
    <path
       style="fill:#ffcc00;fill-opacity:1;fill-rule:nonzero;stroke:none"
       d="m 308.31641,78.691406 -1.37891,-4.292968 -1.375,4.296874 -4.48828,-0.0039 3.64453,2.617188 -1.36719,4.238281 3.58594,-2.625 3.58984,2.625 -1.36718,-4.238281 3.64453,-2.617188 h -4.48828"
       id="path79" />
    <path
       style="fill:#ffcc00;fill-opacity:1;fill-rule:nonzero;stroke:none"
       d="m 317.73828,60.035156 h -4.49219 l -1.3789,-4.292968 -1.3711,4.296874 -4.49218,-0.0039 3.64453,2.617188 -1.36328,4.238281 3.58203,-2.625 3.58984,2.625 -1.36328,-4.238281 3.64453,-2.617188"
       id="path81" />
    <path
       style="fill:#ffcc00;fill-opacity:1;fill-rule:nonzero;stroke:none"
       d="m 303.35156,48.335938 3.58594,-2.617188 3.58984,2.617188 -1.36718,-4.234376 3.64453,-2.613281 h -4.48828 l -1.37891,-4.292969 -1.375,4.296876 -4.48828,-0.0039 3.64453,2.613281 -1.36719,4.234376"
       id="path83" />
    <path
       style="fill:#ffcc00;fill-opacity:1;fill-rule:nonzero;stroke:none"
       d="m 293.375,23.632812 -1.37109,4.296876 -4.49219,-0.01172 3.63672,2.625 -1.36328,4.234375 3.59765,-2.625 3.58203,2.625 -1.36328,-4.234375 3.64453,-2.625 h -4.5 L 293.375,23.632812"
       id="path85" />
  </g>
</svg>
