<svg width="16" height="16" viewBox="0 0 16 16" fill="none" xmlns="http://www.w3.org/2000/svg">
<path d="M12 1H3V2H1V3H14V2H12V1Z" fill="currentColor"/>
<path fill-rule="evenodd" clip-rule="evenodd" d="M2 4H13L12.0827 14.0905C12.0359 14.6056 11.604 15 11.0868 15H3.91321C3.39601 15 2.96415 14.6056 2.91732 14.0905L2 4ZM8 6.5C8 6.22386 8.22386 6 8.5 6C8.77614 6 9 6.22386 9 6.5V12.5C9 12.7761 8.77614 13 8.5 13C8.22386 13 8 12.7761 8 12.5V6.5ZM10.5 6C10.2239 6 10 6.22386 10 6.5V12.5C10 12.7761 10.2239 13 10.5 13C10.7761 13 11 12.7761 11 12.5V6.5C11 6.22386 10.7761 6 10.5 6ZM6 6.5C6 6.22386 6.22386 6 6.5 6C6.77614 6 7 6.22386 7 6.5V12.5C7 12.7761 6.77614 13 6.5 13C6.22386 13 6 12.7761 6 12.5V6.5ZM4.5 6C4.22386 6 4 6.22386 4 6.5V12.5C4 12.7761 4.22386 13 4.5 13C4.77614 13 5 12.7761 5 12.5V6.5C5 6.22386 4.77614 6 4.5 6Z" fill="currentColor"/>
</svg>
