<svg width="12" height="10" viewBox="0 0 12 10" fill="none" xmlns="http://www.w3.org/2000/svg">
<path d="M0.599999 0.200195C0.453039 0.200215 0.311197 0.254169 0.201377 0.351824C0.0915556 0.44948 0.0213938 0.584045 0.00419998 0.729995L0 0.800195V4.7002C-4.19617e-05 5.23724 0.205667 5.75388 0.574834 6.14392C0.944 6.53395 1.44857 6.76774 1.9848 6.7972L2.1 6.8002H9.951L7.9758 8.776C7.87249 8.87931 7.81044 9.01677 7.80127 9.16259C7.7921 9.3084 7.83645 9.45255 7.926 9.568L7.9758 9.6244C8.07912 9.7277 8.21658 9.78976 8.36239 9.79893C8.50821 9.8081 8.65236 9.76375 8.7678 9.6742L8.8242 9.6244L11.8242 6.6244C11.8452 6.60345 11.8647 6.58099 11.8824 6.5572L11.925 6.4912L11.9574 6.4228L11.9784 6.3598L11.9934 6.2896L11.9976 6.2536L12 6.2002L11.9982 6.1552L11.988 6.0796L11.97 6.013L11.9436 5.9464L11.9124 5.8876L11.874 5.8324L11.8242 5.776L8.8242 2.776C8.71623 2.66839 8.57134 2.60591 8.41897 2.60126C8.2666 2.59661 8.11817 2.65012 8.00383 2.75094C7.88949 2.85176 7.81782 2.99233 7.80336 3.14408C7.7889 3.29583 7.83275 3.4474 7.926 3.568L7.9758 3.6244L9.951 5.6002H2.1C1.87636 5.6002 1.66074 5.51694 1.49513 5.36665C1.32953 5.21635 1.22582 5.00978 1.2042 4.7872L1.2 4.7002V0.800195C1.2 0.641065 1.13679 0.488453 1.02426 0.375931C0.911742 0.26341 0.75913 0.200195 0.599999 0.200195Z" fill="currentColor"/>
</svg>
