<svg xmlns="http://www.w3.org/2000/svg" width="18.42mm" height="18.42mm" viewBox="0 0 52.21 52.22">
  <g>
    <path d="M299.68,418.66H321.2c2.33,0,2.91.56,2.91,2.95v22.15a3.51,3.51,0,0,1-.23,1.56,2.46,2.46,0,0,1-1.16,1.07,4.29,4.29,0,0,1-1.65.21q-23.13,0-46.27,0a4.86,4.86,0,0,1-.94,0c-1.67-.26-2-.62-2-2.33V396.66c0-1.9.38-2.28,2.24-2.28H297.3c1.85,0,2.38.53,2.38,2.39v21.89Zm-3.59,24.41V397.8c-.41,0-.75,0-1.08,0h-18.4c-1.36,0-1.38,0-1.38,1.39v42.6a5.42,5.42,0,0,1,0,.57c0,.54.19.79.77.77,1.26,0,2.5,0,3.76,0,.62,0,.81-.23.81-.83,0-2,0-3.94,0-5.91a1.71,1.71,0,0,1,1.89-1.94q3.24,0,6.48,0c1.35,0,2,.68,2,2v5.82c0,.45,0,.81.62.81C293,443.05,294.54,443.07,296.09,443.07Zm3.65-20.84c0,.22-.06.37-.06.52,0,6.52,0,13,0,19.53,0,.83.41.81,1,.81,6.29,0,12.58,0,18.87,0,.8,0,1.07-.21,1.05-1.06,0-6.32,0-12.63,0-19,0-.26,0-.54-.06-.86ZM287.51,440.5c0-2.86,0-2.84-2.77-2.71-.62,0-.83.26-.81.85,0,1.16.05,2.31,0,3.47,0,.77.26,1,1,1C287.51,443.11,287.51,443.12,287.51,440.5Z" transform="translate(-271.89 -394.38)" fill="#0b4691"/>
    <path d="M285.8,410c-1.93,0-1.82.24-1.82-1.79,0-.22,0-.43,0-.65-.09-.83.27-1.09,1.07-1.08,2.91.08,2.39-.35,2.44,2.41C287.51,410.25,287.53,410,285.8,410Z" transform="translate(-271.89 -394.38)" fill="#0b4691"/>
    <path d="M287.49,418.75c0,1.75.34,1.69-1.7,1.69-2.22,0-1.77-.07-1.79-1.84,0-1.93-.11-1.63,1.65-1.65h.1C287.49,417,287.49,417,287.49,418.75Z" transform="translate(-271.89 -394.38)" fill="#0b4691"/>
    <path d="M287.5,401.29V404c0,.51-.21.77-.74.72h-.18c-2.8,0-2.86,0-2.56-2.82a.9.9,0,0,1,.58-.62C285.52,401.26,286.44,401.29,287.5,401.29Z" transform="translate(-271.89 -394.38)" fill="#0b4691"/>
    <path d="M278.8,410c0-1.06,0-2,0-3,0-.19.32-.36.49-.53s.11,0,.19,0c3.36.06,2.66-.48,2.76,2.75,0,.56-.23.78-.77.78C280.66,410,279.82,410,278.8,410Z" transform="translate(-271.89 -394.38)" fill="#0b4691"/>
    <path d="M292.66,410a26.78,26.78,0,0,1-2.72,0c-.25,0-.47-.41-.68-.64-.06-.06,0-.19,0-.28,0-3.08-.41-2.52,2.76-2.54a.89.89,0,0,1,.62.57C292.7,408,292.66,408.92,292.66,410Z" transform="translate(-271.89 -394.38)" fill="#0b4691"/>
    <path d="M278.8,417c1.05,0,1.95,0,2.86,0,.2,0,.41.37.6.6a.87.87,0,0,1,0,.28c0,2.8,0,2.86-2.8,2.57-.23,0-.6-.3-.62-.47C278.76,419,278.8,418,278.8,417Z" transform="translate(-271.89 -394.38)" fill="#0b4691"/>
    <path d="M287.49,427.5v.77c0,2.84,0,2.86-2.87,2.56a.87.87,0,0,1-.6-.49c0-.92,0-1.84,0-2.82C285.2,427.5,286.27,427.5,287.49,427.5Z" transform="translate(-271.89 -394.38)" fill="#0b4691"/>
    <path d="M292.66,417c0,1.07,0,2,0,2.93a.82.82,0,0,1-.54.53c-2.56.37-3.29-.4-2.8-2.91a.82.82,0,0,1,.58-.53C290.74,416.91,291.64,417,292.66,417Z" transform="translate(-271.89 -394.38)" fill="#0b4691"/>
    <path d="M285.77,422.21c1.73,0,1.74,0,1.73,1.71,0,1.87.3,1.67-1.69,1.67s-1.81.24-1.83-1.79a3.53,3.53,0,0,0,0-.46c-.13-.89.21-1.3,1.13-1.15A3.7,3.7,0,0,0,285.77,422.21Z" transform="translate(-271.89 -394.38)" fill="#0b4691"/>
    <path d="M278.9,401.37h3.36c0,.94,0,1.8,0,2.66,0,.53-.25.72-.75.72-.85,0-1.69,0-2.61,0Z" transform="translate(-271.89 -394.38)" fill="#0b4691"/>
    <path d="M292.62,401.31v3.1a1.16,1.16,0,0,1-.13.34c-.85,0-1.71,0-2.57,0-.23,0-.43-.32-.64-.51-.06-.05,0-.17,0-.26-.26-2.63-.26-2.63,2.31-2.65C291.89,401.29,292.23,401.31,292.62,401.31Z" transform="translate(-271.89 -394.38)" fill="#0b4691"/>
    <path d="M287.5,415.15c-1.07,0-2.05,0-3.05,0-.17,0-.32-.3-.45-.47a.82.82,0,0,1,0-.28c-.13-2.57.47-3.08,3-2.55.18,0,.43.39.45.62C287.53,413.29,287.5,414.14,287.5,415.15Z" transform="translate(-271.89 -394.38)" fill="#0b4691"/>
    <path d="M278.86,425.49v-3.28c1,0,1.89,0,2.81,0,.21,0,.38.34.57.52,0,0,0,.12,0,.19C282.37,425.76,282.09,426,278.86,425.49Z" transform="translate(-271.89 -394.38)" fill="#0b4691"/>
    <path d="M278.9,430.85v-3.33h3.36c0,.94,0,1.86,0,2.78,0,.21-.41.51-.64.53C280.7,430.88,279.84,430.85,278.9,430.85Z" transform="translate(-271.89 -394.38)" fill="#0b4691"/>
    <path d="M292.64,425.59c-1,0-1.86,0-2.7,0-.25,0-.45-.36-.66-.56,0,0,0-.12,0-.19.11-3.16-.77-2.61,3.38-2.56v3.33Z" transform="translate(-271.89 -394.38)" fill="#0b4691"/>
    <path d="M289.34,430.85V427.5h3.3c0,.92,0,1.79,0,2.65,0,.53-.17.71-.7.7C291.12,430.83,290.27,430.85,289.34,430.85Z" transform="translate(-271.89 -394.38)" fill="#0b4691"/>
    <path d="M278.88,411.79h2.74c.47,0,.67.19.66.67,0,.85,0,1.69,0,2.61H278.9C278.88,414,278.88,413,278.88,411.79Z" transform="translate(-271.89 -394.38)" fill="#0b4691"/>
    <path d="M292.66,415.13c-1,0-1.88,0-2.74,0-.25,0-.45-.39-.68-.62,0,0,0-.11,0-.18-.07-2.56.43-3,3-2.48a.63.63,0,0,1,.41.47C292.68,413.2,292.66,414.14,292.66,415.13Z" transform="translate(-271.89 -394.38)" fill="#0b4691"/>
    <path d="M306.66,427.45c0,1.91.21,1.71-1.7,1.69s-1.86.32-1.86-1.86c0-1.64,0-1.64,1.59-1.64h.19C306.89,425.68,306.65,425.34,306.66,427.45Z" transform="translate(-271.89 -394.38)" fill="#0b4691"/>
    <path d="M308.41,427.39c0-1.73,0-1.75,1.78-1.73s1.6-.32,1.58,1.6c0,2.23.25,1.86-1.88,1.9h-.09c-1.67,0-1.41.07-1.41-1.39A2.48,2.48,0,0,0,308.41,427.39Z" transform="translate(-271.89 -394.38)" fill="#0b4691"/>
    <path d="M313.61,427.32c0-1.68,0-1.68,1.69-1.68,1.92,0,1.77-.35,1.77,1.81,0,2,.09,1.69-1.73,1.69C313.31,429.14,313.65,429.4,313.61,427.32Z" transform="translate(-271.89 -394.38)" fill="#0b4691"/>
    <path d="M304.86,434.26c-1.91,0-1.74.21-1.74-1.76,0-.23,0-.43,0-.66-.08-.71.18-1,.95-1a8.92,8.92,0,0,0,1.79,0c.71-.07.88.23.84.87,0,.43,0,.88,0,1.31,0,1.22,0,1.22-1.24,1.22Z" transform="translate(-271.89 -394.38)" fill="#0b4691"/>
    <path d="M306.66,437.81c0,1.88.29,1.75-1.76,1.75-1.78,0-1.8.28-1.78-1.75,0-.24,0-.51,0-.75-.08-.73.2-1.05.95-1,.47.06.94,0,1.41,0,1.2,0,1.2,0,1.2,1.24A3.1,3.1,0,0,0,306.66,437.81Z" transform="translate(-271.89 -394.38)" fill="#0b4691"/>
    <path d="M313.61,436.1c1,0,1.9,0,2.76,0,.25,0,.47.39.7.62,0,0,0,.06,0,.09-.08,3.29.58,2.63-2.74,2.73-.51,0-.74-.19-.72-.74C313.63,438,313.61,437.08,313.61,436.1Z" transform="translate(-271.89 -394.38)" fill="#0b4691"/>
    <path d="M315.36,430.9c1.71,0,1.71,0,1.71,1.67,0,1.92.22,1.67-1.69,1.69-1.75,0-1.75,0-1.75-1.78C313.61,430.9,313.61,430.9,315.36,430.9Z" transform="translate(-271.89 -394.38)" fill="#0b4691"/>
    <path d="M308.41,437.77c0-1.67,0-1.67,1.65-1.67s1.73,0,1.71,1.73c0,2,.23,1.71-1.76,1.73C308.41,439.56,308.41,439.54,308.41,437.77Z" transform="translate(-271.89 -394.38)" fill="#0b4691"/>
    <path d="M308.41,432.52c0-1.62,0-1.62,1.58-1.62,1.78,0,1.8,0,1.78,1.77s.23,1.59-1.58,1.61S308.41,434.28,308.41,432.52Z" transform="translate(-271.89 -394.38)" fill="#0b4691"/>
  </g>
</svg>
