<svg width="24" height="24" viewBox="0 0 24 24" fill="none" xmlns="http://www.w3.org/2000/svg">
  <path d="M2 2C0.895447 2 0 2.89542 0 4V19L3 16H6V6C6 4.89543 6.89543 4 8 4H17C17 2.89542 16.1046 2 15 2H2Z" fill="currentColor"/>
  <path d="M20 18H20.4142L20.7071 18.2929L22 19.5858V7C22 6.44772 21.5523 6 21 6H9C8.44772 6 8 6.44772 8 7V17C8 17.5523 8.44772 18 9 18H20Z" stroke="currentColor" stroke-width="2" fill-opacity="0" />
  <line x1="12" y1="10" x2="18" y2="10" stroke="currentColor" stroke-width="2" stroke-linecap="round" stroke-linejoin="round"/>
  <path d="M12 14H16" stroke="currentColor" stroke-width="2" stroke-linecap="round" stroke-linejoin="round"/>
</svg>
