<svg width="23" height="25" viewBox="0 0 23 25" fill="none" xmlns="http://www.w3.org/2000/svg">
<path d="M22.4303 6.40935L16.4991 0.246328C16.3494 0.0869391 16.1368 0 15.9147 0H7.07587C5.8877 0 4.92171 0.96599 4.92171 2.15416V8.05636H1.70497C0.763131 8.05636 0 8.81949 0 9.76133V16.4798C0 17.4216 0.763131 18.1848 1.70497 18.1848H4.92654V21.8507C4.92654 23.0389 5.89253 24.0049 7.0807 24.0049H20.5031C21.6913 24.0049 22.6573 23.0389 22.6573 21.8555V6.97928C22.6573 6.76193 22.5752 6.55907 22.4303 6.40935ZM20.0443 6.26445H16.388V2.46811L20.0443 6.26445ZM6.54458 18.1799H13.7943C14.7362 18.1799 15.4993 17.4168 15.4993 16.475V9.76133C15.4993 8.81949 14.7362 8.05636 13.7943 8.05636H6.54458V2.15416C6.54458 1.85953 6.78607 1.61803 7.0807 1.61803H14.77V7.07588C14.77 7.52023 15.1322 7.88731 15.5814 7.88731H21.0392V21.8507C21.0392 22.1453 20.7977 22.382 20.5031 22.382H7.0807C6.78607 22.382 6.54458 22.1453 6.54458 21.8507V18.1799ZM13.8764 9.76133V16.4798C13.8764 16.5281 13.8378 16.5619 13.7895 16.5619H1.70497C1.65667 16.5619 1.61803 16.5233 1.61803 16.4798V9.76133C1.61803 9.71303 1.65667 9.67922 1.70497 9.67922H13.7895C13.8378 9.67439 13.8764 9.71303 13.8764 9.76133Z" fill="#003D84"/>
<path d="M6.33667 11.4199H7.92572C8.23966 11.4199 8.49082 11.4634 8.68402 11.5455C8.87722 11.6276 9.0366 11.7532 9.16218 11.9126C9.28776 12.072 9.37953 12.2555 9.43749 12.468C9.49545 12.6805 9.52443 12.9027 9.52443 13.1394C9.52443 13.5113 9.48096 13.7962 9.39885 13.9991C9.31674 14.202 9.19599 14.371 9.04626 14.5111C8.89653 14.6463 8.73715 14.7381 8.56327 14.7864C8.3266 14.8492 8.11892 14.883 7.92572 14.883H6.33667V11.4199ZM7.40409 12.2024V14.0909H7.6649C7.88708 14.0909 8.04647 14.0667 8.14307 14.0184C8.23966 13.9701 8.31211 13.8832 8.36524 13.7576C8.41837 13.632 8.44735 13.434 8.44735 13.1587C8.44735 12.7916 8.38939 12.5405 8.26864 12.4052C8.1479 12.27 7.94987 12.2024 7.67456 12.2024H7.40409V12.2024Z" fill="#003D84"/>
<path fill-rule="evenodd" clip-rule="evenodd" d="M10.8904 14.8799H9.82446V13.63V12.7799V11.4199H12.5545V12.2704L10.8904 12.2704V12.7799H11.8245V13.63H10.8904L10.8904 14.8799Z" fill="#003D84"/>
<path d="M3.1001 11.4199H4.87752C5.26391 11.4199 5.55371 11.5117 5.74691 11.6952C5.94011 11.8788 6.03671 12.1396 6.03671 12.4825C6.03671 12.8303 5.93045 13.1056 5.72276 13.2988C5.51507 13.492 5.19146 13.5934 4.7616 13.5934H4.17718V14.8781H3.10493V11.4199H3.1001ZM4.17235 12.893H4.43316C4.64085 12.893 4.78575 12.8592 4.86786 12.7868C4.94997 12.7143 4.99344 12.6226 4.99344 12.5115C4.99344 12.4052 4.95963 12.3086 4.88718 12.2362C4.81473 12.1637 4.67949 12.1251 4.48146 12.1251H4.17718V12.893H4.17235Z" fill="#003D84"/>
</svg>
