<svg width="29" height="30" viewBox="0 0 29 30" fill="none" xmlns="http://www.w3.org/2000/svg">
<g clip-path="url(#clip0)">
<path d="M28.0378 8.01168L20.6239 0.307909C20.4367 0.108674 20.1711 0 19.8933 0H8.84484C7.35963 0 6.15214 1.20749 6.15214 2.6927V10.0705H2.13121C0.953914 10.0705 0 11.0244 0 12.2017V20.5997C0 21.777 0.953914 22.731 2.13121 22.731H6.15818V27.3134C6.15818 28.7986 7.36567 30.0061 8.85088 30.0061H25.6289C27.1141 30.0061 28.3216 28.7986 28.3216 27.3194V8.7241C28.3216 8.45242 28.219 8.19884 28.0378 8.01168ZM25.0553 7.83056H20.485V3.08513L25.0553 7.83056ZM8.18072 22.7249H20.8654C22.0427 22.7249 22.9966 21.771 22.9966 20.5937V12.2017C22.9966 11.0244 22.0427 10.0705 20.8654 10.0705H8.18072V2.6927C8.18072 2.32441 8.48259 2.02254 8.85088 2.02254H18.4625V8.84485C18.4625 9.40029 18.9153 9.85914 19.4768 9.85914H26.2991V27.3134C26.2991 27.6817 25.9972 27.9775 25.6289 27.9775H8.85088C8.48259 27.9775 8.18072 27.6817 8.18072 27.3134V22.7249ZM20.968 12.2017V20.5997C20.968 20.6601 20.9197 20.7024 20.8593 20.7024H2.13121C2.07084 20.7024 2.02254 20.6541 2.02254 20.5997V12.2017C2.02254 12.1413 2.07084 12.099 2.13121 12.099H20.8593C20.9197 12.093 20.968 12.1413 20.968 12.2017Z" fill="#003D84"/>
<path d="M2.8374 14.291H4.17167V15.8004H5.63273V14.291H6.97304V18.6138H5.63273V16.8629H4.17167V18.6138H2.8374V14.291Z" fill="#003D84"/>
<path d="M7.25677 14.291H11.3139V15.3596H9.94947V18.6138H8.61519V15.3596H7.25073V14.291H7.25677Z" fill="#003D84"/>
<path d="M11.604 14.291H13.3609L14.0371 16.9233L14.7072 14.291H16.4641V18.6138H15.3713V15.3174L14.5261 18.6138H13.536L12.6968 15.3174V18.6138H11.604V14.291Z" fill="#003D84"/>
<path d="M17.0132 14.291H18.3535V17.5512H20.4364V18.6138H17.0192V14.291H17.0132Z" fill="#003D84"/>
</g>
<defs>
<clipPath id="clip0">
<rect width="28.3216" height="30" fill="white"/>
</clipPath>
</defs>
</svg>
