<svg width="29" height="30" viewBox="0 0 29 30" fill="none" xmlns="http://www.w3.org/2000/svg">
<g clip-path="url(#clip0)">
<path d="M28.0378 8.01168L20.6239 0.307909C20.4367 0.108674 20.1711 0 19.8933 0H8.84484C7.35963 0 6.15214 1.20749 6.15214 2.6927V10.0705H2.13121C0.953914 10.0705 0 11.0244 0 12.2017V20.5997C0 21.777 0.953914 22.731 2.13121 22.731H6.15818V27.3134C6.15818 28.7986 7.36567 30.0061 8.85088 30.0061H25.6289C27.1141 30.0061 28.3216 28.7986 28.3216 27.3194V8.7241C28.3216 8.45242 28.219 8.19884 28.0378 8.01168ZM25.0553 7.83056H20.485V3.08513L25.0553 7.83056ZM8.18072 22.7249H17.2429C18.4202 22.7249 19.3741 21.771 19.3741 20.5937V12.2017C19.3741 11.0244 18.4202 10.0705 17.2429 10.0705H8.18072V2.6927C8.18072 2.32441 8.48259 2.02254 8.85088 2.02254H18.4625V8.84485C18.4625 9.40029 18.9153 9.85914 19.4768 9.85914H26.2991V27.3134C26.2991 27.6817 25.9972 27.9775 25.6289 27.9775H8.85088C8.48259 27.9775 8.18072 27.6817 8.18072 27.3134V22.7249ZM17.3455 12.2017V20.5997C17.3455 20.6601 17.2972 20.7024 17.2369 20.7024H2.13121C2.07084 20.7024 2.02254 20.6541 2.02254 20.5997V12.2017C2.02254 12.1413 2.07084 12.099 2.13121 12.099H17.2369C17.2972 12.093 17.3455 12.1413 17.3455 12.2017Z" fill="#003D84"/>
<path d="M2.56592 14.291H4.55223C4.94467 14.291 5.25861 14.3454 5.50011 14.448C5.74161 14.5567 5.94084 14.7076 6.09782 14.9068C6.25479 15.1061 6.3695 15.3355 6.44195 15.6011C6.5144 15.8668 6.55062 16.1445 6.55062 16.4403C6.55062 16.9052 6.49629 17.2614 6.39365 17.515C6.29101 17.7686 6.14008 17.9799 5.95292 18.155C5.76576 18.324 5.56652 18.4387 5.34917 18.4991C5.05334 18.5776 4.79373 18.6199 4.55223 18.6199H2.56592V14.291ZM3.90019 15.2691V17.6297H4.22621C4.50393 17.6297 4.70317 17.5995 4.82392 17.5392C4.94467 17.4788 5.03523 17.3701 5.10164 17.2131C5.16805 17.0562 5.20428 16.8086 5.20428 16.4645C5.20428 16.0057 5.13183 15.6917 4.98089 15.5227C4.82996 15.3536 4.58242 15.2691 4.23829 15.2691H3.90019Z" fill="#003D84"/>
<path d="M6.59888 14.291H7.86674L8.32558 16.712L8.99574 14.291H10.2576L10.9277 16.706L11.3866 14.291H12.6484L11.6945 18.6138H10.3843L9.62363 15.8909L8.86895 18.6138H7.55883L6.59888 14.291Z" fill="#003D84"/>
<path d="M14.8523 17.0443V16.1447H16.9171V17.9921C16.5246 18.2638 16.1745 18.445 15.8666 18.5416C15.5587 18.6382 15.2024 18.6865 14.7859 18.6865C14.2727 18.6865 13.8561 18.6019 13.5301 18.4268C13.2041 18.2518 12.9565 17.9921 12.7754 17.648C12.6003 17.3039 12.5098 16.9054 12.5098 16.4586C12.5098 15.9877 12.6064 15.5772 12.7996 15.227C12.9928 14.8768 13.2765 14.6112 13.6569 14.4301C13.9467 14.2912 14.3451 14.2188 14.8402 14.2188C15.3172 14.2188 15.6734 14.261 15.9088 14.3455C16.1443 14.4301 16.3435 14.5689 16.5005 14.75C16.6575 14.9312 16.7722 15.1606 16.8507 15.4443L15.5647 15.6738C15.5104 15.5108 15.4198 15.384 15.293 15.2995C15.1662 15.2149 15.0032 15.1727 14.81 15.1727C14.5142 15.1727 14.2848 15.2753 14.1097 15.4806C13.9346 15.6858 13.8501 16.0058 13.8501 16.4466C13.8501 16.9114 13.9406 17.2495 14.1157 17.4488C14.2908 17.648 14.5383 17.7506 14.8523 17.7506C15.0032 17.7506 15.1421 17.7265 15.2809 17.6842C15.4138 17.642 15.5707 17.5695 15.7458 17.4609V17.0563H14.8523V17.0443Z" fill="#003D84"/>
</g>
<defs>
<clipPath id="clip0">
<rect width="28.3216" height="30" fill="white"/>
</clipPath>
</defs>
</svg>
