<svg width="29" height="30" viewBox="0 0 29 30" fill="none" xmlns="http://www.w3.org/2000/svg">
<g clip-path="url(#clip0)">
<path d="M28.0378 8.01168L20.6239 0.307909C20.4367 0.108674 20.1711 0 19.8933 0H8.84484C7.35963 0 6.15214 1.20749 6.15214 2.6927V10.0705H2.13121C0.953914 10.0705 0 11.0244 0 12.2017V20.5997C0 21.777 0.953914 22.731 2.13121 22.731H6.15818V27.3134C6.15818 28.7986 7.36567 30.0061 8.85088 30.0061H25.6289C27.1141 30.0061 28.3216 28.7986 28.3216 27.3194V8.7241C28.3216 8.45242 28.219 8.19884 28.0378 8.01168ZM25.0553 7.83056H20.485V3.08513L25.0553 7.83056ZM8.18072 22.7249H17.2429C18.4202 22.7249 19.3741 21.771 19.3741 20.5937V12.2017C19.3741 11.0244 18.4202 10.0705 17.2429 10.0705H8.18072V2.6927C8.18072 2.32441 8.48259 2.02254 8.85088 2.02254H18.4625V8.84485C18.4625 9.40029 18.9153 9.85914 19.4768 9.85914H26.2991V27.3134C26.2991 27.6817 25.9972 27.9775 25.6289 27.9775H8.85088C8.48259 27.9775 8.18072 27.6817 8.18072 27.3134V22.7249ZM17.3455 12.2017V20.5997C17.3455 20.6601 17.2972 20.7024 17.2369 20.7024H2.13121C2.07084 20.7024 2.02254 20.6541 2.02254 20.5997V12.2017C2.02254 12.1413 2.07084 12.099 2.13121 12.099H17.2369C17.2972 12.093 17.3455 12.1413 17.3455 12.2017Z" fill="#003D84"/>
<path d="M3.23608 14.291H5.22239C5.61483 14.291 5.92877 14.3454 6.17027 14.448C6.41177 14.5506 6.611 14.7076 6.76797 14.9068C6.92495 15.1061 7.03966 15.3355 7.11211 15.6011C7.18455 15.8668 7.22078 16.1445 7.22078 16.4403C7.22078 16.9052 7.16644 17.2614 7.06381 17.515C6.96117 17.7686 6.81023 17.9799 6.62307 18.155C6.43591 18.324 6.23668 18.4387 6.01933 18.4991C5.7235 18.5776 5.46389 18.6198 5.22239 18.6198H3.23608V14.291ZM4.57035 15.2691V17.6297H4.89637C5.17409 17.6297 5.37333 17.5995 5.49408 17.5391C5.61483 17.4788 5.70539 17.3701 5.7718 17.2131C5.83821 17.0561 5.87444 16.8086 5.87444 16.4645C5.87444 16.0056 5.80199 15.6917 5.65105 15.5226C5.50012 15.3536 5.25258 15.2691 4.90845 15.2691H4.57035Z" fill="#003D84"/>
<path d="M7.44434 16.4528C7.44434 15.7464 7.64357 15.197 8.036 14.8046C8.42844 14.4121 8.97784 14.2129 9.67819 14.2129C10.3966 14.2129 10.9521 14.4061 11.3385 14.7925C11.7249 15.1789 11.9241 15.7222 11.9241 16.4166C11.9241 16.9237 11.8396 17.3342 11.6705 17.6603C11.5015 17.9863 11.254 18.2338 10.934 18.4149C10.614 18.5961 10.2095 18.6866 9.73252 18.6866C9.24349 18.6866 8.83898 18.6081 8.52504 18.4512C8.20505 18.2942 7.94544 18.0527 7.74621 17.7146C7.54093 17.3765 7.44434 16.9599 7.44434 16.4528ZM8.77861 16.4588C8.77861 16.8935 8.85709 17.2075 9.02011 17.4007C9.18312 17.5939 9.40046 17.6844 9.68422 17.6844C9.97402 17.6844 10.1914 17.5939 10.3483 17.4067C10.5053 17.2195 10.5838 16.8875 10.5838 16.3984C10.5838 15.9939 10.4993 15.6921 10.3363 15.5049C10.1733 15.3177 9.94987 15.2211 9.66611 15.2211C9.39443 15.2211 9.18312 15.3177 9.02011 15.5049C8.86313 15.7041 8.77861 16.0181 8.77861 16.4588Z" fill="#003D84"/>
<path d="M15.2143 16.8449L16.3856 17.2011C16.3071 17.5271 16.1803 17.8048 16.0112 18.0222C15.8422 18.2395 15.6309 18.4085 15.3834 18.5233C15.1298 18.638 14.8158 18.6923 14.4294 18.6923C13.9585 18.6923 13.5782 18.6259 13.2763 18.487C12.9805 18.3482 12.7209 18.1127 12.5035 17.7686C12.2862 17.4244 12.1775 16.9837 12.1775 16.4464C12.1775 15.734 12.3647 15.1846 12.745 14.7982C13.1254 14.4118 13.6627 14.2246 14.357 14.2246C14.9004 14.2246 15.329 14.3333 15.643 14.5567C15.9569 14.774 16.1863 15.1121 16.3373 15.571L15.16 15.8306C15.1177 15.6977 15.0754 15.6011 15.0332 15.5408C14.9607 15.4381 14.8641 15.3596 14.7615 15.3053C14.6528 15.251 14.5321 15.2208 14.3993 15.2208C14.0974 15.2208 13.8619 15.3415 13.705 15.583C13.5842 15.7642 13.5238 16.0479 13.5238 16.4343C13.5238 16.9113 13.5963 17.2433 13.7412 17.4184C13.8861 17.5935 14.0913 17.6841 14.357 17.6841C14.6106 17.6841 14.8038 17.6116 14.9366 17.4667C15.0634 17.3218 15.16 17.1165 15.2143 16.8449Z" fill="#003D84"/>
</g>
<defs>
<clipPath id="clip0">
<rect width="28.3216" height="30" fill="white"/>
</clipPath>
</defs>
</svg>
