<svg width="29" height="30" viewBox="0 0 29 30" fill="none" xmlns="http://www.w3.org/2000/svg">
<g clip-path="url(#clip0)">
<path d="M28.0378 8.01168L20.6239 0.307909C20.4367 0.108674 20.1711 0 19.8933 0H8.84484C7.35963 0 6.15214 1.20749 6.15214 2.6927V10.0705H2.13121C0.953914 10.0705 0 11.0244 0 12.2017V20.5997C0 21.777 0.953914 22.731 2.13121 22.731H6.15818V27.3134C6.15818 28.7986 7.36567 30.0061 8.85088 30.0061H25.6289C27.1141 30.0061 28.3216 28.7986 28.3216 27.3194V8.7241C28.3216 8.45242 28.219 8.19884 28.0378 8.01168ZM25.0553 7.83056H20.485V3.08513L25.0553 7.83056ZM8.18072 22.7249H17.2429C18.4202 22.7249 19.3741 21.771 19.3741 20.5937V12.2017C19.3741 11.0244 18.4202 10.0705 17.2429 10.0705H8.18072V2.6927C8.18072 2.32441 8.48259 2.02254 8.85088 2.02254H18.4625V8.84485C18.4625 9.40029 18.9153 9.85914 19.4768 9.85914H26.2991V27.3134C26.2991 27.6817 25.9972 27.9775 25.6289 27.9775H8.85088C8.48259 27.9775 8.18072 27.6817 8.18072 27.3134V22.7249ZM17.3455 12.2017V20.5997C17.3455 20.6601 17.2972 20.7024 17.2369 20.7024H2.13121C2.07084 20.7024 2.02254 20.6541 2.02254 20.5997V12.2017C2.02254 12.1413 2.07084 12.099 2.13121 12.099H17.2369C17.2972 12.093 17.3455 12.1413 17.3455 12.2017Z" fill="#003D84"/>
<path d="M3.88208 14.291H6.10386C6.58686 14.291 6.9491 14.4057 7.1906 14.6351C7.4321 14.8646 7.55285 15.1906 7.55285 15.6192C7.55285 16.0539 7.42002 16.3981 7.16041 16.6396C6.9008 16.8811 6.49629 17.0078 5.95896 17.0078H5.22239V18.6138H3.88208V14.291ZM5.22239 16.1324H5.54842C5.80803 16.1324 5.98915 16.0902 6.09179 15.9996C6.19442 15.909 6.24876 15.7943 6.24876 15.6555C6.24876 15.5226 6.2065 15.4019 6.11594 15.3113C6.02537 15.2208 5.85633 15.1725 5.60879 15.1725H5.22843V16.1324H5.22239Z" fill="#003D84"/>
<path d="M7.93921 14.291H10.161C10.644 14.291 11.0062 14.4057 11.2477 14.6351C11.4892 14.8646 11.61 15.1906 11.61 15.6192C11.61 16.0539 11.4771 16.3981 11.2175 16.6396C10.9579 16.8811 10.5534 17.0078 10.0161 17.0078H9.28556V18.6138H7.94525V14.291H7.93921ZM9.27952 16.1324H9.60554C9.86515 16.1324 10.0463 16.0902 10.1489 15.9996C10.2515 15.909 10.3059 15.7943 10.3059 15.6555C10.3059 15.5226 10.2636 15.4019 10.1731 15.3113C10.0825 15.2208 9.91345 15.1725 9.66592 15.1725H9.28556V16.1324H9.27952Z" fill="#003D84"/>
<path d="M11.7006 14.291H15.7578V15.3596H14.3933V18.6138H13.059V15.3596H11.6946V14.291H11.7006Z" fill="#003D84"/>
</g>
<defs>
<clipPath id="clip0">
<rect width="28.3216" height="30" fill="white"/>
</clipPath>
</defs>
</svg>
