<svg width="29" height="30" viewBox="0 0 29 30" fill="none" xmlns="http://www.w3.org/2000/svg">
<g clip-path="url(#clip0)">
<path d="M28.0378 8.01168L20.6239 0.307909C20.4367 0.108674 20.1711 0 19.8933 0H8.84484C7.35963 0 6.15214 1.20749 6.15214 2.6927V10.0705H2.13121C0.953914 10.0705 0 11.0244 0 12.2017V20.5997C0 21.777 0.953914 22.731 2.13121 22.731H6.15818V27.3134C6.15818 28.7986 7.36567 30.0061 8.85088 30.0061H25.6289C27.1141 30.0061 28.3216 28.7986 28.3216 27.3194V8.7241C28.3216 8.45242 28.219 8.19884 28.0378 8.01168ZM25.0553 7.83056H20.485V3.08513L25.0553 7.83056ZM8.18072 22.7249H17.2429C18.4202 22.7249 19.3741 21.771 19.3741 20.5937V12.2017C19.3741 11.0244 18.4202 10.0705 17.2429 10.0705H8.18072V2.6927C8.18072 2.32441 8.48259 2.02254 8.85088 2.02254H18.4625V8.84485C18.4625 9.40029 18.9153 9.85914 19.4768 9.85914H26.2991V27.3134C26.2991 27.6817 25.9972 27.9775 25.6289 27.9775H8.85088C8.48259 27.9775 8.18072 27.6817 8.18072 27.3134V22.7249ZM17.3455 12.2017V20.5997C17.3455 20.6601 17.2972 20.7024 17.2369 20.7024H2.13121C2.07084 20.7024 2.02254 20.6541 2.02254 20.5997V12.2017C2.02254 12.1413 2.07084 12.099 2.13121 12.099H17.2369C17.2972 12.093 17.3455 12.1413 17.3455 12.2017Z" fill="#003D84"/>
<path d="M3.41699 14.291H7.47416V15.3596H6.10969V18.6138H4.78146V15.3596H3.41699V14.291Z" fill="#003D84"/>
<path d="M7.48634 14.291H8.95947L9.72623 15.6192L10.4688 14.291H11.9239L10.5775 16.386L12.0506 18.6138H10.5473L9.69604 17.2252L8.84476 18.6138H7.35352L8.84476 16.3618L7.48634 14.291Z" fill="#003D84"/>
<path d="M11.8696 14.291H15.9267V15.3596H14.5623V18.6138H13.228V15.3596H11.8635V14.291H11.8696Z" fill="#003D84"/>
</g>
<defs>
<clipPath id="clip0">
<rect width="28.3216" height="30" fill="white"/>
</clipPath>
</defs>
</svg>
