<svg width="29" height="30" viewBox="0 0 29 30" fill="none" xmlns="http://www.w3.org/2000/svg">
<g clip-path="url(#clip0)">
<path d="M28.0378 8.01168L20.6239 0.307909C20.4367 0.108674 20.1711 0 19.8933 0H8.84484C7.35963 0 6.15214 1.20749 6.15214 2.6927V10.0705H2.13121C0.953914 10.0705 0 11.0244 0 12.2017V20.5997C0 21.777 0.953914 22.731 2.13121 22.731H6.15818V27.3134C6.15818 28.7986 7.36567 30.0061 8.85088 30.0061H25.6289C27.1141 30.0061 28.3216 28.7986 28.3216 27.3194V8.7241C28.3216 8.45242 28.219 8.19884 28.0378 8.01168ZM25.0553 7.83056H20.485V3.08513L25.0553 7.83056ZM8.18072 22.7249H17.2429C18.4202 22.7249 19.3741 21.771 19.3741 20.5937V12.2017C19.3741 11.0244 18.4202 10.0705 17.2429 10.0705H8.18072V2.6927C8.18072 2.32441 8.48259 2.02254 8.85088 2.02254H18.4625V8.84485C18.4625 9.40029 18.9153 9.85914 19.4768 9.85914H26.2991V27.3134C26.2991 27.6817 25.9972 27.9775 25.6289 27.9775H8.85088C8.48259 27.9775 8.18072 27.6817 8.18072 27.3134V22.7249ZM17.3455 12.2017V20.5997C17.3455 20.6601 17.2972 20.7024 17.2369 20.7024H2.13121C2.07084 20.7024 2.02254 20.6541 2.02254 20.5997V12.2017C2.02254 12.1413 2.07084 12.099 2.13121 12.099H17.2369C17.2972 12.093 17.3455 12.1413 17.3455 12.2017Z" fill="#003D84"/>
<path d="M3.5923 14.291H5.06543L5.83218 15.6193L6.57479 14.291H8.02981L6.68346 16.386L8.1566 18.6138H6.65327L5.802 17.2252L4.95072 18.6138H3.45947L4.94468 16.3619L3.5923 14.291Z" fill="#003D84"/>
<path d="M8.28345 14.291H9.61772V17.5512H11.7006V18.6138H8.28345V14.291Z" fill="#003D84"/>
<path d="M11.7729 17.1833L13.0408 17.1048C13.071 17.3101 13.1253 17.4671 13.2099 17.5757C13.3487 17.7508 13.5419 17.8353 13.8015 17.8353C13.9947 17.8353 14.1396 17.7931 14.2423 17.7025C14.3449 17.612 14.3992 17.5093 14.3992 17.3886C14.3992 17.2739 14.3509 17.1773 14.2543 17.0867C14.1577 16.9961 13.9283 16.9177 13.5721 16.8331C12.9865 16.7003 12.5699 16.5252 12.3163 16.3079C12.0627 16.0905 11.942 15.8128 11.942 15.4747C11.942 15.2513 12.0084 15.04 12.1352 14.8468C12.262 14.6476 12.4552 14.4967 12.7148 14.3819C12.9744 14.2672 13.3246 14.2129 13.7774 14.2129C14.3268 14.2129 14.7494 14.3155 15.0392 14.5208C15.329 14.7261 15.5041 15.0521 15.5584 15.4989L14.3026 15.5713C14.2664 15.3781 14.2 15.2332 14.0913 15.1487C13.9826 15.0581 13.8378 15.0159 13.6506 15.0159C13.4936 15.0159 13.3789 15.0461 13.3004 15.1125C13.2219 15.1789 13.1797 15.2574 13.1797 15.354C13.1797 15.4204 13.2099 15.4868 13.2763 15.5411C13.3366 15.5955 13.4876 15.6498 13.723 15.6981C14.3087 15.8249 14.7253 15.9517 14.9788 16.0785C15.2324 16.2052 15.4135 16.3683 15.5282 16.5554C15.6429 16.7486 15.7033 16.9599 15.7033 17.1954C15.7033 17.4731 15.6248 17.7267 15.4739 17.9621C15.323 18.1976 15.1056 18.3727 14.8339 18.4934C14.5622 18.6142 14.2121 18.6746 13.7955 18.6746C13.0589 18.6746 12.5518 18.5357 12.268 18.2519C11.9843 17.9682 11.8092 17.618 11.7729 17.1833Z" fill="#003D84"/>
</g>
<defs>
<clipPath id="clip0">
<rect width="28.3216" height="30" fill="white"/>
</clipPath>
</defs>
</svg>
