<svg width="29" height="30" viewBox="0 0 29 30" fill="none" xmlns="http://www.w3.org/2000/svg">
<g clip-path="url(#clip0)">
<path d="M28.0378 8.01168L20.6239 0.307909C20.4367 0.108674 20.1711 0 19.8933 0H8.84484C7.35963 0 6.15214 1.20749 6.15214 2.6927V10.0705H2.13121C0.953914 10.0705 0 11.0244 0 12.2017V20.5997C0 21.777 0.953914 22.731 2.13121 22.731H6.15818V27.3134C6.15818 28.7986 7.36567 30.0061 8.85088 30.0061H25.6289C27.1141 30.0061 28.3216 28.7986 28.3216 27.3194V8.7241C28.3216 8.45242 28.219 8.19884 28.0378 8.01168ZM25.0553 7.83056H20.485V3.08513L25.0553 7.83056ZM8.18072 22.7249H17.2429C18.4202 22.7249 19.3741 21.771 19.3741 20.5937V12.2017C19.3741 11.0244 18.4202 10.0705 17.2429 10.0705H8.18072V2.6927C8.18072 2.32441 8.48259 2.02254 8.85088 2.02254H18.4625V8.84485C18.4625 9.40029 18.9153 9.85914 19.4768 9.85914H26.2991V27.3134C26.2991 27.6817 25.9972 27.9775 25.6289 27.9775H8.85088C8.48259 27.9775 8.18072 27.6817 8.18072 27.3134V22.7249ZM17.3455 12.2017V20.5997C17.3455 20.6601 17.2972 20.7024 17.2369 20.7024H2.13121C2.07084 20.7024 2.02254 20.6541 2.02254 20.5997V12.2017C2.02254 12.1413 2.07084 12.099 2.13121 12.099H17.2369C17.2972 12.093 17.3455 12.1413 17.3455 12.2017Z" fill="#003D84"/>
<path d="M4.78771 14.291H8.56715V15.1544L6.14009 17.684H8.65167V18.6138H4.55225V17.7203L6.95515 15.2147H4.78771V14.291Z" fill="#003D84"/>
<path d="M9.00781 14.291H10.3481V18.6138H9.00781V14.291Z" fill="#003D84"/>
<path d="M10.9941 14.291H13.2159C13.6989 14.291 14.0612 14.4057 14.3027 14.6351C14.5442 14.8646 14.6649 15.1906 14.6649 15.6192C14.6649 16.0539 14.5321 16.3981 14.2725 16.6396C14.0129 16.8811 13.6084 17.0078 13.071 17.0078H12.3405V18.6138H11.0002V14.291H10.9941ZM12.3345 16.1324H12.6605C12.9201 16.1324 13.1012 16.0902 13.2039 15.9996C13.3065 15.909 13.3608 15.7943 13.3608 15.6555C13.3608 15.5226 13.3186 15.4019 13.228 15.3113C13.1374 15.2208 12.9684 15.1725 12.7209 15.1725H12.3405V16.1324H12.3345Z" fill="#003D84"/>
</g>
<defs>
<clipPath id="clip0">
<rect width="28.3216" height="30" fill="white"/>
</clipPath>
</defs>
</svg>
