<svg xmlns="http://www.w3.org/2000/svg" width="16.72mm" height="19.34mm" viewBox="0 0 47.38 54.83">
  <g>
    <path d="M293.31,414h-.26l-9-1,.22-2.33,3.85-4.38.18,0c.09-.11.2-.29.27-.39a3,3,0,0,1,.36-.49,15.81,15.81,0,0,0,1.93-1.91v-.17l3.46-3.51h2.35v10.59a3.5,3.5,0,0,1-1.07,2.58A3.13,3.13,0,0,1,293.31,414Zm-7.67-2.3,7.49.8h.18a1.67,1.67,0,0,0,1.19-.51,2,2,0,0,0,.63-1.52v-9.09h-.22l-2.68,2.72a9,9,0,0,1-2.31,2.46l-.13.22a2.48,2.48,0,0,1-1,1l-3.07,3.5Z" transform="translate(-274.31 -393.08)" fill="currentColor"/>
    <g>
      <path d="M288.55,447.17h27.89a4.6,4.6,0,0,0,4.5-4.75V404.69a4.6,4.6,0,0,0-4.5-4.75H294.92l-10.86,11.47v31.07A4.63,4.63,0,0,0,288.55,447.17Zm27.89-45.87a3.28,3.28,0,0,1,3.22,3.39v37.79a3.29,3.29,0,0,1-3.22,3.4H288.62a3.29,3.29,0,0,1-3.22-3.4V412l10-10.65Z" transform="translate(-274.31 -393.08)" fill="currentColor"/>
      <path d="M316.44,447.92H288.55a5.35,5.35,0,0,1-5.24-5.44V411.11l11.28-11.92h21.85a5.32,5.32,0,0,1,5.25,5.5v37.73A5.32,5.32,0,0,1,316.44,447.92Zm-30.29-35.67v30.23a2.54,2.54,0,0,0,2.47,2.65h27.82a2.54,2.54,0,0,0,2.47-2.65V404.69a2.54,2.54,0,0,0-2.47-2.64H295.75Z" transform="translate(-274.31 -393.08)" fill="currentColor"/>
    </g>
    <path d="M284.31,407.88h-.25l-9.05-1,.23-2.39,4.32-3.93.13,0a4.56,4.56,0,0,0,.27-.39,5.78,5.78,0,0,1,.36-.49l.33-.27a4.08,4.08,0,0,0,.54-.46v-.16l4.05-5.09h2.39v10.59a3.48,3.48,0,0,1-1.07,2.58A3.1,3.1,0,0,1,284.31,407.88Zm-7.66-2.3,7.49.81h.17a1.67,1.67,0,0,0,1.19-.51,2,2,0,0,0,.63-1.52v-9.09H286l-3.32,4.17a2.7,2.7,0,0,1-1.08,1.23l-.21.17-.13.22a2.33,2.33,0,0,1-1.1,1.07l-3.44,3.13Z" transform="translate(-274.31 -393.08)" fill="currentColor"/>
    <g>
      <path d="M279.56,441.06h5.14V439.7h-5.14a3.28,3.28,0,0,1-3.22-3.39V405.78l10.09-10.59h21a3.27,3.27,0,0,1,3.21,3.39v2h1.28v-2a4.6,4.6,0,0,0-4.49-4.75H285.92L275.06,405.3v31.08A4.63,4.63,0,0,0,279.56,441.06Z" transform="translate(-274.31 -393.08)" fill="currentColor"/>
      <path d="M285.45,441.81h-5.89a5.35,5.35,0,0,1-5.25-5.43V405l11.29-11.92h21.85a5.32,5.32,0,0,1,5.24,5.5v2.79h-2.78v-2.79a2.53,2.53,0,0,0-2.46-2.64h-20.7l-9.66,10.14v30.23a2.54,2.54,0,0,0,2.47,2.64h5.89Z" transform="translate(-274.31 -393.08)" fill="currentColor"/>
    </g>
  </g>
</svg>
