<svg width="9px" height="3px" viewBox="0 0 9 3" version="1.1" xmlns="http://www.w3.org/2000/svg" xmlns:xlink="http://www.w3.org/1999/xlink">
  <path d="M1.05932261,2.40806812 C0.459373127,2.40806812 -0.0269820246,1.92171297 -0.0269820246,1.32176348 C-0.0269820246,0.721813998 0.459373127,0.235458846 1.05932261,0.235458846 C1.6592721,0.235458846 2.14562725,0.721813998 2.14562725,1.32176348 C2.14369138,1.92090927 1.6584684,2.40613225 1.05932261,2.40806812 L1.05932261,2.40806812 Z M4.32176348,2.40806812 C3.88239427,2.40806812 3.48628818,2.14339849 3.31814886,1.73747427 C3.15000954,1.33155005 3.24294916,0.864311056 3.55363011,0.553630107 C3.86431106,0.242949158 4.33155005,0.150009545 4.73747427,0.318148862 C5.14339849,0.48628818 5.40806812,0.88239427 5.40806812,1.32176348 C5.40806812,1.92171297 4.92171297,2.40806812 4.32176348,2.40806812 Z M7.58420435,2.40806812 C6.98425487,2.40806812 6.49789972,1.92171297 6.49789972,1.32176348 C6.49789972,0.721813998 6.98425487,0.235458846 7.58420435,0.235458846 C8.18415384,0.235458846 8.67050899,0.721813998 8.67050899,1.32176348 C8.67050899,1.92171297 8.18415384,2.40806812 7.58420435,2.40806812 Z" id="Shape" fill="#4174B0" fill-rule="nonzero"></path>
</svg>
