<svg xmlns="http://www.w3.org/2000/svg" width="18.15mm" height="13.26mm" viewBox="0 0 51.44 37.59">
  <path d="M320.05,402.33l0,0h0a6.48,6.48,0,0,0-2.71-.61H278.71a6.61,6.61,0,0,0-2.48.49l-.07-.06-.19.2a6.26,6.26,0,0,0-3.69,5.64V433a6.35,6.35,0,0,0,6.43,6.27h38.58a6.35,6.35,0,0,0,6.43-6.27V408A6.26,6.26,0,0,0,320.05,402.33Zm-3.81,3.55-16.43,15.6a2.43,2.43,0,0,1-3.27,0l-16.42-15.6Zm1.05,29.24H278.71a2.12,2.12,0,0,1-2.14-2.09V408.34l17,16.13a6.8,6.8,0,0,0,9.26,0l16.63-15.79V433A2.12,2.12,0,0,1,317.29,435.12Z" transform="translate(-272.28 -401.7)" fill="#0b4691"/>
</svg>
