<svg width="30" height="30" viewBox="0 0 30 30" fill="none" xmlns="http://www.w3.org/2000/svg">
  <path d="M14.99 5C9.47 5 5 9.48 5 15C5 20.52 9.47 25 14.99 25C20.52 25 25 20.52 25 15C25 9.48 20.52 5 14.99 5ZM15 23C10.58 23 7 19.42 7 15C7 10.58 10.58 7 15 7C19.42 7 23 10.58 23 15C23 19.42 19.42 23 15 23ZM18.5 14C19.33 14 20 13.33 20 12.5C20 11.67 19.33 11 18.5 11C17.67 11 17 11.67 17 12.5C17 13.33 17.67 14 18.5 14ZM11.5 14C12.33 14 13 13.33 13 12.5C13 11.67 12.33 11 11.5 11C10.67 11 10 11.67 10 12.5C10 13.33 10.67 14 11.5 14ZM15 20.5C17.33 20.5 19.31 19.04 20.11 17H9.89C10.69 19.04 12.67 20.5 15 20.5Z" fill="#9F9F9F"/>
</svg>
