<svg xmlns="http://www.w3.org/2000/svg" width="18.27mm" height="18.27mm" viewBox="0 0 51.78 51.78">
  <g>
    <path d="M298,446.39a25.89,25.89,0,1,1,25.89-25.89A25.92,25.92,0,0,1,298,446.39Zm0-49.78a23.89,23.89,0,1,0,23.89,23.89A23.92,23.92,0,0,0,298,396.61Z" transform="translate(-272.11 -394.61)" fill="#0b4691"/>
    <path d="M299,410.4a8.06,8.06,0,0,0-4.8,1.38,7.88,7.88,0,0,0-2.09,2.31,7.5,7.5,0,0,0-1.13,3h11.61l-.46,2.28H290.71c0,.23,0,.46,0,.68,0,.87,0,1.39,0,1.56h11l-.48,2.28H291.07a7.61,7.61,0,0,0,3.44,5.53,8.08,8.08,0,0,0,4.23,1.18,7,7,0,0,0,5-1.67v3.5a11,11,0,0,1-4.7,1q-7.68,0-10.39-6.4a17.55,17.55,0,0,1-.94-3.13h-2.6l.48-2.28h1.78c0-.47,0-1,0-1.55,0-.22,0-.46,0-.69h-2.23l.48-2.28h2a10.81,10.81,0,0,1,5.49-8,12.48,12.48,0,0,1,6-1.49,9.71,9.71,0,0,1,5.33,1.38l-.68,3.16A7.17,7.17,0,0,0,299,410.4Z" transform="translate(-272.11 -394.61)" fill="#0b4691"/>
  </g>
</svg>
