<svg width="19" height="18" viewBox="0 0 19 18" fill="none" xmlns="http://www.w3.org/2000/svg">
  <path d="M2.74841 18C4.14119 18 5.27026 16.8709 5.27026 15.4781C5.27026 14.0854 4.14119 12.9563 2.74841 12.9563C1.35563 12.9563 0.226562 14.0854 0.226562 15.4781C0.226562 16.8709 1.35563 18 2.74841 18Z" fill="currentColor"/>
  <path d="M0.226562 0V3.27378C8.35895 3.27378 14.9528 9.86761 14.9528 18H18.2266C18.2266 8.06298 10.1636 0 0.226562 0ZM0.226562 6.54756V9.82134C4.73813 9.82134 8.40523 13.4884 8.40523 18H11.679C11.679 11.6722 6.55433 6.54756 0.226562 6.54756Z" fill="currentColor"/>
</svg>
