<?xml version="1.0" encoding="utf-8"?>
<!-- Generator: Adobe Illustrator 26.0.1, SVG Export Plug-In . SVG Version: 6.00 Build 0)  -->
<svg version="1.1" id="Calque_1" xmlns="http://www.w3.org/2000/svg" xmlns:xlink="http://www.w3.org/1999/xlink" x="0px" y="0px"
	 viewBox="0 0 24 24" style="enable-background:new 0 0 24 24;" xml:space="preserve">
<style type="text/css">
	.st0{fill:#003D84;}
</style>
<path class="st0" d="M19,3h-2V2c0-0.6-0.4-1-1-1s-1,0.4-1,1v1H9V2c0-0.6-0.4-1-1-1S7,1.4,7,2v1H5C3.3,3,2,4.3,2,6v14
	c0,1.7,1.3,3,3,3h14c1.7,0,3-1.3,3-3V6C22,4.3,20.7,3,19,3z M5,5h2v1c0,0.6,0.4,1,1,1s1-0.4,1-1V5h6v1c0,0.6,0.4,1,1,1s1-0.4,1-1V5
	h2c0.6,0,1,0.4,1,1v3H4V6C4,5.4,4.4,5,5,5z M19,21H5c-0.6,0-1-0.4-1-1v-9h16v9C20,20.6,19.6,21,19,21z"/>
</svg>
