<?xml version="1.0" encoding="utf-8"?>
<!-- Generator: Adobe Illustrator 26.0.1, SVG Export Plug-In . SVG Version: 6.00 Build 0)  -->
<svg version="1.1" id="Calque_1" xmlns="http://www.w3.org/2000/svg" xmlns:xlink="http://www.w3.org/1999/xlink" x="0px" y="0px"
	 viewBox="0 0 24 24" style="enable-background:new 0 0 24 24;" xml:space="preserve">
<style type="text/css">
	.st0{fill:#003D84;}
</style>
<g>
	<path class="st0" d="M19.1,2.9C17.2,1,14.7,0,12,0C9.3,0,6.8,1,4.9,2.9C3,4.8,2,7.3,2,10c0,7.4,9.1,13.6,9.4,13.8
		c0.2,0.1,0.4,0.2,0.6,0.2s0.4-0.1,0.6-0.2C12.9,23.6,22,17.4,22,10C22,7.3,21,4.8,19.1,2.9z M12,21.8c-1.9-1.4-8-6.4-8-11.8
		c0-2.1,0.8-4.1,2.3-5.7C7.9,2.8,9.9,2,12,2c2.1,0,4.1,0.8,5.7,2.3C19.2,5.9,20,7.9,20,10C20,15.4,13.9,20.4,12,21.8z"/>
	<path class="st0" d="M12,6c-2.2,0-4,1.8-4,4s1.8,4,4,4c2.2,0,4-1.8,4-4S14.2,6,12,6z M12,12c-1.1,0-2-0.9-2-2s0.9-2,2-2
		c1.1,0,2,0.9,2,2S13.1,12,12,12z"/>
</g>
</svg>
