<svg width="21" height="18" viewBox="0 0 21 18" fill="none" xmlns="http://www.w3.org/2000/svg">
  <path d="M8.0293 9.11403C9.7611 9.11403 11.1486 7.66274 11.1486 5.86487C11.1486 4.06701 9.7611 2.61572 8.0293 2.61572C6.29751 2.61572 4.89956 4.06701 4.89956 5.86487C4.89956 7.66274 6.29751 9.11403 8.0293 9.11403ZM8.0293 11.2801C5.59853 11.2801 0.726562 12.5473 0.726562 15.0708V17.7784H15.332V15.0708C15.332 12.5473 10.4601 11.2801 8.0293 11.2801Z" fill="currentColor"/>
  <path d="M15.3164 0.22168L14.3325 1.248C16.7766 3.7975 16.7766 7.93181 14.3325 10.4813L15.3164 11.5076C18.3029 8.39239 18.3029 3.33692 15.3164 0.22168ZM13.3486 2.27433L12.3647 3.30066C13.7206 4.71503 13.7206 7.01428 12.3647 8.42865L13.3486 9.45498C15.2503 7.47123 15.2503 4.25808 13.3486 2.27433Z" fill="currentColor"/>
</svg>
