<svg width="21" height="20" viewBox="0 0 21 20" fill="none" xmlns="http://www.w3.org/2000/svg">
  <path d="M17.938 10.9792C17.9797 10.6667 18.0005 10.3438 18.0005 10C18.0005 9.66667 17.9797 9.33333 17.9276 9.02083L20.0422 7.375C20.2297 7.22917 20.2818 6.94792 20.1672 6.73958L18.1672 3.28125C18.0422 3.05208 17.7818 2.97917 17.5526 3.05208L15.063 4.05208C14.5422 3.65625 13.9901 3.32292 13.3755 3.07292L13.0005 0.427083C12.9589 0.177083 12.7505 0 12.5005 0H8.50052C8.25052 0 8.0526 0.177083 8.01094 0.427083L7.63594 3.07292C7.02135 3.32292 6.45885 3.66667 5.94844 4.05208L3.45885 3.05208C3.22969 2.96875 2.96927 3.05208 2.84427 3.28125L0.854688 6.73958C0.729688 6.95833 0.771354 7.22917 0.979688 7.375L3.09427 9.02083C3.04219 9.33333 3.00052 9.67708 3.00052 10C3.00052 10.3229 3.02135 10.6667 3.07344 10.9792L0.958854 12.625C0.771354 12.7708 0.719271 13.0521 0.833855 13.2604L2.83385 16.7188C2.95885 16.9479 3.21927 17.0208 3.44844 16.9479L5.93802 15.9479C6.45885 16.3437 7.01094 16.6771 7.62552 16.9271L8.00052 19.5729C8.0526 19.8229 8.25052 20 8.50052 20H12.5005C12.7505 20 12.9589 19.8229 12.9901 19.5729L13.3651 16.9271C13.9797 16.6771 14.5422 16.3437 15.0526 15.9479L17.5422 16.9479C17.7714 17.0312 18.0318 16.9479 18.1568 16.7188L20.1568 13.2604C20.2818 13.0312 20.2297 12.7708 20.0318 12.625L17.938 10.9792ZM10.5005 13.75C8.43802 13.75 6.75052 12.0625 6.75052 10C6.75052 7.9375 8.43802 6.25 10.5005 6.25C12.563 6.25 14.2505 7.9375 14.2505 10C14.2505 12.0625 12.563 13.75 10.5005 13.75Z" fill="white"/>
</svg>
