<?xml version="1.0" encoding="utf-8"?>
<!-- Generator: Adobe Illustrator 24.3.0, SVG Export Plug-In . SVG Version: 6.00 Build 0)  -->
<svg version="1.1" id="Calque_1" xmlns="http://www.w3.org/2000/svg" xmlns:xlink="http://www.w3.org/1999/xlink" x="0px" y="0px"
	 viewBox="0 0 24 24" style="enable-background:new 0 0 24 24;" xml:space="preserve">
<path d="M12,1C5.9,1,1,5.9,1,12s4.9,11,11,11s11-4.9,11-11S18.1,1,12,1z M20.9,11h-4c-0.2-2.8-1.1-5.4-2.7-7.7
	C17.8,4.2,20.5,7.3,20.9,11z M9.1,13h5.9c-0.3,2.7-1.3,5.3-2.9,7.4C10.3,18.3,9.3,15.7,9.1,13z M9.1,11c0.3-2.7,1.3-5.3,2.9-7.4
	c1.7,2.2,2.7,4.8,2.9,7.4H9.1z M9.7,3.3C8.2,5.6,7.3,8.2,7.1,11h-4C3.5,7.3,6.2,4.2,9.7,3.3z M3.1,13h4c0.2,2.8,1.1,5.4,2.7,7.7
	C6.2,19.8,3.5,16.7,3.1,13z M14.3,20.7c1.5-2.3,2.4-4.9,2.7-7.7h4C20.5,16.7,17.8,19.8,14.3,20.7z"/>
</svg>
