<svg xmlns="http://www.w3.org/2000/svg" width="18.64mm" height="18.64mm" viewBox="0 0 52.85 52.85">
  <path d="M298,394.07a26.43,26.43,0,1,0,26.43,26.43A26.44,26.44,0,0,0,298,394.07Zm5.86,15.86a4.31,4.31,0,1,1-4.4,4.3A4.32,4.32,0,0,1,303.86,409.93Zm-11.72,0a4.31,4.31,0,1,1-4.39,4.3A4.33,4.33,0,0,1,292.14,409.93ZM302.39,430H281.9v-3.58c0-3.35,6.83-5,10.24-5s10.25,1.67,10.25,5Zm11.71,0h-8.78v-3.58a6,6,0,0,0-2.88-4.95c.51-.05,1-.07,1.42-.07,3.41,0,10.24,1.67,10.24,5Z" transform="translate(-271.57 -394.07)" fill="currentColor"/>
</svg>
