<svg width="25" height="25" viewBox="0 0 25 25" fill="none" xmlns="http://www.w3.org/2000/svg">
<circle cx="12.5" cy="12.5" r="12.5" fill="#003D84"/>
<path d="M15.2273 11.5714C16.3591 11.5714 17.2659 10.6621 17.2659 9.53571C17.2659 8.40929 16.3591 7.5 15.2273 7.5C14.0955 7.5 13.1818 8.40929 13.1818 9.53571C13.1818 10.6621 14.0955 11.5714 15.2273 11.5714ZM9.77273 11.5714C10.9045 11.5714 11.8114 10.6621 11.8114 9.53571C11.8114 8.40929 10.9045 7.5 9.77273 7.5C8.64091 7.5 7.72727 8.40929 7.72727 9.53571C7.72727 10.6621 8.64091 11.5714 9.77273 11.5714ZM9.77273 12.9286C8.18409 12.9286 5 13.7225 5 15.3036V17H14.5455V15.3036C14.5455 13.7225 11.3614 12.9286 9.77273 12.9286ZM15.2273 12.9286C15.0295 12.9286 14.8045 12.9421 14.5659 12.9625C15.3568 13.5325 15.9091 14.2993 15.9091 15.3036V17H20V15.3036C20 13.7225 16.8159 12.9286 15.2273 12.9286Z" fill="white"/>
</svg>
