<svg xmlns="http://www.w3.org/2000/svg" width="38" height="38" viewBox="0 0 38 38" fill="none" version="1.1">
  <path
     d="M20.4545 27.1429C22.7182 27.1429 24.5318 25.3243 24.5318 23.0714C24.5318 20.8186 22.7182 19 20.4545 19C18.1909 19 16.3636 20.8186 16.3636 23.0714C16.3636 25.3243 18.1909 27.1429 20.4545 27.1429ZM9.54545 27.1429C11.8091 27.1429 13.6227 25.3243 13.6227 23.0714C13.6227 20.8186 11.8091 19 9.54545 19C7.28182 19 5.45455 20.8186 5.45455 23.0714C5.45455 25.3243 7.28182 27.1429 9.54545 27.1429ZM9.54545 29.8571C6.36818 29.8571 0 31.445 0 34.6071V38H19.0909V34.6071C19.0909 31.445 12.7227 29.8571 9.54545 29.8571ZM20.4545 29.8571C20.0591 29.8571 19.6091 29.8843 19.1318 29.925C20.7136 31.065 21.8182 32.5986 21.8182 34.6071V38H30V34.6071C30 31.445 23.6318 29.8571 20.4545 29.8571Z"
     fill="currentColor"
     id="path10" />
  <path
     id="circle12"
     style="fill:currentColor"
     d="M 28.90625 5 A 7 7 0 0 0 22 12 A 7 7 0 0 0 29 19 A 7 7 0 0 0 36 12 A 7 7 0 0 0 29 5 A 7 7 0 0 0 28.90625 5 z M 32.292969 8.2929688 L 33.707031 9.7070312 L 28 15.414062 L 24.292969 11.707031 L 25.707031 10.292969 L 28 12.585938 L 32.292969 8.2929688 z " />
</svg>
