<svg width="25" height="25" viewBox="0 0 25 25" fill="none" xmlns="http://www.w3.org/2000/svg">
<circle cx="12.5" cy="12.5" r="12.5" fill="#003D84"/>
<path fill-rule="evenodd" clip-rule="evenodd" d="M15.9391 6.56401L16.6698 5.83325C18.8879 8.05135 18.8879 11.6509 16.6698 13.869L15.9391 13.1382C17.7543 11.323 17.7543 8.37928 15.9391 6.56401ZM14.4775 8.02553L15.2083 7.29477C16.6207 8.70722 16.6207 10.995 15.2083 12.4075L14.4775 11.6767C15.4846 10.6697 15.4846 9.03258 14.4775 8.02553ZM13.574 9.85136C13.574 11.1315 12.5435 12.1648 11.2572 12.1648C9.971 12.1648 8.93272 11.1315 8.93272 9.85136C8.93272 8.57126 9.971 7.53792 11.2572 7.53792C12.5435 7.53792 13.574 8.57126 13.574 9.85136ZM5.83337 16.4061C5.83337 14.6093 9.45186 13.7071 11.2572 13.7071C13.0626 13.7071 16.6811 14.6093 16.6811 16.4061V18.334H5.83337V16.4061Z" fill="white"/>
</svg>
