<svg xmlns="http://www.w3.org/2000/svg" width="20.78mm" height="17.07mm" viewBox="0 0 58.9 48.39">
  <path d="M314.6,396c.41.38.83.73,1.22,1.11q5.21,5.18,10.38,10.36c1.55,1.54,1.57,2.26,0,3.76l-2.73,2.73a9.19,9.19,0,0,0-2.62,4.86,11.28,11.28,0,0,1-3.32,6.14,10,10,0,0,1-1.25.83l.12.49c.41.32.85.62,1.23,1,2,1.87,1.7,6-1.51,6.92a2.4,2.4,0,0,0-1.86,1.94,3.93,3.93,0,0,1-5.11,2.45c-.34-.12-.67-.24-1.09-.37-.71,1.2-1.58,2.37-3.07,2.49a2.58,2.58,0,0,0-2.34,1.65c-1.26,2.39-4.29,2.73-6.43.87a1.07,1.07,0,0,0-1.45-.2,4.19,4.19,0,0,1-6-2.52,1,1,0,0,0-.93-.77,4.26,4.26,0,0,1-3.92-3.19,1.12,1.12,0,0,0-.71-.67,4.23,4.23,0,0,1-4-3.23.93.93,0,0,0-1-.77,4.21,4.21,0,0,1-3.29-6.3,1.11,1.11,0,0,1,.12-.16c1.58-1.36,1.24-2.83.79-4.73a14.34,14.34,0,0,0-4.75-7.75c-.54-.47-1-1-1.55-1.52l-.36-.36c-.85-.93-.89-1.36,0-2.27q5.65-5.69,11.33-11.33c.85-.83,1.41-.83,2.28,0,1.25,1.23,2.5,2.45,3.7,3.7a10.26,10.26,0,0,0,4.8,2.6,3,3,0,0,0,3-.66,12,12,0,0,1,11.35-1.66,3.19,3.19,0,0,0,3.6-1l4.46-4.46C313.94,396,314.28,396,314.6,396ZM297,430.51c2.26.93,3.41,2.08,3.37,3.84a2.67,2.67,0,0,0,1.07,2.26c.29.26.55.56.85.83,1,.95,2,1.05,2.79.26s.77-1.76-.24-2.75c-1.76-1.78-3.54-3.55-5.32-5.31-1.61-1.6-3.23-3.21-4.82-4.83-.75-.77-.77-1.57-.08-2a1.33,1.33,0,0,1,1.79.33c1.24,1.23,2.47,2.46,3.7,3.71,2.85,2.85,5.68,5.68,8.54,8.51.95.95,1.78,1.07,2.61.44,1-.77,1-2-.08-3.07q-3.69-3.72-7.41-7.43c-1.62-1.62-3.26-3.24-4.89-4.89a1.13,1.13,0,0,1-.14-1.74,1.2,1.2,0,0,1,1.77,0c.17.14.33.32.51.47l10.46,10.4c.53.54,1,1.11,1.62,1.59a1.9,1.9,0,0,0,2.81-.08c.72-.82.62-1.57-.39-2.56q-7.22-7-14.48-14.06a4.34,4.34,0,0,0-5.49-.91c-1.92.93-3.8,1.94-5.74,2.85a3.39,3.39,0,0,1-4.36-1.17,3.59,3.59,0,0,1,.46-4.59c.83-.7,1.58-1.49,2.38-2.24s1.52-1.47,2.39-2.32a11.5,11.5,0,0,1-5.15-2.53c-1.17-1.07-2.29-2.18-3.4-3.31-.42-.44-.7-.44-1.13,0q-4.46,4.57-9,9.05c-.5.5-.48.81,0,1.27.75.69,1.44,1.44,2.17,2.16a11.51,11.51,0,0,1,3.49,6.16c.14.75.4,1.5.63,2.39,1.23-1.24,2.38-2.2,4.06-2.12a4.51,4.51,0,0,1,3.65,2.42c3.38-1.76,6.06-.53,6.91,3.05a1.2,1.2,0,0,0,.75.69c2.2.76,3.35,2.22,3.31,4.36Zm-9.92-17.7a1.18,1.18,0,0,0,1.82,1.14c1.58-.79,3.17-1.6,4.73-2.43,3.37-1.76,6.54-1.45,9.39,1.48,3.43,3.51,7,6.88,10.52,10.3.1.1.18.24.29.26.28,0,.68.14.84,0a8.94,8.94,0,0,0,3.11-4.67,12.59,12.59,0,0,1,3.1-6.48c1-1,1.95-2,2.94-2.93.51-.5.57-.83,0-1.37-3-2.93-6-5.9-8.9-8.89-.53-.54-.85-.5-1.34,0-1.25,1.27-2.54,2.51-3.89,3.66-1.06.93-2.25,1.61-3.76.85a7.85,7.85,0,0,0-1.33-.35,9.8,9.8,0,0,0-9.48,1.76c-2.64,2.2-5.09,4.58-7.61,6.91A2.8,2.8,0,0,0,287.07,412.81Zm3.54,12.12a1.78,1.78,0,0,0-1.11-1.73,1.72,1.72,0,0,0-2.06.52c-1.9,2.24-3.82,4.45-5.58,6.77a2.47,2.47,0,0,0,0,2,1.43,1.43,0,0,0,1.84.73,3.09,3.09,0,0,0,1.43-1c1.6-1.88,3.15-3.8,4.69-5.74A10,10,0,0,0,290.61,424.93Zm3.94,4.43c-.13-1.09-.77-1.8-1.8-1.68a3.3,3.3,0,0,0-1.6.81,18.62,18.62,0,0,0-1.65,2c-1,1.23-2,2.44-3,3.71a1.81,1.81,0,0,0-.1,2.37,1.76,1.76,0,0,0,2.26.38,2.45,2.45,0,0,0,.79-.71c1.47-1.79,2.94-3.55,4.36-5.37A5.38,5.38,0,0,0,294.55,429.36Zm-2.15,11.85a7.67,7.67,0,0,0,1.34-.74,7.4,7.4,0,0,0,1-1.19c.89-1,1.8-2.09,2.64-3.18a1.9,1.9,0,0,0-.18-2.74,1.82,1.82,0,0,0-2.6.48c-1.15,1.31-2.27,2.63-3.34,4a1.78,1.78,0,0,0-.36,2.18A7.13,7.13,0,0,0,292.4,441.21Zm-13.59-11.73a3.27,3.27,0,0,0,.93-.53c1.31-1.49,2.57-3,3.8-4.54a1.73,1.73,0,0,0-.16-2.34,1.54,1.54,0,0,0-2.29,0,50.28,50.28,0,0,0-4,4.84C276.23,428,277.17,429.46,278.81,429.48Zm22,10.28c-.49-.59-1-1.19-1.5-1.76a11.33,11.33,0,0,0-1.11,1,6.59,6.59,0,0,0-.93,1.27.7.7,0,0,0-.1.59,2.12,2.12,0,0,0,2.24.85A2.25,2.25,0,0,0,300.77,439.76Z" transform="translate(-268.47 -395.97)" fill="#0b4691"/>
</svg>
