<svg width="24px" height="19px" viewBox="0 0 24 19" version="1.1" xmlns="http://www.w3.org/2000/svg" xmlns:xlink="http://www.w3.org/1999/xlink">
  <path d="M12,0 C15.8659879,0 19,3.13400845 19,7 C19,9.3172582 17.8657605,11.4439611 16.0000366,12.7452583 L16.0000366,12.7452583 L16,17.0000136 L14.0000136,19 L9.99998644,19 L8,17.0000136 L8,12.745 L7.77966347,12.5852124 C6.11759259,11.3281514 5.08830691,9.39400821 5.00541864,7.27711259 L5.00541864,7.27711259 L5,7 C5,3.13401484 8.13402566,0 12,0 Z M12,2 C9.23859362,2 7,4.23858588 7,7 C7,8.65651153 7.80921243,10.1737707 9.14423662,11.1049417 L9.14423662,11.1049417 L10,11.7019161 L10,15 L14,15 L14,11.7019161 L14.855828,11.1048966 C16.1908043,10.173783 17,8.65653826 17,7 C17,4.23857846 14.761419,2 12,2 Z M20.189928,10.5814856 L20.2942893,10.6339684 L22.0263893,11.6339684 C22.5046854,11.9101049 22.668568,12.5216933 22.3924316,12.9999893 C22.1360191,13.4441214 21.590365,13.6171521 21.130772,13.4185144 L21.0264107,13.3660316 L19.2943107,12.3660316 C18.8160146,12.0898951 18.652132,11.4783067 18.9282684,11.0000107 C19.1846809,10.5558786 19.730335,10.3828479 20.189928,10.5814856 Z M5.0718353,10.9999998 C5.32825331,11.4441286 5.20526847,12.0031929 4.80344315,12.3018883 L4.70581017,12.3660253 L2.97376017,13.3660253 C2.49546761,13.6421678 1.88387717,13.4782927 1.6077347,13.0000002 C1.35131669,12.5558714 1.47430153,11.9968071 1.87612685,11.6981117 L1.97375983,11.6339747 L3.70580983,10.6339747 C4.18410239,10.3578322 4.79569283,10.5217073 5.0718353,10.9999998 Z M3,6 C3.55228475,6 4,6.44771525 4,7 C4,7.51283584 3.61395981,7.93550716 3.11662113,7.99327227 L3,8 L1,8 C0.44771525,8 0,7.55228475 0,7 C0,6.48716416 0.38604019,6.06449284 0.883378875,6.00672773 L1,6 L3,6 Z M23,6 C23.5522847,6 24,6.44771525 24,7 C24,7.51283584 23.6139598,7.93550716 23.1166211,7.99327227 L23,8 L21,8 C20.4477153,8 20,7.55228475 20,7 C20,6.48716416 20.3860402,6.06449284 20.8833789,6.00672773 L21,6 L23,6 Z M2.86939946,0.5814905 L2.97376017,0.633974697 L4.70581017,1.6339747 C5.18410274,1.91011717 5.34797777,2.52170761 5.0718353,3.00000017 C4.81541729,3.44412899 4.26976099,3.61715288 3.81017054,3.4185095 L3.70580983,3.3660253 L1.97375983,2.3660253 C1.49546726,2.08988283 1.33159223,1.47829239 1.6077347,0.999999825 C1.86415271,0.555871012 2.40980901,0.382847116 2.86939946,0.5814905 Z M22.3924316,1.00001065 C22.648844,1.44414267 22.5258522,2.00320535 22.1240231,2.3018958 L22.0263893,2.36603155 L20.2942893,3.36603155 C19.8159933,3.64216805 19.2044049,3.47828537 18.9282684,2.99998935 C18.671856,2.55585733 18.7948478,1.99679465 19.1966769,1.6981042 L19.2943107,1.63396845 L21.0264107,0.633968447 C21.5047067,0.357831954 22.1162951,0.521714631 22.3924316,1.00001065 Z" id="Combined-Shape" fill="currentColor" fill-rule="nonzero"></path>
</svg>
