<svg width="30" height="24" viewBox="0 0 30 24" fill="none" xmlns="http://www.w3.org/2000/svg">
  <path d="M16.5455 11.1429C18.8091 11.1429 20.6227 9.32429 20.6227 7.07143C20.6227 4.81857 18.8091 3 16.5455 3C14.2818 3 12.4545 4.81857 12.4545 7.07143C12.4545 9.32429 14.2818 11.1429 16.5455 11.1429ZM16.5455 13.8571C13.3682 13.8571 8 15.445 8 18.6071V22H25V18.6071C25 15.445 19.7227 13.8571 16.5455 13.8571Z" fill="currentColor"/>
  <path d="M10.1307 6.64286C10.1307 8.11065 8.95908 9.28571 7.5 9.28571C6.03657 9.28571 4.85714 8.10629 4.85714 6.64286C4.85714 5.17943 6.03657 4 7.5 4C8.95908 4 10.1307 5.17507 10.1307 6.64286ZM1 16.9643C1 16.1698 1.66803 15.3572 3.11136 14.6847C4.48969 14.0425 6.21895 13.7143 7.5 13.7143C8.78105 13.7143 10.5103 14.0425 11.8886 14.6847C13.332 15.3572 14 16.1698 14 16.9643V19H1V16.9643Z" stroke="currentColor" stroke-width="2"/>
  <path d="M25 13V9.95312H22V8.15527H25V5H27V8.15527H30V9.95312H27V13H25Z" fill="#003D84"/>
</svg>
