<?xml version="1.0" encoding="utf-8"?>
<!-- Generator: Adobe Illustrator 24.3.0, SVG Export Plug-In . SVG Version: 6.00 Build 0)  -->
<svg version="1.1" id="Calque_1" xmlns="http://www.w3.org/2000/svg" xmlns:xlink="http://www.w3.org/1999/xlink" x="0px" y="0px"
	 viewBox="0 0 55.4 50.3" style="enable-background:new 0 0 55.4 50.3;" xml:space="preserve">
<path d="M3.2,44.5h8.9V17.8H3.2V44.5z M52.2,20c0-2.4-2-4.4-4.4-4.4H33.7l2.1-10.2l0.1-0.7c0-0.9-0.4-1.7-1-2.4L32.5,0L17.9,14.6
	c-0.8,0.8-1.3,2-1.3,3.1v22.3c0,2.4,2,4.4,4.4,4.4h20.1c1.8,0,3.4-1.1,4.1-2.7l6.7-15.7c0.2-0.5,0.3-1.1,0.3-1.6V20z"/>
</svg>
