<svg xmlns="http://www.w3.org/2000/svg" width="18.64mm" height="18.64mm" viewBox="0 0 52.85 52.85">
  <g>
    <path d="M299.59,417.91v-.06l0,.06Z" transform="translate(-271.57 -394.07)" fill="#1586c8"/>
    <path d="M298,394.07a26.43,26.43,0,1,0,26.43,26.43A26.44,26.44,0,0,0,298,394.07Zm-7.21,38.32h-5.67V415.45h5.67ZM288,413.14h0a2.94,2.94,0,1,1,3.24-2.93A2.93,2.93,0,0,1,287.92,413.14Zm23.25,19.25h-5.66v-9.06c0-2.28-.82-3.83-2.87-3.83a3.09,3.09,0,0,0-2.91,2.06,3.8,3.8,0,0,0-.18,1.37v9.46h-5.67s.08-15.35,0-16.94h5.67v2.4a5.62,5.62,0,0,1,5.1-2.8c3.73,0,6.52,2.43,6.52,7.63Z" transform="translate(-271.57 -394.07)" fill="#1586c8"/>
  </g>
</svg>
