<?xml version="1.0" encoding="utf-8"?>
<!-- Generator: Adobe Illustrator 26.0.1, SVG Export Plug-In . SVG Version: 6.00 Build 0)  -->
<svg version="1.1" id="Calque_1" xmlns="http://www.w3.org/2000/svg" xmlns:xlink="http://www.w3.org/1999/xlink" x="0px" y="0px"
	 viewBox="0 0 24 24" style="enable-background:new 0 0 24 24;" xml:space="preserve">
<style type="text/css">
	.st0{fill:#003D84;}
</style>
<g>
	<path class="st0" d="M21.2,2.8c-1.1-1.1-2.6-1.7-4.2-1.8c-1.6,0-3.1,0.6-4.2,1.7L11,4.5c-0.4,0.4-0.4,1,0,1.4c0.4,0.4,1,0.4,1.4,0
		l1.7-1.7c0.8-0.7,1.8-1.1,2.8-1.1c1.1,0,2,0.4,2.8,1.2C20.5,5,20.9,6,20.9,7s-0.4,2.1-1.1,2.8l-3,3c-0.4,0.4-0.9,0.7-1.4,0.9
		C14.9,14,14.3,14,13.7,14c-0.6,0-1.1-0.2-1.6-0.5c-0.5-0.3-0.9-0.7-1.3-1.1c-0.3-0.4-1-0.5-1.4-0.2c-0.4,0.3-0.5,1-0.2,1.4
		c0.5,0.7,1.2,1.3,1.9,1.7c0.8,0.4,1.6,0.7,2.4,0.7c0.1,0,0.3,0,0.4,0c0.7,0,1.4-0.1,2.1-0.4c0.8-0.3,1.5-0.8,2.1-1.4l3-3
		c1.1-1.1,1.7-2.6,1.7-4.2C22.9,5.4,22.3,3.9,21.2,2.8z"/>
	<path class="st0" d="M11.5,18.1l-1.7,1.7c-0.8,0.7-1.8,1.1-2.8,1.1c-1.1,0-2-0.4-2.8-1.2C3.5,19,3.1,18,3.1,17
		c0-1.1,0.4-2.1,1.1-2.8l3-3c0.4-0.4,0.9-0.7,1.4-0.9S9.7,10,10.3,10c0.6,0,1.1,0.2,1.6,0.5c0.5,0.3,0.9,0.7,1.3,1.1
		c0.3,0.4,1,0.5,1.4,0.2c0.4-0.3,0.5-1,0.2-1.4c-0.5-0.7-1.2-1.3-1.9-1.7c-0.8-0.4-1.6-0.7-2.4-0.7C9.6,7.9,8.7,8.1,7.9,8.4
		C7.1,8.7,6.4,9.1,5.8,9.8l-3,3C1.6,13.9,1,15.4,1.1,17c0,1.6,0.6,3.1,1.8,4.2c1.1,1.1,2.6,1.7,4.2,1.8c0,0,0,0,0.1,0
		c1.6,0,3-0.6,4.2-1.7l1.7-1.7c0.4-0.4,0.4-1,0-1.4S11.9,17.7,11.5,18.1z"/>
</g>
</svg>
