<svg width="19" height="12" viewBox="0 0 19 12" fill="none" xmlns="http://www.w3.org/2000/svg">
  <path d="M1.79636 6C1.79636 3.948 3.11055 2.28 4.72727 2.28H8.50909V0H4.72727C2.11782 0 0 2.688 0 6C0 9.312 2.11782 12 4.72727 12H8.50909V9.72H4.72727C3.11055 9.72 1.79636 8.052 1.79636 6ZM5.67273 7.2H13.2364V4.8H5.67273V7.2ZM14.1818 0H10.4V2.28H14.1818C15.7985 2.28 17.1127 3.948 17.1127 6C17.1127 8.052 15.7985 9.72 14.1818 9.72H10.4V12H14.1818C16.7913 12 18.9091 9.312 18.9091 6C18.9091 2.688 16.7913 0 14.1818 0Z" fill="currentColor"/>
</svg>
