<svg xmlns="http://www.w3.org/2000/svg" width="20.24mm" height="17.76mm" viewBox="0 0 57.37 50.35">
  <g>
    <path d="M306,396.94H322.7c2.34,0,3.87,1.41,3.89,3.59a3.61,3.61,0,0,1-3.81,3.73q-16.84,0-33.71,0a3.78,3.78,0,0,1-3.87-3.2,3.68,3.68,0,0,1,2.69-4,4.42,4.42,0,0,1,1.31-.13Q297.57,397,306,396.94Z" transform="translate(-269.22 -395.33)" fill="#0b4691"/>
    <path d="M305.87,444.06c-5.61,0-11.21-.07-16.82,0a3.79,3.79,0,0,1-3.89-3.57,3.72,3.72,0,0,1,3.71-3.79c.41,0,.82,0,1.22,0h32.38c2.49,0,4.08,1.43,4.12,3.65a3.54,3.54,0,0,1-3.61,3.69Q314.43,444.05,305.87,444.06Z" transform="translate(-269.22 -395.33)" fill="#0b4691"/>
    <path d="M305.87,424.13c-5.61,0-11.21-.06-16.79,0a3.72,3.72,0,0,1-3.9-4,3.66,3.66,0,0,1,3.18-3.28c.45,0,.88,0,1.33,0h32.48a7.19,7.19,0,0,1,1.91.15,3.55,3.55,0,0,1,2.47,4.13,3.42,3.42,0,0,1-3.28,2.94c-5.81,0-11.6,0-17.4,0Z" transform="translate(-269.22 -395.33)" fill="#0b4691"/>
    <path d="M274.42,405.93c-.91,0-1.83,0-2.75,0a2.37,2.37,0,0,1-2.42-2.34c0-2,0-3.94,0-5.91a2.36,2.36,0,0,1,2.36-2.32c1.9-.05,3.81-.05,5.71,0a2.29,2.29,0,0,1,2.38,2.18q.15,3.13,0,6.29a2.26,2.26,0,0,1-2.42,2.1C276.32,406,275.38,405.93,274.42,405.93Z" transform="translate(-269.22 -395.33)" fill="#0b4691"/>
    <path d="M274.55,435.07h2.65a2.29,2.29,0,0,1,2.5,2.14q.15,3.15,0,6.29a2.29,2.29,0,0,1-2.4,2.14c-1.88.05-3.73.05-5.61,0a2.41,2.41,0,0,1-2.44-2.46c0-1.9,0-3.81,0-5.71a2.41,2.41,0,0,1,2.57-2.42C272.71,435.07,273.63,435.07,274.55,435.07Z" transform="translate(-269.22 -395.33)" fill="#0b4691"/>
    <path d="M269.25,420.48c0-1,0-2,0-3a2.23,2.23,0,0,1,2.18-2.25c2-.06,4.07-.06,6.09,0a2.12,2.12,0,0,1,2.16,2c.1,2.12.1,4.26,0,6.4a2.15,2.15,0,0,1-2.24,2.06c-2,.06-3.93.06-5.89,0a2.26,2.26,0,0,1-2.32-2.43C269.21,422.37,269.23,421.42,269.25,420.48Z" transform="translate(-269.22 -395.33)" fill="#0b4691"/>
  </g>
</svg>
