<svg width="24" height="24" viewBox="0 0 24 24" fill="none" xmlns="http://www.w3.org/2000/svg">
  <path d="M17 11V8C17 5.23858 14.7614 3 12 3V3C9.23858 3 7 5.23858 7 8V11" stroke="currentColor" stroke-width="2" fill="transparent"/>
  <path fill-rule="evenodd" clip-rule="evenodd" d="M7 12C5.89545 12 5 12.8954 5 14V20C5 21.1046 5.89545 22 7 22H17C18.1046 22 19 21.1046 19 20V14C19 12.8954 18.1046 12 17 12H7ZM12 15C11.4477 15 11 15.4477 11 16V19C11 19.5523 11.4477 20 12 20C12.5523 20 13 19.5523 13 19V16C13 15.4477 12.5523 15 12 15Z" fill="currentColor"/>
</svg>
