<svg width="12px" height="9px" viewBox="0 0 12 9" version="1.1" xmlns="http://www.w3.org/2000/svg" xmlns:xlink="http://www.w3.org/1999/xlink">
  <path d="M10.3883519,0.636082386 C10.5364558,0.635956288 10.683216,0.660310149 10.8227764,0.707844566 L10.95972,0.763057711 C11.4294072,0.974296764 11.7326429,1.44017712 11.7356518,1.95517124 L11.7603406,7.26325071 C11.7506597,8.00402984 11.1432607,8.59722996 10.4024598,8.58946568 L2.24106717,8.58946568 C1.50026629,8.59722996 0.892867221,8.00402984 0.883186377,7.26325071 L0.883186377,1.97280605 C0.889457399,1.45778532 1.19336911,0.992979168 1.66264522,0.780692526 L1.70496878,0.738368969 C1.87057447,0.670373426 2.0479386,0.635619643 2.22695932,0.636082386 L10.3883519,0.636082386 Z M1.78961589,2.02923746 L1.78961589,7.24914286 C1.79348255,7.49514505 1.99504246,7.6919809 2.24106717,7.69006952 L10.4024598,7.69006952 C10.5209297,7.69189757 10.6352468,7.64639441 10.7200157,7.56361225 C10.8047846,7.48083008 10.8529857,7.36762409 10.8539111,7.24914286 L10.8539111,2.09977673 L7.32694797,5.43981079 C7.06685663,5.69234094 6.71953566,5.83505828 6.35703311,5.83835762 C5.99404605,5.84067018 5.64413541,5.70297972 5.38006433,5.45391864 L1.78961589,2.02923746 Z M10.1767342,1.52135478 L2.54085904,1.52135478 L6.01139073,4.82259224 C6.20819996,4.99862377 6.50586627,4.99862377 6.7026755,4.82259224 L10.1767342,1.52135478 Z" id="Combined-Shape" fill="#1586C8" fill-rule="nonzero"></path>
</svg>
