<svg xmlns="http://www.w3.org/2000/svg" width="18.64mm" height="18.64mm" viewBox="0 0 52.85 52.85">
  <g>
    <path d="M298.1,424.8a4,4,0,0,1-2.77-1.09L285.15,414v14.8a1.27,1.27,0,0,0,1.28,1.25h23.14a1.26,1.26,0,0,0,1.28-1.25v-14.6l-10,9.47A4,4,0,0,1,298.1,424.8Z" transform="translate(-271.57 -394.07)" fill="#1586c8"/>
    <path d="M298,394.07a26.43,26.43,0,1,0,26.43,26.43A26.44,26.44,0,0,0,298,394.07Zm15.42,34.77a3.81,3.81,0,0,1-3.85,3.76H286.43a3.81,3.81,0,0,1-3.85-3.76v-15a3.76,3.76,0,0,1,2.21-3.38l.12-.12,0,0a3.87,3.87,0,0,1,1.48-.29h23.14a3.81,3.81,0,0,1,1.62.36h0l0,0a3.73,3.73,0,0,1,2.2,3.38Z" transform="translate(-271.57 -394.07)" fill="#1586c8"/>
    <path d="M299.08,421.92l9.85-9.36H287.28l9.84,9.36A1.47,1.47,0,0,0,299.08,421.92Z" transform="translate(-271.57 -394.07)" fill="#1586c8"/>
  </g>
</svg>
