<svg xmlns="http://www.w3.org/2000/svg" width="16.81mm" height="18.79mm" viewBox="0 0 47.64 53.27">
  <path d="M274.18,423.4V410.09c.51-1.45,1.64-1.82,3.06-2,4.2-.57,8.42-1,12.53-1.93a100.14,100.14,0,0,0,28.28-11.27c2.44-1.39,3.77-.63,3.77,2.15v39.62c0,1.92-1.19,2.72-3,2a9.63,9.63,0,0,1-1.24-.63,113.27,113.27,0,0,0-19.9-8.89,7.23,7.23,0,0,0-1.13-.23,8.82,8.82,0,0,0-.06,1.39c.34,3.26.63,6.54,1.08,9.8a5.61,5.61,0,0,1-2.32,5.7,20.65,20.65,0,0,1-3.49,1.64h-2a1.55,1.55,0,0,0-.51-.22c-3.26-.68-5-2.41-5.36-5.64a13.75,13.75,0,0,1,.17-2.38,52.8,52.8,0,0,0-1.19-12.73,1.33,1.33,0,0,0-.82-.82c-1.53-.25-3.06-.45-4.62-.57A3.64,3.64,0,0,1,274.18,423.4Zm43.53,9.92V400.11a5.4,5.4,0,0,0-1,.28A102.84,102.84,0,0,1,287.22,411a1.21,1.21,0,0,0-1.16,1.42c.08,2.83.05,5.67,0,8.5,0,.88.25,1.22,1.16,1.36a95.64,95.64,0,0,1,23.52,7.65C313,431,315.27,432.13,317.71,433.32Zm-30.38-6.85a2.48,2.48,0,0,0-.11.68,61.35,61.35,0,0,1,.85,14.19c0,1.25,1.24,2,2.92,1.87s2.69-1.13,2.4-2.46a54.32,54.32,0,0,1-1.19-12.19,1.33,1.33,0,0,0-.65-1.07C290.22,427.09,288.8,426.81,287.33,426.47Zm-5.5-5.22V412.1c-.76,0-1.41,0-2,0-1-.06-1.41.37-1.33,1.41.09,1.45,0,2.92,0,4.37,0,3.17,0,3.17,3.09,3.46C281.61,421.34,281.63,421.31,281.83,421.25Z" transform="translate(-274.18 -394.22)" fill="#0b4691"/>
</svg>
