<svg xmlns="http://www.w3.org/2000/svg" width="15.36mm" height="18.46mm" viewBox="0 0 43.54 52.33">
  <g>
    <path d="M296.25,425.11V396.45c0-1.08.49-1.61,1.4-1.61A1.2,1.2,0,0,1,299,395.9a4.51,4.51,0,0,1,.11.89c0,1.59.35,2,2,2a15.9,15.9,0,0,0,3.92-.59c1.75-.45,3.42-1.2,5.19-1.56a15,15,0,0,1,3.79-.11c.84,0,1.28.52,1.26,1.45,0,3.92,0,7.84,0,11.76,0,1-.46,1.38-1.35,1.24a10,10,0,0,0-5.08.54l-2.5.86a10.87,10.87,0,0,1-7.07.56v12.12c.78,0,1.53,0,2.28,0a1.56,1.56,0,0,1,1.58,1c.68,1.38,1.39,2.77,2.14,4.12a2,2,0,0,0,.93.85c1.8.77,3.66,1.44,5.46,2.21a3.18,3.18,0,0,1,1.3,1.05c2,3.07,3.88,6.14,5.83,9.24.36.57.69,1.13.29,1.84s-1,.75-1.71.75H278.58c-1.75,0-2.32-1-1.46-2.55,1.57-2.86,3.17-5.72,4.72-8.62a1.86,1.86,0,0,1,2-1.13c1.13.05,2.24,0,3.37,0a1.11,1.11,0,0,0,1.18-.69c1.19-2.32,2.46-4.6,3.63-6.91a1.81,1.81,0,0,1,1.93-1.15C294.65,425.16,295.39,425.11,296.25,425.11Zm18.84,18.24a1.66,1.66,0,0,0,0-.31c-1.42-2.3-2.83-4.59-4.28-6.87a1.71,1.71,0,0,0-.71-.49c-1.86-.75-3.74-1.4-5.56-2.21a3.47,3.47,0,0,1-1.48-1.34c-.69-1.17-1.26-2.41-1.84-3.63a1,1,0,0,0-1-.64c-1.69,0-3.41,0-5.1,0a1,1,0,0,0-1,.58c-1.18,2.32-2.42,4.61-3.59,6.93a1.87,1.87,0,0,1-2,1.24,29.65,29.65,0,0,0-3.65,0,1.32,1.32,0,0,0-.95.56c-.87,1.48-1.69,3-2.51,4.52-.29.51-.55,1-.86,1.64Zm-15.91-42c0,2.79,0,5.48,0,8.16,0,.18.28.44.48.55a6.3,6.3,0,0,0,4.77.05c1.95-.62,3.9-1.29,5.87-1.86a11.45,11.45,0,0,1,2.11-.23v-9c-1.55.4-3,.68-4.43,1.19C305.16,401.26,302.36,402.26,299.18,401.37Z" transform="translate(-276.17 -394.33)" fill="#0b4691"/>
    <path d="M317.33,446.67H278.58a2.27,2.27,0,0,1-2.17-.95,2.33,2.33,0,0,1,.22-2.41c.47-.85.94-1.73,1.42-2.58,1.09-2,2.2-4,3.28-6a2.43,2.43,0,0,1,2.46-1.42c.56,0,1.14,0,1.71,0s1.09,0,1.66,0c.38,0,.49-.06.67-.4.59-1.13,1.19-2.28,1.79-3.39s1.26-2.35,1.86-3.52a2.33,2.33,0,0,1,2.47-1.44,12.7,12.7,0,0,0,1.52,0h.23V396.48a2.25,2.25,0,0,1,.57-1.64,1.88,1.88,0,0,1,1.38-.51,1.72,1.72,0,0,1,1.88,1.52l0,.12a4.69,4.69,0,0,1,.09.84c0,1.35.16,1.5,1.37,1.5h.05a15.34,15.34,0,0,0,3.77-.57c.77-.2,1.53-.45,2.28-.71a24.11,24.11,0,0,1,2.93-.87,14.19,14.19,0,0,1,3.5-.15l.42,0a1.76,1.76,0,0,1,1.79,2c0,2.41,0,4.87,0,7.25v4.51a1.6,1.6,0,0,1-2,1.78,9.64,9.64,0,0,0-4.82.53c-.52.18-1.07.36-1.6.56l-.87.31a11.2,11.2,0,0,1-6.69.72v10.86h1.71a2.15,2.15,0,0,1,2.1,1.27c.8,1.62,1.47,2.92,2.11,4.08a1.45,1.45,0,0,0,.68.62c.85.37,1.73.71,2.56,1s1.94.77,2.9,1.17a3.58,3.58,0,0,1,1.53,1.25c1.48,2.3,3,4.65,4.38,6.93l1.44,2.31a2.2,2.2,0,0,1,.31,2.41A2.12,2.12,0,0,1,317.33,446.67Zm-33.73-12.3a1.33,1.33,0,0,0-1.31.85c-1.07,2-2.2,4.07-3.3,6l-1.42,2.59c-.31.57-.4,1.06-.23,1.33a1.42,1.42,0,0,0,1.22.42H317.3c.69,0,1,0,1.22-.47s.09-.69-.28-1.3-1-1.53-1.44-2.31c-1.42-2.28-2.89-4.63-4.37-6.92a2.54,2.54,0,0,0-1-.86c-.94-.4-1.91-.78-2.86-1.17s-1.73-.67-2.6-1a2.71,2.71,0,0,1-1.21-1.09c-.65-1.18-1.34-2.5-2.15-4.14a1,1,0,0,0-1.07-.67c-.53,0-1.08,0-1.59,0h-1.25V412.3l.65.13a10.4,10.4,0,0,0,6.78-.55l.89-.31,1.61-.55a10.7,10.7,0,0,1,5.35-.58.8.8,0,0,0,.55-.05.9.9,0,0,0,.16-.64v-4.5c0-2.37,0-4.83,0-7.25,0-.77-.34-.9-.73-.9l-.41,0a12.77,12.77,0,0,0-3.23.13,24.56,24.56,0,0,0-2.81.84c-.76.26-1.56.53-2.37.73a16.45,16.45,0,0,1-4,.6h0c-2.06,0-2.44-.86-2.48-2.57a2.91,2.91,0,0,0-.09-.69l0-.13c-.05-.36-.21-.6-.82-.6a.81.81,0,0,0-.6.18,1.33,1.33,0,0,0-.25.88v29.21h-.55c-.25,0-.51,0-.76,0-.57,0-1.1,0-1.64,0a1.25,1.25,0,0,0-1.41.85c-.6,1.19-1.24,2.39-1.86,3.54s-1.2,2.24-1.76,3.37a1.61,1.61,0,0,1-1.7,1h-1.6c-.59,0-1.19,0-1.77,0Zm32.15,9.53H279.6l.42-.8c.09-.19.2-.39.29-.55.2-.38.38-.73.58-1.09s.35-.62.51-.93c.66-1.19,1.31-2.41,2-3.59a1.92,1.92,0,0,1,1.39-.84c1.33-.07,2.55-.07,3.7,0a1.32,1.32,0,0,0,1.45-.93c.64-1.29,1.32-2.57,2-3.83.53-1,1.1-2.07,1.62-3.11a1.43,1.43,0,0,1,1.46-.88c1.82,0,3.48,0,5.09,0a1.51,1.51,0,0,1,1.54.95c.1.18.19.38.28.58a28.51,28.51,0,0,0,1.55,3,3,3,0,0,0,1.22,1.13c1.18.53,2.42,1,3.62,1.46.64.23,1.28.49,1.92.75a1.88,1.88,0,0,1,1,.71c1.28,2,2.55,4.08,3.79,6.08l.49.79a1,1,0,0,1,.13.4.2.2,0,0,0,0,.09Zm-34.35-1.1h32.84l-.17-.25c-1.24-2-2.51-4.06-3.79-6.07a1,1,0,0,0-.45-.27c-.64-.26-1.28-.49-1.92-.75-1.22-.46-2.46-.95-3.68-1.48a4.14,4.14,0,0,1-1.71-1.54c-.6-1-1.11-2.08-1.6-3.1-.1-.18-.19-.39-.28-.57s-.23-.34-.54-.33c-1.61,0-3.28,0-5.12,0-.28,0-.33,0-.46.3-.53,1.05-1.09,2.11-1.62,3.13-.66,1.24-1.33,2.53-2,3.81a2.38,2.38,0,0,1-2.5,1.53,28.5,28.5,0,0,0-3.57,0,.76.76,0,0,0-.51.29c-.69,1.17-1.36,2.39-2,3.55-.17.31-.35.62-.51.95A7.76,7.76,0,0,0,281.4,442.8Zm20.52-31.68a5.76,5.76,0,0,1-2.48-.55,1.33,1.33,0,0,1-.78-1c0-2.17,0-4.3,0-6.56v-2.33l.69.2c3,.85,5.81-.15,8.47-1.13a23.21,23.21,0,0,1,3.05-.84l1.44-.35.69-.18v10.15l-.49.05-.7.06a6.13,6.13,0,0,0-1.33.16c-1.24.37-2.49.77-3.7,1.17-.71.24-1.43.47-2.15.69A8.59,8.59,0,0,1,301.92,411.12Zm-2.17-1.68a1.14,1.14,0,0,0,.16.15,5.71,5.71,0,0,0,4.38,0c.71-.22,1.44-.45,2.15-.69,1.22-.4,2.47-.8,3.73-1.17a7.88,7.88,0,0,1,1.57-.21h.15v-7.78l-.79.18a25.26,25.26,0,0,0-2.91.8c-2.52.91-5.36,1.95-8.46,1.31V403C299.73,405.19,299.73,407.31,299.75,409.44Z" transform="translate(-276.17 -394.33)" fill="#0b4691"/>
  </g>
</svg>
