<svg xmlns="http://www.w3.org/2000/svg" xml:space="preserve" id="Calque_1" x="0" y="0" version="1.1" viewBox="0 0 52.8 52.8">
<path d="M27.3 27.4V37.6c0 .4.2.4.5.4h9.6c.4 0 .5-.1.5-.5v-10l-10.6-.1zm7.9 1.8c1 0 .9-.2.9.9 0 1 0 .9-.9.9-1 0-.9.1-.9-.9 0-.9 0-.9.9-.9zm-5.4 0c1.1 0 1-.2 1 .9 0 1 .1.9-.9.9s-.9.2-.9-.9c0-.9 0-.9.8-.9zm.1 7c-.9 0-.9.1-.9-.9v-.4c0-.4.1-.5.5-.5h.7c.6 0 .6 0 .6.6v.3c0 1 .2.9-.9.9zm.9-3.3c0 .6 0 .6-.6.6h-.3c-1 0-.9.1-.9-.9v-.3c0-.4.1-.5.5-.5h.9c.4 0 .4.1.4.4v.7zm1.7 3.3c-.8 0-.8 0-.8-.9 0-.8 0-.8.8-.8s.9 0 .9.9c0 1 .1.8-.9.8zm.1-2.6c-.9 0-.9 0-.9-.9 0-.8 0-.8.8-.8.9 0 .9 0 .9.9 0 .8.1.7-.8.8zm-.2-2.6c-.9 0-.8 0-.8-.7v-.2c0-.9 0-.9.9-.9s.8-.2.8.8c.1 1.1.2.9-.9 1zm2.3 5.2c-.3 0-.4-.1-.4-.4v-1.4h1.4c.1 0 .2.2.4.3-.1 1.8.3 1.5-1.4 1.5zm.5-2.7c-.9 0-.9 0-.9-.9 0-.8 0-.8.9-.8s.9 0 .9.8c0 1.1.1.9-.9.9zM19.7 35.3c-.3 0-.4.1-.4.4v1.8c0 .4.1.5.5.5 1.3 0 1.3 0 1.3-1.3 0-1.4 0-1.4-1.4-1.4z" class="st0"/>
<path d="M15.6 15.1c-.7 0-.7 0-.7.7V37.7c0 .3.1.4.4.4h1.9c.3 0 .4-.1.4-.4v-3c-.1-.5.3-.9.7-1h3.5c.7 0 1 .3 1 1v2.9c0 .2 0 .4.3.4h2.3V15.1h-9.8zm1.1 1.8h1.7v1.3c0 .3-.1.4-.4.4h-1.3v-1.7zm0 2.8c0-.1.2-.2.2-.3.1-.1.1 0 .1 0 1.7 0 1.3-.2 1.4 1.4 0 .3-.1.4-.4.4h-1.4c.1-.5.1-1 .1-1.5zm0 5.1h1.4c.1 0 .2.2.3.3v.1c0 1.4 0 1.4-1.4 1.3-.1 0-.3-.2-.3-.2v-1.5zm1.7 6.7c0 .1-.2.3-.3.3h-1.4v-1.7h1.7v1.4zm-1.7-2.4v-1.7h1.4c.1 0 .2.2.3.3v.1c.1 1.4 0 1.6-1.7 1.3zm1.8-5.3h-1.7v-1.7h1.4c.2 0 .3.1.3.3v1.4zm1.7-2.6c-1 0-.9.1-.9-.9V20c0-.4.1-.6.5-.5 1.5 0 1.2-.2 1.2 1.2.1.7.1.5-.8.5zm0 3.6c.9 0 .9 0 .9.9s.2.9-.9.9-.9 0-.9-.9c0-1.1 0-.9.9-.9zm.9-.9h-1.5c-.1 0-.2-.2-.2-.2v-.1c-.1-1.3.2-1.6 1.5-1.3.1 0 .2.2.2.3v1.3zm-1.8-6.8c0-.1.1-.3.3-.3h1.5v1.4c0 .3-.1.4-.4.4h-.1c-1.4 0-1.4 0-1.3-1.5zm1.8 13.4c0 1.4 0 1.4-1.5 1.3-.1 0-.2-.1-.3-.2v-1.4h1.8v.3zm-.9-1.4c-1 0-.9.1-.9-.9V28c-.1-.5.1-.7.6-.6h.3c.9 0 .9 0 .9.9s.2.8-.9.8zm3-12.2h.5v1.6c0 .1 0 .1-.1.2h-1.3c-.1 0-.2-.2-.3-.3v-.1c-.1-1.4-.1-1.4 1.2-1.4zm.5 14.6c0 .3-.1.4-.4.4H22v-1.7h1.7v1.3zm0-2.3h-1.4c-.1 0-.2-.2-.3-.3v-.1c.1-1.6-.4-1.3 1.7-1.3v1.7zm0-2.9c0 .1-.1.2-.3.3-1.3.2-1.7-.2-1.4-1.5 0-.1.2-.2.3-.3.4-.1.9 0 1.4 0v1.5zm-1.4-2.5c-.1 0-.2-.2-.3-.3v-.1c0-1.3.2-1.5 1.5-1.3.1 0 .2.1.2.2v1.4c-.5.1-.9.1-1.4.1zm1.4-2.6h-1.4c-.1 0-.2-.2-.3-.3v-.1c0-1.6-.2-1.3 1.4-1.3.1 0 .3.1.3.3v1.4z" class="st0"/>
<path d="M26.4.1C11.8.1 0 12 0 26.6S11.8 53 26.4 53s26.4-11.8 26.4-26.4S41 .1 26.4.1zm13.3 38.3c0 .3 0 .5-.1.8-.1.2-.3.4-.6.5-.3.1-.6.1-.8.1H14.3c-.8-.1-1-.3-1-1.2V14.5c0-1 .2-1.2 1.1-1.2h11.8c.9 0 1.2.3 1.2 1.2v11.1h10.9c1.2 0 1.5.3 1.5 1.5v11.3z" fill="currentColor"/>
</svg>