<svg width="30" height="30" viewBox="0 0 30 30" fill="none" xmlns="http://www.w3.org/2000/svg">
  <path d="M19 8.5L19 20C19 22.21 17.21 24 15 24C12.79 24 11 22.21 11 20L11 7.5C11 6.12 12.12 5 13.5 5C14.88 5 16 6.12 16 7.5L16 18C16 18.55 15.55 19 15 19C14.45 19 14 18.55 14 18L14 8.5L12.5 8.5L12.5 18C12.5 19.38 13.62 20.5 15 20.5C16.38 20.5 17.5 19.38 17.5 18L17.5 7.5C17.5 5.29 15.71 3.5 13.5 3.5C11.29 3.5 9.5 5.29 9.5 7.5L9.5 20C9.5 23.04 11.96 25.5 15 25.5C18.04 25.5 20.5 23.04 20.5 20L20.5 8.5L19 8.5Z" fill="#9F9F9F"/>
</svg>
