<svg width="90px" height="90px" viewBox="0 0 90 90" version="1.1" xmlns="http://www.w3.org/2000/svg" xmlns:xlink="http://www.w3.org/1999/xlink">
  <path d="M90.0014076,45.1304951 C89.9268503,69.9350951 69.6675503,90.0379951 44.8897503,90.0009464 C20.1860503,89.9268951 -0.11020665,69.7499951 0.000450349639,44.7602951 C0.11201535,20.1407951 20.2601503,-0.110159882 45.1860503,0.000450977474 C69.9638503,0.111971118 90.1120503,20.3258951 90.0014076,45.1304951 Z M6.40831035,45.0564951 C7.00090035,67.0843951 23.6305503,83.5590951 45.1120503,83.4486527 C67.2972503,83.3739951 83.6305503,66.1958951 83.5200137,44.8712951 C83.4083503,22.6952951 66.2601503,6.36865512 44.9268503,6.47916183 C22.8897503,6.59078512 6.85276035,23.5837951 6.40831035,45.0564951 Z" id="Shape"></path>
  <polygon id="Path" points="29.0751503 25.3605951 38.0704503 25.3605951 38.0704503 64.6036951 29.0751503 64.6036951"></polygon>
  <polygon id="Path-Copy" points="52.0751503 25.3605951 61.0704503 25.3605951 61.0704503 64.6036951 52.0751503 64.6036951"></polygon>
</svg>
