<svg xmlns="http://www.w3.org/2000/svg" width="14.5mm" height="18.53mm" viewBox="0 0 41.11 52.53">
  <g>
    <path d="M277.44,420.51V397.78c0-2.44,1.08-3.54,3.5-3.54q12.48,0,25,0a2,2,0,0,1,1.53.63c3.49,3.53,7,7,10.47,10.53a2.23,2.23,0,0,1,.59,1.42c0,12.19,0,24.39,0,36.57,0,2.25-1.14,3.39-3.38,3.39H280.84c-2.28,0-3.4-1.1-3.4-3.43Zm2.95-23.32v46.62h35.18v-35h-4.41c-1.47,0-3,0-4.42,0a2.64,2.64,0,0,1-2.78-2.77c0-2.56,0-5.12,0-7.67v-1.19Zm26.42,1.26v7.48h7.36C311.75,403.47,309.31,401,306.81,398.45Z" transform="translate(-277.44 -394.22)" fill="#0b4691"/>
    <path d="M299.22,407c-.3,1.48-.53,3-.92,4.39a1.91,1.91,0,0,0,.39,2.11c1.14,1.25,2.12,2.65,3.26,3.91a2.54,2.54,0,0,0,1.4.63c1.54.24,3.11.33,4.65.59a6,6,0,0,1,1.79.73,2.48,2.48,0,0,1,1.47,2.63,2.77,2.77,0,0,1-2.48,1.93,6,6,0,0,1-5.27-2.08,4.3,4.3,0,0,0-4.66-1.48c-1.16.3-2.37.47-3.57.67a2.85,2.85,0,0,0-2.12,1.59,36,36,0,0,1-3.17,4.59,7.32,7.32,0,0,1-2.36,1.63,1.86,1.86,0,0,1-2.26-.41,2.11,2.11,0,0,1-.51-2.34,8,8,0,0,1,3.5-4.23,21.24,21.24,0,0,1,3.28-1.71A2.35,2.35,0,0,0,293,418.9c.81-1.79,1.67-3.55,2.42-5.36a1.76,1.76,0,0,0-.08-1.31,10.88,10.88,0,0,1-1.16-7.4,4.36,4.36,0,0,1,.69-1.5,2,2,0,0,1,3.54.3A23.41,23.41,0,0,1,299.22,407Zm.67,11.2c-1-1.2-1.83-2.27-2.78-3.43-.66,1.48-1.25,2.8-1.88,4.19C296.84,418.74,298.3,418.5,299.89,418.23Zm-13.3,8.87a7.12,7.12,0,0,0,3.89-4.19A8.07,8.07,0,0,0,286.59,427.1Zm10.07-22.55c-1,1-1,4,0,5.39A9.6,9.6,0,0,0,296.66,404.55Zm8,15.65c1.75,1.77,3.46,2.22,4.64,1.31C308,420.39,306.42,420.27,304.65,420.2Z" transform="translate(-277.44 -394.22)" fill="#0b4691"/>
    <path d="M297.17,431.23c1.24,0,2.48-.06,3.45,1,1.3,1.43,1.35,4.58-.1,5.84a4.62,4.62,0,0,1-2.28.9c-3,.44-3.33.16-3.33-2.85v-3.34c0-1.44.14-1.58,1.57-1.58C296.72,431.23,297,431.23,297.17,431.23Zm-.45,6.28c1-.06,2.15.39,2.7-.77a3.37,3.37,0,0,0,0-3.26c-.59-1-1.68-.73-2.68-.81Z" transform="translate(-277.44 -394.22)" fill="#0b4691"/>
    <path d="M289.64,436.17c0,.67,0,1.28,0,1.89s-.2,1-.91,1-.86-.49-.86-1.06c0-1.91,0-3.8,0-5.7,0-.38.47-1,.76-1a14.71,14.71,0,0,1,3.51.12c1.2.2,1.67,1.06,1.63,2.4a2,2,0,0,1-1.79,2.11A22.93,22.93,0,0,1,289.64,436.17Zm.06-3.8V435a17.32,17.32,0,0,0,2.2-.81c.16-.07.16-.88,0-1A19.91,19.91,0,0,0,289.7,432.37Z" transform="translate(-277.44 -394.22)" fill="#0b4691"/>
    <path d="M304.45,432.65v1.73a20.69,20.69,0,0,1,2.23,0c.31,0,.61.39.9.61-.27.24-.55.65-.86.69a17.29,17.29,0,0,1-2.31,0V438c0,.61-.15,1.12-.9,1.1s-.85-.51-.85-1.08c0-1.89,0-3.8,0-5.68a1,1,0,0,1,1.08-1.11,32.61,32.61,0,0,1,3.43,0c.33,0,.65.46,1,.69-.33.24-.65.61-1,.65A19.91,19.91,0,0,1,304.45,432.65Z" transform="translate(-277.44 -394.22)" fill="#0b4691"/>
  </g>
</svg>
