<svg width="90" height="90" viewBox="0 0 90 90" fill="none" xmlns="http://www.w3.org/2000/svg">
  <path d="M90.0005 45.1298C89.9264 69.9344 69.6671 90.0373 44.8893 90.0002C20.1856 89.9262 -0.110657 69.7493 0.000454044 44.7596C0.111565 20.1401 20.2597 -0.110855 45.1856 0.000210543C69.9634 0.111276 90.1116 20.3252 90.0005 45.1298ZM6.40786 45.0558C7.00045 67.0837 23.6301 83.5584 45.1116 83.4474C67.2968 83.3733 83.6301 66.1952 83.519 44.8706C83.4079 22.6946 66.2597 6.36796 44.9264 6.47903C22.8893 6.59009 6.85231 23.5831 6.40786 45.0558Z" fill="white"/>
  <path d="M33.0747 25.3599C44.0747 31.9497 54.8895 38.3915 65.8525 44.9814C54.8895 51.5343 44.0747 58.0131 33.0747 64.603C33.0747 51.4232 33.0747 38.5396 33.0747 25.3599Z" fill="white"/>
</svg>
