<svg width="20px" height="20px" viewBox="0 0 20 20" version="1.1" xmlns="http://www.w3.org/2000/svg" xmlns:xlink="http://www.w3.org/1999/xlink">
  <path d="M16,0 C18.2091701,0 20,1.79085056 20,4 L20,4 L20,20 L15.002,17 L4,17 C1.85779448,17 0.10892051,15.3160607 0.00489527934,13.199643 L0.00489527934,13.199643 L0,13 L0,4 C0,1.79086525 1.79086525,0 4,0 L4,0 Z M16,2 L4,2 C2.89543475,2 2,2.89543475 2,4 L2,4 L2,13 C2,14.1045954 2.8954149,15 4,15 L4,15 L15.553984,15 L18,16.468 L18,4 C18,2.94562332 17.1841458,2.08183352 16.1492656,2.00548564 L16.1492656,2.00548564 L16,2 Z M10.9421,10.833 L10.9421,13 L8.7321,13 L8.7321,10.833 L10.9421,10.833 Z M10.1005,4 C10.8896,4 11.5267,4.1831 12.0118,4.5493 C12.6706,5.04427 13,5.70423 13,6.52918 C13,6.87123 12.9149,7.20121 12.7448,7.51911 C12.5747,7.83702 12.2271,8.2254 11.7023,8.6841 C11.3367,9.006 11.105,9.2656 11.0072,9.4628 C10.9131,9.6559 10.8661,9.9095 10.8661,10.2233 L8.8027,10.2233 L8.8027,9.994 C8.8027,9.6036 8.8425,9.2877 8.9222,9.0463 C9.0018,8.8008 9.1195,8.5775 9.2751,8.3763 C9.4344,8.1751 9.7891,7.82093 10.3394,7.31388 C10.6326,7.04829 10.7792,6.80483 10.7792,6.5835 C10.7792,6.36217 10.7195,6.19115 10.6,6.07042 C10.4842,5.94567 10.3068,5.8833 10.0679,5.8833 C9.8109,5.8833 9.5973,5.97787 9.4271,6.167 C9.2606,6.35614 9.1538,6.68612 9.1068,7.15694 L7,6.8672 C7.0724,6.00604 7.35294,5.31388 7.84163,4.79074 C8.3339,4.26358 9.0869,4 10.1005,4 Z" id="Combined-Shape" fill="currentColor" fill-rule="nonzero"></path>
</svg>
