<svg xmlns="http://www.w3.org/2000/svg" width="18.52mm" height="14.78mm" viewBox="0 0 52.49 41.89">
  <g>
    <path d="M280.21,399.55h44c0,.25.05.48.05.71,0,11.63,0,23.27,0,34.9a5.85,5.85,0,0,1-3.8,5.9,6.42,6.42,0,0,1-2.24.37q-20.19,0-40.37,0a6,6,0,0,1-6-6c0-8.94,0-17.86,0-26.78,0-.62.18-.8.8-.8,2.24,0,4.47,0,6.71,0,.73,0,1-.23,1-1C280.19,404.52,280.21,402.08,280.21,399.55Zm39.81,4.1h-1.17c-11.15,0-22.32,0-33.47,0-.84,0-1.07.21-1.07,1.06,0,9.89,0,19.77,0,29.66,0,1-.1,1.91-.15,3h33c2.38,0,2.81-.43,2.81-2.83V403.65Zm-43.95,8.43a1.76,1.76,0,0,0-.09.35q0,11.54,0,23.06a1.89,1.89,0,0,0,2.14,1.84c1.41-.11,2.09-.94,2.09-2.63V413.14c0-.14,0-.33,0-.42s-.41-.59-.64-.6C278.41,412.05,277.27,412.08,276.07,412.08Z" transform="translate(-271.74 -399.55)" fill="#0b4691"/>
    <path d="M303.26,431H293a2.16,2.16,0,0,1-2.26-1.49,1.89,1.89,0,0,1,.72-2.26,3.2,3.2,0,0,1,1.47-.48q10.28,0,20.56,0a2.12,2.12,0,1,1,0,4.22C310.1,431,306.69,431,303.26,431Z" transform="translate(-271.74 -399.55)" fill="#0b4691"/>
    <path d="M303.23,416.29h-9.89a4.44,4.44,0,0,1-.89-.06,2,2,0,0,1-1.8-2.22,2.13,2.13,0,0,1,2.16-1.91c1.9,0,3.83,0,5.74,0h14.82c1.5,0,2.39.78,2.39,2.08a2.1,2.1,0,0,1-2.39,2.11Z" transform="translate(-271.74 -399.55)" fill="#0b4691"/>
    <path d="M299.34,423.58h-6.45a2,2,0,0,1-2.22-2.08,2,2,0,0,1,2.19-2H306a2,2,0,0,1,2.14,2.07,2,2,0,0,1-2.19,2Z" transform="translate(-271.74 -399.55)" fill="#0b4691"/>
  </g>
</svg>
