<svg width="19px" height="19px" viewBox="0 0 19 19" version="1.1" xmlns="http://www.w3.org/2000/svg" xmlns:xlink="http://www.w3.org/1999/xlink">
  <path d="M9.49986666,18.9997278 C5.65753149,18.9997278 2.19353738,16.685161 0.723139371,13.1353061 C-0.747258641,9.58545131 0.0655091571,5.49939167 2.78245041,2.78245041 C5.49939167,0.0655091571 9.58545131,-0.747258641 13.1353061,0.723139371 C16.685161,2.19353738 18.9997278,5.65753149 18.9997278,9.49986666 C18.9918014,14.7432083 14.7432083,18.9918014 9.49986666,18.9997278 L9.49986666,18.9997278 Z M9.5,2 C5.35786438,2 2,5.35786438 2,9.5 C2,13.6421356 5.35786438,17 9.5,17 C13.6421356,17 17,13.6421356 17,9.5 C16.9949192,5.35997075 13.6400292,2.00508084 9.5,2 L9.5,2 Z" id="Shape" fill="currentColor" fill-rule="nonzero"></path>
  <polygon id="Path" fill="currentColor" fill-rule="nonzero" points="9.98545558 3.73528699 8.57458231 3.73528699 8.57458231 9.40347035 13.5443834 12.380413 14.24982 11.2164425 10.0172002 8.69450654"></polygon>
</svg>
