<svg xmlns="http://www.w3.org/2000/svg" width="18.64mm" height="18.64mm" viewBox="0 0 52.85 52.85">
  <path d="M298,394.07a26.43,26.43,0,1,0,26.43,26.43A26.44,26.44,0,0,0,298,394.07Zm11.92,20.5c0,.26,0,.52,0,.78,0,8-6.08,17.21-17.2,17.21a17.13,17.13,0,0,1-9.26-2.72,11.37,11.37,0,0,0,1.44.08,12.14,12.14,0,0,0,7.51-2.58,6.06,6.06,0,0,1-5.65-4.2,6.12,6.12,0,0,0,1.14.11,6,6,0,0,0,1.59-.22,6,6,0,0,1-4.85-5.92V417a6.16,6.16,0,0,0,2.74.76,6.06,6.06,0,0,1-1.87-8.08A17.14,17.14,0,0,0,298,416a5.67,5.67,0,0,1-.16-1.38,6,6,0,0,1,10.46-4.13,12.15,12.15,0,0,0,3.84-1.47,6,6,0,0,1-2.66,3.34,11.89,11.89,0,0,0,3.47-.95A12.11,12.11,0,0,1,309.92,414.57Z" transform="translate(-271.57 -394.07)" fill="#5ea9de"/>
</svg>
