<svg xmlns="http://www.w3.org/2000/svg" width="18.24mm" height="18.23mm" viewBox="0 0 51.72 51.67">
  <g>
    <path d="M298,446.63H273.44c-1.22,0-1.34-.08-1.3-1.27a64.58,64.58,0,0,1,.36-7.88,12.36,12.36,0,0,1,10.47-10,47.34,47.34,0,0,1,5.72-.18,2.62,2.62,0,0,1,1.33.54,13.76,13.76,0,0,0,16,.14,4.06,4.06,0,0,1,2.42-.73c2.4,0,4.8-.1,7.1.86,4.77,2,7.61,5.48,8.16,10.62.25,2.29.13,4.63.2,6.94,0,.89-.56.93-1.22.93Z" transform="translate(-272.13 -394.97)" fill="currentColor"/>
    <path d="M310.79,410.52A22.19,22.19,0,0,1,308,421.13c-1.9,3.25-4.6,5.52-8.46,6-4.34.54-7.75-1.19-10.29-4.65a22,22,0,0,1-4.08-14.23,14.17,14.17,0,0,1,2.58-8.13c3.19-4.3,7.52-5.74,12.68-4.93,6.4,1,10.18,6.6,10.41,12.49C310.82,408.63,310.79,409.58,310.79,410.52Z" transform="translate(-272.13 -394.97)" fill="currentColor"/>
  </g>
</svg>
