<svg width="24" height="15" viewBox="0 0 24 15" fill="none" xmlns="http://www.w3.org/2000/svg">
<path d="M16.0909 6.60714C17.7886 6.60714 19.1489 5.24321 19.1489 3.55357C19.1489 1.86393 17.7886 0.5 16.0909 0.5C14.3932 0.5 13.0227 1.86393 13.0227 3.55357C13.0227 5.24321 14.3932 6.60714 16.0909 6.60714ZM7.90909 6.60714C9.60682 6.60714 10.967 5.24321 10.967 3.55357C10.967 1.86393 9.60682 0.5 7.90909 0.5C6.21136 0.5 4.84091 1.86393 4.84091 3.55357C4.84091 5.24321 6.21136 6.60714 7.90909 6.60714ZM7.90909 8.64286C5.52614 8.64286 0.75 9.83375 0.75 12.2054V14.75H15.0682V12.2054C15.0682 9.83375 10.292 8.64286 7.90909 8.64286ZM16.0909 8.64286C15.7943 8.64286 15.4568 8.66321 15.0989 8.69375C16.2852 9.54875 17.1136 10.6989 17.1136 12.2054V14.75H23.25V12.2054C23.25 9.83375 18.4739 8.64286 16.0909 8.64286Z" fill="#004494"/>
</svg>
