<svg xmlns="http://www.w3.org/2000/svg" xmlns:xlink="http://www.w3.org/1999/xlink" viewBox="0 0 17.01 14.96"><defs><style>.cls-1{fill:none;}.cls-2{clip-path:url(#clip-path);}.cls-3{fill:#5e501c;}.cls-4{fill:#bdb295;}</style><clipPath id="clip-path"><rect class="cls-1" x="0.01" y="0.01" width="17.01" height="14.97"/></clipPath></defs><title>food</title><g id="Layer_2" data-name="Layer 2"><g id="Layer_1-2" data-name="Layer 1"><g class="cls-2"><path class="cls-3" d="M7.73,10.06c-.77-.59-.38-1-.09-1,1.06-.09.77.68,1.63,0a1.82,1.82,0,0,1,1-.39h.2a.39.39,0,0,1,.29.09h.48c.29.11,0-.68,0-.68a2.61,2.61,0,0,0-.68-1.34c-.58-.48-.58-.2-1.15-.29-.29-.09-.58-.18-.88-.29,0-.09-.18-.18-.18-.29s.09-.18.28-.28a1.22,1.22,0,0,1,1.74.57l.11.29a3.23,3.23,0,0,1,.77,1.06c-.11-.39-.2-.68-.29-1s-.18-.77-.29-1.16c-.18-1.25-1.06-1.83-1.45-1.74a2.64,2.64,0,0,1-.86-.39c0-.09-.2-.19-.2-.29s.2-.18.29-.29a1.26,1.26,0,0,1,1.63.59c0,.09,0,.09.11.2l.18.57a1.85,1.85,0,0,0,.2.49,7.28,7.28,0,0,1,.2-2c.09-.18.09-.39.18-.59V1.84A1.63,1.63,0,0,1,12.57,0a.94.94,0,0,1,.48.2c.09.09-.09.39-.18.48a2.68,2.68,0,0,1-.88,1,3.91,3.91,0,0,1-.77.29,1.7,1.7,0,0,0-.11.68A6.07,6.07,0,0,0,11,4.84,2.25,2.25,0,0,1,11.6,4l.09-.39V3.5a1.32,1.32,0,0,1,1.65-.68c.18.09.29.18.29.29s-.11.19-.2.28a1.93,1.93,0,0,1-.77.39c-.68.29-1.15.4-1.45,1a2.83,2.83,0,0,0,.18,1.74c0,.18.11.39.11.59A1.52,1.52,0,0,1,12,6.31c0-.2,0-.4.09-.49s.09-.19.09-.29a1.26,1.26,0,0,1,1.56-.48c.2.09.29.2.29.29s-.09.18-.2.29A2.07,2.07,0,0,1,13,6c-.88.29-.88,0-1.35,1.06a.9.9,0,0,0,.11,1,.37.37,0,0,0,.09.29c0,.2.09.39.09.68h.09c.09,0,.38-.09.49-.09s.09-.11.18-.11a2.09,2.09,0,0,1,.77.11c.11.09.2.18.2.28s.09.2.2.29h.28a1.49,1.49,0,0,1,1.35-.18c.2.09-.46,1.89-.84,2.07l-6.48-.22Z"/></g><g class="cls-2"><path class="cls-4" d="M2.22,12.41A10.35,10.35,0,0,1,4.92,10a3,3,0,0,1,2.64-.07A2.1,2.1,0,0,0,9.15,10a7.31,7.31,0,0,1,2.07-.2,1.09,1.09,0,0,1,.76.34c.08.14-.76.68-1.45.68.13.29,2.42-.27,2.69-.27L15,10.32c.55-.07,1.59-.14,2,.34a.45.45,0,0,1,0,.42c0,.2-.21.13-.34.2a16.27,16.27,0,0,1-2,.7c-3.32.83-3.67,1.25-7.27,1.25a3.33,3.33,0,0,0-3,1.73H0c.9-1.1,1.32-1.37,2.22-2.55"/></g></g></g></svg>