<svg width="32" height="32" viewBox="0 0 32 32" fill="none" xmlns="http://www.w3.org/2000/svg">
<g clip-path="url(#clip0_1_327)">
<mask id="mask0_1_327" style="mask-type:luminance" maskUnits="userSpaceOnUse" x="0" y="2" width="33" height="29">
<path d="M32.0188 2H-7.62939e-06V30.1788H32.0188V2Z" fill="white"/>
</mask>
<g mask="url(#mask0_1_327)">
<path d="M14.5318 20.9176C13.0823 19.8071 13.8165 19.0353 14.3623 19.0353C16.3576 18.8659 15.8118 20.3153 17.4306 19.0353C17.97 18.6069 18.626 18.3511 19.3129 18.3012H19.6894C19.7871 18.2915 19.8858 18.3015 19.9795 18.3306C20.0733 18.3597 20.1603 18.4073 20.2353 18.4706H21.1388C21.6847 18.6776 21.1388 17.1906 21.1388 17.1906C20.9686 16.2425 20.5235 15.3654 19.8588 14.6682C18.7671 13.7647 18.7671 14.2918 17.6941 14.1224C17.1482 13.9529 16.6023 13.7835 16.0376 13.5765C16.0376 13.4071 15.6988 13.2376 15.6988 13.0306C15.6988 12.8235 15.8682 12.6918 16.2259 12.5035C16.5068 12.3381 16.8198 12.2344 17.144 12.1993C17.4681 12.1643 17.796 12.1986 18.1059 12.3001C18.4157 12.4016 18.7004 12.568 18.941 12.788C19.1816 13.0081 19.3725 13.2769 19.5012 13.5765L19.7082 14.1224C20.3226 14.6815 20.8159 15.3605 21.1576 16.1176C20.9506 15.3835 20.7812 14.8376 20.6118 14.2353C20.4423 13.6329 20.2729 12.7859 20.0659 12.0518C19.7271 9.69882 18.0706 8.60706 17.3365 8.77647C16.7571 8.63105 16.2087 8.38236 15.7176 8.04235C15.7176 7.87294 15.3412 7.68471 15.3412 7.49647C15.3412 7.30824 15.7176 7.15765 15.8871 6.95059C16.4435 6.70791 17.0717 6.6878 17.6425 6.8944C18.2133 7.101 18.6831 7.51859 18.9553 8.06118C18.9553 8.23059 18.9553 8.23059 19.1623 8.43765L19.5012 9.51059C19.5818 9.83449 19.7086 10.1451 19.8776 10.4329C19.8285 9.16667 19.9552 7.8997 20.2541 6.66824C20.4235 6.32941 20.4235 5.93412 20.5929 5.55765V5.44471C20.5367 5.01147 20.5735 4.57121 20.7011 4.15338C20.8287 3.73555 21.044 3.34978 21.3327 3.02188C21.6214 2.69398 21.9768 2.43152 22.3751 2.25204C22.7734 2.07256 23.2055 1.98022 23.6423 1.98118C23.9729 2.01921 24.2861 2.14969 24.5459 2.35765C24.7153 2.52706 24.3765 3.09177 24.2071 3.26118C23.8221 4.01804 23.2524 4.66549 22.5506 5.14353C22.088 5.37596 21.6022 5.55893 21.1012 5.68941C20.9455 6.09748 20.8751 6.53309 20.8941 6.96941C20.5754 8.31957 20.5052 9.71647 20.6871 11.0918C20.9359 10.4843 21.3225 9.943 21.8165 9.51059L21.9859 8.77647V8.56941C22.2494 8.00604 22.7147 7.56201 23.2897 7.32502C23.8648 7.08803 24.5078 7.07532 25.0918 7.28941C25.4306 7.45883 25.6376 7.62824 25.6376 7.8353C25.6376 8.04235 25.4306 8.19294 25.2612 8.36235C24.8397 8.71334 24.3441 8.96432 23.8118 9.09647C22.5318 9.64235 21.6471 9.84941 21.0823 10.9788C20.8466 12.079 20.9652 13.2255 21.4212 14.2541C21.4212 14.5929 21.6282 14.9882 21.6282 15.3647C21.7743 14.7756 22.1039 14.2483 22.5694 13.8588C22.5694 13.4824 22.5694 13.1059 22.7388 12.9365C22.9082 12.7671 22.9082 12.5788 22.9082 12.3906C23.2109 11.9161 23.6724 11.5646 24.2104 11.3991C24.7483 11.2336 25.3276 11.2647 25.8447 11.4871C26.2212 11.6565 26.3906 11.8635 26.3906 12.0329C26.3906 12.2024 26.2212 12.3718 26.0141 12.5788C25.5513 12.9238 25.0177 13.1617 24.4518 13.2753C22.7953 13.8212 22.7953 13.2753 21.9106 15.2706C21.7537 15.5693 21.6897 15.908 21.7265 16.2434C21.7634 16.5788 21.8996 16.8955 22.1176 17.1529C22.1057 17.2507 22.1146 17.35 22.1438 17.4441C22.173 17.5382 22.2218 17.625 22.2871 17.6988C22.2871 18.0753 22.4565 18.4329 22.4565 18.9788H22.6259C22.7953 18.9788 23.3412 18.8094 23.5482 18.8094C23.7553 18.8094 23.7176 18.6024 23.8871 18.6024C24.3789 18.5801 24.8705 18.6503 25.3365 18.8094C25.5435 18.9788 25.7129 19.1482 25.7129 19.3365C25.7129 19.5247 25.8823 19.7129 26.0894 19.8824H26.6165C26.9826 19.628 27.4041 19.4645 27.8461 19.4056C28.288 19.3467 28.7376 19.394 29.1576 19.5435C29.5341 19.7129 28.2918 23.1012 27.5765 23.44L15.3788 23.0259L14.5318 20.9176Z" fill="#5E501C"/>
</g>
<mask id="mask1_1_327" style="mask-type:luminance" maskUnits="userSpaceOnUse" x="0" y="2" width="33" height="29">
<path d="M32.0188 2H-7.62939e-06V30.1788H32.0188V2Z" fill="white"/>
</mask>
<g mask="url(#mask1_1_327)">
<path d="M4.15999 25.3412C5.57453 23.5423 7.29494 22.0066 9.24235 20.8047C10.0057 20.4051 10.8504 20.1854 11.7118 20.1626C12.5731 20.1397 13.4283 20.3143 14.2118 20.6729C15.1535 21.1078 16.2284 21.1552 17.2047 20.8047C18.4789 20.4942 19.791 20.3674 21.1012 20.4282C21.6439 20.4439 22.1584 20.674 22.5318 21.0682C22.6823 21.3318 21.1012 22.3482 19.8023 22.3482C20.0471 22.8941 24.3576 21.84 24.8659 21.84L28.2165 21.4071C29.2518 21.2753 31.2094 21.1435 31.9812 22.0471C32.0455 22.1689 32.0791 22.3046 32.0791 22.4424C32.0791 22.5801 32.0455 22.7158 31.9812 22.8376C31.9812 23.2141 31.5859 23.0823 31.3412 23.2141C30.1162 23.7347 28.8587 24.1748 27.5765 24.5318C21.3271 26.0941 20.6682 26.8847 13.8918 26.8847C12.7424 26.8574 11.6076 27.1468 10.6116 27.7211C9.61563 28.2955 8.7968 29.1327 8.2447 30.1412H-0.0188293C1.67529 28.0706 2.46588 27.5623 4.15999 25.3412Z" fill="#BDB295"/>
</g>
</g>
<defs>
<clipPath id="clip0_1_327">
<rect width="32" height="32" fill="white"/>
</clipPath>
</defs>
</svg>
