<svg xmlns="http://www.w3.org/2000/svg" xmlns:xlink="http://www.w3.org/1999/xlink" viewBox="0 0 15.06 17.02">
  <defs>
    <clipPath id="clip-path" transform="translate(0 0)">
      <rect class="cls-1" width="15.06" height="17.02"/>
    </clipPath>
  </defs>
  <style>.cls-1{fill:none;}.cls-2{clip-path:url(#clip-path);}.cls-3{fill:#6c7e0a;}.cls-4{fill:#ced5a2;}</style>
  <title>climate</title>
  <g id="Layer_2" data-name="Layer 2">
    <g id="Layer_1-2" data-name="Layer 1">
      <g class="cls-2">
        <path class="cls-3" d="M.13,9.41h0A4.89,4.89,0,0,1,.8,6.9C2.31,4.2,6.11,3.53,9.27,5.31L8.46,6.66,15,6,12.32,0l-.76,1.32A7.72,7.72,0,0,0,1,4.18,7.61,7.61,0,0,0,.13,9.41" transform="translate(0 0)"/>
      </g>
      <g class="cls-2">
        <path class="cls-4" d="M14.93,7.63a5,5,0,0,1-.62,2.48c-1.56,2.67-5.37,3.37-8.5,1.59l.78-1.35L0,11l2.72,6,.76-1.29A7.72,7.72,0,0,0,14,12.87a7.48,7.48,0,0,0,.92-5.24" transform="translate(0 0)"/>
      </g>
    </g>
  </g>
</svg>
