<svg xmlns="http://www.w3.org/2000/svg" xmlns:xlink="http://www.w3.org/1999/xlink" viewBox="0 0 12.93 17.17"><defs><style>.cls-1{fill:none;}.cls-2{clip-path:url(#clip-path);}.cls-3{fill:#9b3c8c;}.cls-4{fill:#c9a1c7;}.cls-5{fill:#1a171b;}</style><clipPath id="clip-path"><rect class="cls-1" width="12.93" height="17.17"/></clipPath></defs><title>energy</title><g id="Layer_2" data-name="Layer 2"><g id="Layer_1-2" data-name="Layer 1"><g class="cls-2"><path class="cls-3" d="M8.26,8.44l0-.09a.86.86,0,0,1-.39,0l-.23,8h.88Z"/></g><g class="cls-2"><path class="cls-3" d="M7.68,7.37A.39.39,0,0,1,8,7.14a3.65,3.65,0,0,1,0-.47.87.87,0,0,0-.7.53l0,.1.45.11s0,0,0,0"/></g><g class="cls-2"><path class="cls-3" d="M8.29,7.21a.4.4,0,0,1,.12.46s0,0,0,0l.4.23a.59.59,0,0,0,0-.08.86.86,0,0,0-.23-1c-.12.14-.23.25-.32.34"/></g><g class="cls-2"><path class="cls-3" d="M8.23,8.35c-.06-.17-.11-.32-.14-.44a.47.47,0,0,1-.2,0,.55.55,0,0,1-.18-.16L7.31,8a.89.89,0,0,0,.41.35l.12,0a.86.86,0,0,0,.39,0"/></g><g class="cls-2"><path class="cls-3" d="M8,7.13a.49.49,0,0,1,.24,0,.33.33,0,0,1,.1.06c.09-.09.2-.2.32-.34a9.93,9.93,0,0,0,1.7-2.8A13.18,13.18,0,0,0,11.05,0,12.82,12.82,0,0,0,8.66,3.57,8.19,8.19,0,0,0,8,6.67c0,.18,0,.34,0,.46"/></g><g class="cls-2"><path class="cls-4" d="M8.09,7.91c0,.12.08.27.14.44l0,.09a10.19,10.19,0,0,0,1.53,2.78,13.09,13.09,0,0,0,3.14,2.69A12.81,12.81,0,0,0,11,10.05,8.53,8.53,0,0,0,8.8,7.92a3.58,3.58,0,0,0-.4-.23.42.42,0,0,1-.31.22"/></g><g class="cls-2"><path class="cls-4" d="M0,8.55a12.67,12.67,0,0,0,4.29.31,8.22,8.22,0,0,0,3-.9,4.34,4.34,0,0,0,.4-.23.43.43,0,0,1,0-.33l-.45-.11a9.94,9.94,0,0,0-3.32-.1A13.19,13.19,0,0,0,0,8.55"/></g><g class="cls-2"><path class="cls-5" d="M8.4,7.68v0a.39.39,0,0,0-.12-.45l-.1-.06a.49.49,0,0,0-.24,0,.4.4,0,0,0-.27.24s0,0,0,0a.38.38,0,0,0,0,.33.43.43,0,0,0,.18.15.46.46,0,0,0,.2,0,.41.41,0,0,0,.31-.23"/></g><polygon class="cls-3" points="8.49 16.38 7.61 16.38 4.07 16.38 4.07 17.17 7.59 17.17 8.51 17.17 12.1 17.17 12.1 16.38 8.49 16.38"/></g></g></svg>