<svg width="32" height="32" viewBox="0 0 32 32" fill="none" xmlns="http://www.w3.org/2000/svg">
<mask id="mask0_1_316" style="mask-type:luminance" maskUnits="userSpaceOnUse" x="0" y="4" width="32" height="25">
<path d="M32 4H0V28.6565H32V4Z" fill="white"/>
</mask>
<g mask="url(#mask0_1_316)">
<path d="M19.0566 13.9332V12.3425C19.0486 12.0778 18.949 11.8237 18.7741 11.622C18.5992 11.4203 18.3594 11.283 18.0943 11.2326L16.3018 10.8997C16.2075 10.6223 16.0566 10.3818 15.9622 10.1598L16.9811 8.66157C17.149 8.44781 17.2269 8.17909 17.1989 7.9107C17.1708 7.64231 17.0388 7.39469 16.8301 7.2188L15.7169 6.14598C15.6008 6.04085 15.4637 5.96032 15.3144 5.9094C15.1651 5.85848 15.0066 5.83827 14.849 5.85003C14.6322 5.84851 14.4184 5.89933 14.2264 5.998L12.6792 7.01534C12.4357 6.8747 12.176 6.76293 11.9056 6.68239L11.5094 4.92518C11.4649 4.66708 11.3288 4.4327 11.1251 4.26346C10.9213 4.09423 10.6632 4.00103 10.3962 4.00033H8.75466C8.47267 3.98227 8.19376 4.06655 7.97107 4.2371C7.74838 4.40766 7.59748 4.65257 7.54712 4.92518L7.20749 6.6454C6.93709 6.72593 6.6774 6.8377 6.43391 6.97834L4.88674 5.96101C4.6832 5.88034 4.46464 5.84253 4.24523 5.85003C4.09071 5.84488 3.93684 5.87189 3.79374 5.92928C3.65065 5.98667 3.52158 6.07313 3.41504 6.18297L2.24523 7.2558C2.05746 7.44417 1.94032 7.68935 1.9129 7.95135C1.88549 8.21336 1.94943 8.47674 2.09429 8.69856L3.11315 10.1968C3.11315 10.4373 2.92448 10.6592 2.83014 10.9367L0.943343 11.2696C0.679713 11.323 0.441834 11.4612 0.267492 11.6623C0.0931489 11.8634 -0.00765946 12.1158 -0.0189209 12.3795V13.9702C-0.0135987 14.2434 0.089457 14.506 0.272241 14.7122C0.455025 14.9185 0.705916 15.0552 0.981079 15.0985L2.86787 15.4315C2.96221 15.7089 3.05655 15.9494 3.15089 16.1713L2.13202 17.6511C1.99042 17.874 1.92841 18.1366 1.95573 18.3978C1.98306 18.659 2.09817 18.9038 2.28297 19.0939L3.45278 20.1667C3.55506 20.2842 3.68244 20.3783 3.8259 20.4422C3.96935 20.5061 4.12539 20.5384 4.28297 20.5366C4.53035 20.5327 4.76934 20.4481 4.96221 20.2962L6.50938 19.3158C6.75674 19.4489 7.01561 19.5603 7.28297 19.6488L7.54712 21.3135C7.59671 21.5795 7.74209 21.8192 7.9568 21.9889C8.1715 22.1587 8.44125 22.2472 8.71693 22.2384H10.3584C10.6254 22.2377 10.8836 22.1445 11.0873 21.9752C11.291 21.806 11.4271 21.5716 11.4716 21.3135L11.8679 19.5933C12.1383 19.5128 12.398 19.401 12.6415 19.2603L14.1886 20.2407C14.3618 20.3886 14.5817 20.4735 14.8113 20.4811C15.1385 20.4727 15.4497 20.34 15.6792 20.1112L16.7924 19.0384C17.003 18.8651 17.1393 18.6205 17.1742 18.3531C17.2092 18.0858 17.1402 17.8154 16.9811 17.5956L15.9622 16.1159C15.9622 15.8754 16.2075 15.6534 16.3018 15.376L18.0943 15.0985C18.3565 15.0422 18.5926 14.9032 18.7664 14.7027C18.9402 14.5023 19.0421 14.2514 19.0566 13.9887M13.7169 13.2488C13.6625 14.089 13.346 14.8925 12.8103 15.5504C12.2746 16.2084 11.5455 16.689 10.7218 16.9272C9.89818 17.1654 9.01974 17.1497 8.20551 16.8821C7.39129 16.6146 6.68061 16.1082 6.16976 15.4315C6.08801 15.3527 6.02377 15.2583 5.98108 15.154C5.56955 14.532 5.35308 13.8053 5.35844 13.0639C5.39298 11.9992 5.8539 10.9907 6.6414 10.2568C7.4289 9.52281 8.4796 9.1225 9.56599 9.14249C10.1747 9.1446 10.7759 9.27445 11.3292 9.52331C11.8824 9.77217 12.3749 10.1343 12.7735 10.5853C13.3849 11.3019 13.7249 12.2037 13.7358 13.1378V13.2488H13.7169ZM10.9056 11.917C11.1843 12.2573 11.3313 12.6831 11.3207 13.1193C11.343 13.3346 11.343 13.5515 11.3207 13.7667C11.2033 14.0538 11.0144 14.3074 10.7712 14.5044C10.528 14.7014 10.2383 14.8355 9.92862 14.8943C9.61893 14.9532 9.29912 14.935 8.99844 14.8415C8.69777 14.7479 8.42583 14.5819 8.20749 14.3586C8.13813 14.2705 8.07508 14.1778 8.01882 14.0812C7.80336 13.7975 7.68453 13.4545 7.67919 13.1009C7.67919 12.6103 7.87798 12.1398 8.23182 11.7929C8.58566 11.446 9.06558 11.2512 9.56599 11.2512C10.075 11.2885 10.5551 11.4977 10.9245 11.8431" fill="#F4B5D0"/>
</g>
<mask id="mask1_1_316" style="mask-type:luminance" maskUnits="userSpaceOnUse" x="0" y="4" width="32" height="25">
<path d="M32 4H0V28.6565H32V4Z" fill="white"/>
</mask>
<g mask="url(#mask1_1_316)">
<path d="M31.5472 22.2565L30.3396 21.7016C30.3396 21.5166 30.3396 21.3317 30.3396 21.1467L31.3019 20.2588C31.4588 20.1441 31.5655 19.9754 31.6005 19.7866C31.6355 19.5978 31.5963 19.403 31.4906 19.2415L30.8679 18.2612C30.7633 18.0991 30.6047 17.9774 30.419 17.9167C30.2334 17.856 30.032 17.8601 29.8491 17.9282L28.5849 18.3536C28.4306 18.2301 28.2666 18.1188 28.0944 18.0207V16.7259C28.1085 16.5372 28.0536 16.3498 27.9395 16.1973C27.8254 16.0447 27.6595 15.937 27.4717 15.8935L26.4151 15.6716C26.1913 15.624 25.9597 15.624 25.7359 15.6716C25.5995 15.7578 25.4991 15.889 25.4528 16.0415L24.8679 17.2068C24.6734 17.1891 24.4776 17.1891 24.283 17.2068L23.3585 16.282C23.2301 16.1321 23.0518 16.0314 22.8551 15.9975C22.6584 15.9637 22.4559 15.9989 22.283 16.097L21.2642 16.7074C21.0975 16.8042 20.9717 16.9562 20.9094 17.136C20.8471 17.3158 20.8525 17.5115 20.9245 17.6878L21.3585 18.8901C21.2247 19.0148 21.1102 19.1582 21.0189 19.3155H19.6604C19.5816 19.3102 19.5026 19.3205 19.428 19.346C19.3534 19.3714 19.2848 19.4114 19.2264 19.4635C19.1128 19.5028 19.0123 19.5718 18.9358 19.6631C18.8593 19.7544 18.8097 19.8645 18.7925 19.9814L18.5472 21.0542C18.4978 21.2338 18.5142 21.4246 18.5935 21.5936C18.6728 21.7626 18.8099 21.899 18.9812 21.9791L20.1887 22.534C20.1706 22.7185 20.1706 22.9043 20.1887 23.0889L19.2264 23.9212C19.0688 24.0481 18.963 24.2262 18.9284 24.4232C18.8937 24.6202 18.9326 24.8228 19.0378 24.9941L19.6604 25.9189C19.7565 26.0903 19.9124 26.222 20.0995 26.29C20.2866 26.3579 20.4924 26.3575 20.6793 26.2889L21.9434 25.8634C22.1013 25.9568 22.247 26.0686 22.3774 26.1964V27.4912C22.3664 27.6835 22.4304 27.8728 22.5566 28.0205C22.6827 28.1682 22.8615 28.2633 23.0566 28.2865L24.1698 28.564C24.3821 28.6011 24.6009 28.5686 24.7925 28.4715C24.9405 28.4009 25.0601 28.2837 25.1321 28.1386L25.717 26.9178C25.911 26.9451 26.1079 26.9451 26.3019 26.9178L27.1698 27.8426C27.303 28.003 27.4901 28.1116 27.6976 28.1488C27.9051 28.1861 28.1194 28.1497 28.3019 28.0461L29.2642 27.4912C29.4355 27.3977 29.5686 27.249 29.6408 27.0703C29.7131 26.8916 29.72 26.694 29.6604 26.5108L29.2264 25.29C29.3298 25.1291 29.4432 24.9747 29.5661 24.8276H30.9245C30.9916 24.8617 31.066 24.8794 31.1415 24.8794C31.217 24.8794 31.2915 24.8617 31.3585 24.8276C31.5511 24.7087 31.6922 24.5243 31.7547 24.3097L32.0378 23.2369C32.0904 23.0647 32.0773 22.8796 32.0009 22.7162C31.9245 22.5529 31.79 22.4223 31.6227 22.349M26.8302 24.6796C26.4377 24.9255 25.9887 25.0713 25.524 25.1036C25.0593 25.1359 24.5938 25.0537 24.1698 24.8646C24.1336 24.8627 24.0981 24.8535 24.0657 24.8376C24.0332 24.8217 24.0044 24.7994 23.9812 24.7721C23.4314 24.5154 22.9669 24.1114 22.6415 23.6068C22.2508 22.9416 22.1445 22.1518 22.3461 21.41C22.5476 20.6683 23.0405 20.0349 23.717 19.6484C24.088 19.4388 24.5003 19.3089 24.9265 19.2675C25.3526 19.226 25.7829 19.2739 26.1887 19.408C26.8782 19.609 27.4646 20.0584 27.8302 20.6658C27.8186 20.6888 27.8125 20.7141 27.8125 20.7398C27.8125 20.7654 27.8186 20.7908 27.8302 20.8137C28.15 21.4571 28.2111 22.1948 28.0014 22.8803C27.7916 23.5657 27.3264 24.1487 26.6981 24.5131M26.5095 21.8496C26.5292 22.1024 26.4822 22.356 26.3732 22.586C26.2642 22.816 26.0967 23.0146 25.8868 23.1629C25.5678 23.3455 25.1886 23.3986 24.8302 23.3108C24.8302 23.3108 24.6793 23.3108 24.6415 23.2184C24.4007 23.1303 24.1955 22.968 24.0566 22.7559C23.9517 22.6095 23.8793 22.443 23.8443 22.2673C23.8093 22.0917 23.8123 21.9107 23.8532 21.7363C23.8942 21.5619 23.972 21.3978 24.0819 21.2548C24.1917 21.1118 24.3309 20.993 24.4906 20.9062C24.6512 20.8135 24.8296 20.7541 25.0146 20.7318C25.1996 20.7096 25.3873 20.7248 25.5661 20.7768C25.8857 20.8602 26.1618 21.0582 26.3396 21.3317C26.4137 21.4726 26.4707 21.6216 26.5095 21.7756" fill="#E2007A"/>
</g>
</svg>
