<svg width="32" height="25" viewBox="0 0 32 25" fill="none" xmlns="http://www.w3.org/2000/svg">
<mask id="mask0_512_864" style="mask-type:luminance" maskUnits="userSpaceOnUse" x="0" y="0" width="32" height="25">
<path d="M32 0H0V24.6565H32V0Z" fill="white"/>
</mask>
<g mask="url(#mask0_512_864)">
<path d="M19.0566 9.93321V8.34247C19.0486 8.07783 18.949 7.82374 18.7741 7.62201C18.5992 7.42029 18.3594 7.28297 18.0943 7.23265L16.3018 6.8997C16.2075 6.62225 16.0566 6.38179 15.9622 6.15982L16.9811 4.66157C17.149 4.44781 17.2269 4.17909 17.1989 3.9107C17.1708 3.64231 17.0388 3.39469 16.8301 3.2188L15.7169 2.14598C15.6008 2.04085 15.4637 1.96032 15.3144 1.9094C15.1651 1.85848 15.0066 1.83827 14.849 1.85003C14.6322 1.84851 14.4184 1.89933 14.2264 1.998L12.6792 3.01534C12.4357 2.8747 12.176 2.76293 11.9056 2.68239L11.5094 0.925176C11.4649 0.667075 11.3288 0.4327 11.1251 0.263465C10.9213 0.0942302 10.6632 0.00102773 10.3962 0.000326061H8.75466C8.47267 -0.017733 8.19376 0.0665451 7.97107 0.237102C7.74838 0.407659 7.59748 0.652572 7.54712 0.925176L7.20749 2.6454C6.93709 2.72593 6.6774 2.8377 6.43391 2.97834L4.88674 1.96101C4.6832 1.88034 4.46464 1.84253 4.24523 1.85003C4.09071 1.84488 3.93684 1.87189 3.79374 1.92928C3.65065 1.98667 3.52158 2.07313 3.41504 2.18297L2.24523 3.2558C2.05746 3.44417 1.94032 3.68935 1.9129 3.95135C1.88549 4.21336 1.94943 4.47674 2.09429 4.69856L3.11315 6.19682C3.11315 6.43728 2.92448 6.65924 2.83014 6.9367L0.943343 7.26964C0.679713 7.32302 0.441834 7.46122 0.267492 7.6623C0.0931489 7.86337 -0.00765946 8.11579 -0.0189209 8.37946V9.97021C-0.0135987 10.2434 0.089457 10.506 0.272241 10.7122C0.455025 10.9185 0.705916 11.0552 0.981079 11.0985L2.86787 11.4315C2.96221 11.7089 3.05655 11.9494 3.15089 12.1713L2.13202 13.6511C1.99042 13.874 1.92841 14.1366 1.95573 14.3978C1.98306 14.659 2.09817 14.9038 2.28297 15.0939L3.45278 16.1667C3.55506 16.2842 3.68244 16.3783 3.8259 16.4422C3.96935 16.5061 4.12539 16.5384 4.28297 16.5366C4.53035 16.5327 4.76934 16.4481 4.96221 16.2962L6.50938 15.3158C6.75674 15.4489 7.01561 15.5603 7.28297 15.6488L7.54712 17.3135C7.59671 17.5795 7.74209 17.8192 7.9568 17.9889C8.1715 18.1587 8.44125 18.2472 8.71693 18.2384H10.3584C10.6254 18.2377 10.8836 18.1445 11.0873 17.9752C11.291 17.806 11.4271 17.5716 11.4716 17.3135L11.8679 15.5933C12.1383 15.5128 12.398 15.401 12.6415 15.2603L14.1886 16.2407C14.3618 16.3886 14.5817 16.4735 14.8113 16.4811C15.1385 16.4727 15.4497 16.34 15.6792 16.1112L16.7924 15.0384C17.003 14.8651 17.1393 14.6205 17.1742 14.3531C17.2092 14.0858 17.1402 13.8154 16.9811 13.5956L15.9622 12.1159C15.9622 11.8754 16.2075 11.6534 16.3018 11.376L18.0943 11.0985C18.3565 11.0422 18.5926 10.9032 18.7664 10.7027C18.9402 10.5023 19.0421 10.2514 19.0566 9.9887M13.7169 9.24882C13.6625 10.089 13.346 10.8925 12.8103 11.5504C12.2746 12.2084 11.5455 12.689 10.7218 12.9272C9.89818 13.1654 9.01974 13.1497 8.20551 12.8821C7.39129 12.6146 6.68061 12.1082 6.16976 11.4315C6.08801 11.3527 6.02377 11.2583 5.98108 11.154C5.56955 10.532 5.35308 9.80527 5.35844 9.06385C5.39298 7.99918 5.8539 6.99068 6.6414 6.25675C7.4289 5.52281 8.4796 5.1225 9.56599 5.14249C10.1747 5.1446 10.7759 5.27445 11.3292 5.52331C11.8824 5.77217 12.3749 6.13426 12.7735 6.58526C13.3849 7.30188 13.7249 8.20365 13.7358 9.13784V9.24882H13.7169ZM10.9056 7.91704C11.1843 8.25726 11.3313 8.68312 11.3207 9.11934C11.343 9.33459 11.343 9.5515 11.3207 9.76674C11.2033 10.0538 11.0144 10.3074 10.7712 10.5044C10.528 10.7014 10.2383 10.8355 9.92862 10.8943C9.61893 10.9532 9.29912 10.935 8.99844 10.8415C8.69777 10.7479 8.42583 10.5819 8.20749 10.3586C8.13813 10.2705 8.07508 10.1778 8.01882 10.0812C7.80336 9.7975 7.68453 9.45449 7.67919 9.10085C7.67919 8.61028 7.87798 8.1398 8.23182 7.79291C8.58566 7.44603 9.06558 7.25115 9.56599 7.25115C10.075 7.28854 10.5551 7.49771 10.9245 7.84305" fill="#F4B5D0"/>
</g>
<mask id="mask1_512_864" style="mask-type:luminance" maskUnits="userSpaceOnUse" x="0" y="0" width="32" height="25">
<path d="M32 0H0V24.6565H32V0Z" fill="white"/>
</mask>
<g mask="url(#mask1_512_864)">
<path d="M31.5472 18.2565L30.3396 17.7016C30.3396 17.5166 30.3396 17.3317 30.3396 17.1467L31.3019 16.2588C31.4588 16.1441 31.5655 15.9754 31.6005 15.7866C31.6355 15.5978 31.5963 15.403 31.4906 15.2415L30.8679 14.2612C30.7633 14.0991 30.6047 13.9774 30.419 13.9167C30.2334 13.856 30.032 13.8601 29.8491 13.9282L28.5849 14.3536C28.4306 14.2301 28.2666 14.1188 28.0944 14.0207V12.7259C28.1085 12.5372 28.0536 12.3498 27.9395 12.1973C27.8254 12.0447 27.6595 11.937 27.4717 11.8935L26.4151 11.6716C26.1913 11.624 25.9597 11.624 25.7359 11.6716C25.5995 11.7578 25.4991 11.889 25.4528 12.0415L24.8679 13.2068C24.6734 13.1891 24.4776 13.1891 24.283 13.2068L23.3585 12.282C23.2301 12.1321 23.0518 12.0314 22.8551 11.9975C22.6584 11.9637 22.4559 11.9989 22.283 12.097L21.2642 12.7074C21.0975 12.8042 20.9717 12.9562 20.9094 13.136C20.8471 13.3158 20.8525 13.5115 20.9245 13.6878L21.3585 14.8901C21.2247 15.0148 21.1102 15.1582 21.0189 15.3155H19.6604C19.5816 15.3102 19.5026 15.3205 19.428 15.346C19.3534 15.3714 19.2848 15.4114 19.2264 15.4635C19.1128 15.5028 19.0123 15.5718 18.9358 15.6631C18.8593 15.7544 18.8097 15.8645 18.7925 15.9814L18.5472 17.0542C18.4978 17.2338 18.5142 17.4246 18.5935 17.5936C18.6728 17.7626 18.8099 17.899 18.9812 17.9791L20.1887 18.534C20.1706 18.7185 20.1706 18.9043 20.1887 19.0889L19.2264 19.9212C19.0688 20.0481 18.963 20.2262 18.9284 20.4232C18.8937 20.6202 18.9326 20.8228 19.0378 20.9941L19.6604 21.9189C19.7565 22.0903 19.9124 22.222 20.0995 22.29C20.2866 22.3579 20.4924 22.3575 20.6793 22.2889L21.9434 21.8634C22.1013 21.9568 22.247 22.0686 22.3774 22.1964V23.4912C22.3664 23.6835 22.4304 23.8728 22.5566 24.0205C22.6827 24.1682 22.8615 24.2633 23.0566 24.2865L24.1698 24.564C24.3821 24.6011 24.6009 24.5686 24.7925 24.4715C24.9405 24.4009 25.0601 24.2837 25.1321 24.1386L25.717 22.9178C25.911 22.9451 26.1079 22.9451 26.3019 22.9178L27.1698 23.8426C27.303 24.003 27.4901 24.1116 27.6976 24.1488C27.9051 24.1861 28.1194 24.1497 28.3019 24.0461L29.2642 23.4912C29.4355 23.3977 29.5686 23.249 29.6408 23.0703C29.7131 22.8916 29.72 22.694 29.6604 22.5108L29.2264 21.29C29.3298 21.1291 29.4432 20.9747 29.5661 20.8276H30.9245C30.9916 20.8617 31.066 20.8794 31.1415 20.8794C31.217 20.8794 31.2915 20.8617 31.3585 20.8276C31.5511 20.7087 31.6922 20.5243 31.7547 20.3097L32.0378 19.2369C32.0904 19.0647 32.0773 18.8796 32.0009 18.7162C31.9245 18.5529 31.79 18.4223 31.6227 18.349M26.8302 20.6796C26.4377 20.9255 25.9887 21.0713 25.524 21.1036C25.0593 21.1359 24.5938 21.0537 24.1698 20.8646C24.1336 20.8627 24.0981 20.8535 24.0657 20.8376C24.0332 20.8217 24.0044 20.7994 23.9812 20.7721C23.4314 20.5154 22.9669 20.1114 22.6415 19.6068C22.2508 18.9416 22.1445 18.1518 22.3461 17.41C22.5476 16.6683 23.0405 16.0349 23.717 15.6484C24.088 15.4388 24.5003 15.3089 24.9265 15.2675C25.3526 15.226 25.7829 15.2739 26.1887 15.408C26.8782 15.609 27.4646 16.0584 27.8302 16.6658C27.8186 16.6888 27.8125 16.7141 27.8125 16.7398C27.8125 16.7654 27.8186 16.7908 27.8302 16.8137C28.15 17.4571 28.2111 18.1948 28.0014 18.8803C27.7916 19.5657 27.3264 20.1487 26.6981 20.5131M26.5095 17.8496C26.5292 18.1024 26.4822 18.356 26.3732 18.586C26.2642 18.816 26.0967 19.0146 25.8868 19.1629C25.5678 19.3455 25.1886 19.3986 24.8302 19.3108C24.8302 19.3108 24.6793 19.3108 24.6415 19.2184C24.4007 19.1303 24.1955 18.968 24.0566 18.7559C23.9517 18.6095 23.8793 18.443 23.8443 18.2673C23.8093 18.0917 23.8123 17.9107 23.8532 17.7363C23.8942 17.5619 23.972 17.3978 24.0819 17.2548C24.1917 17.1118 24.3309 16.993 24.4906 16.9062C24.6512 16.8135 24.8296 16.7541 25.0146 16.7318C25.1996 16.7096 25.3873 16.7248 25.5661 16.7768C25.8857 16.8602 26.1618 17.0582 26.3396 17.3317C26.4137 17.4726 26.4707 17.6216 26.5095 17.7756" fill="#E2007A"/>
</g>
</svg>
