<svg width="32" height="32" viewBox="0 0 32 32" fill="none" xmlns="http://www.w3.org/2000/svg">
<g clip-path="url(#clip0_1_396)">
<mask id="mask0_1_396" style="mask-type:luminance" maskUnits="userSpaceOnUse" x="0" y="0" width="32" height="32">
<path d="M32 0H0V32H32V0Z" fill="white"/>
</mask>
<g mask="url(#mask0_1_396)">
<path d="M-2.56593e-06 15.9906C0.199265 11.8838 1.97097 8.01109 4.94796 5.17505C7.92494 2.33901 11.879 0.757072 15.9906 0.757072C20.1022 0.757072 24.0562 2.33901 27.0332 5.17505C30.0102 8.01109 31.7819 11.8838 31.9812 15.9906C31.9968 20.1278 30.3892 24.1061 27.5038 27.0711L20.6937 24.682V22.1235C21.4615 21.6957 22.1015 21.0711 22.5479 20.3139C22.9943 19.5568 23.2309 18.6943 23.2334 17.8154V8.40917C23.2136 7.1085 22.6804 5.8684 21.75 4.95921C20.8197 4.05002 19.5677 3.54547 18.2669 3.55555H13.7143C12.4071 3.55555 11.1534 4.07484 10.229 4.99919C9.30471 5.92353 8.78542 7.1772 8.78542 8.48442V17.8907C8.79026 18.7571 9.02429 19.6068 9.46373 20.3535C9.90318 21.1002 10.5324 21.7174 11.2875 22.1423V24.6443L4.40211 27.0523C1.56564 24.0691 -0.0111273 20.107 -2.56593e-06 15.9906Z" fill="#B3C2D1"/>
</g>
<mask id="mask1_1_396" style="mask-type:luminance" maskUnits="userSpaceOnUse" x="0" y="0" width="32" height="32">
<path d="M32 0H0V32H32V0Z" fill="white"/>
</mask>
<g mask="url(#mask1_1_396)">
<path d="M15.9906 31.9812C12.2024 32.0062 8.53102 30.6711 5.64374 28.2187L12.9053 25.6978V25.1334C12.9053 25.1334 12.9053 25.0206 12.9053 24.9641C12.9053 24.9077 12.9053 24.9641 12.9053 24.8513V21.1828L12.4538 20.9947C11.8152 20.7451 11.265 20.3115 10.8732 19.7488C10.4813 19.1862 10.2654 18.5198 10.2528 17.8342V8.42798C10.2666 7.64622 10.5461 6.89244 11.0453 6.29066C11.5445 5.68888 12.2336 5.27495 12.9994 5.11699C13.231 5.09753 13.4639 5.09753 13.6955 5.11699H18.2481C18.4792 5.08826 18.713 5.08826 18.9441 5.11699C19.7193 5.27702 20.4156 5.69925 20.9159 6.31259C21.4162 6.92594 21.6898 7.69293 21.6908 8.48442V17.8906C21.6923 18.5645 21.495 19.2238 21.1236 19.786C20.7521 20.3482 20.223 20.7883 19.6026 21.0511L19.1511 21.2393V24.8701C19.1511 24.8701 19.1511 24.9829 19.1511 25.0394V25.7731L26.3374 28.2187C23.4502 30.6711 19.7788 32.0062 15.9906 31.9812Z" fill="#227691"/>
</g>
</g>
<defs>
<clipPath id="clip0_1_396">
<rect width="32" height="32" fill="white"/>
</clipPath>
</defs>
</svg>
