<svg xmlns="http://www.w3.org/2000/svg" xmlns:xlink="http://www.w3.org/1999/xlink" viewBox="0 0 17.01 17.01"><defs><style>.cls-1{fill:none;}.cls-2{clip-path:url(#clip-path);}.cls-3{fill:#b3c2d1;}.cls-4{fill:#227691;}</style><clipPath id="clip-path"><rect class="cls-1" width="17.01" height="17.01"/></clipPath></defs><title>society</title><g id="Layer_2" data-name="Layer 2"><g id="Layer_1-2" data-name="Layer 1"><g class="cls-2"><path class="cls-3" d="M0,8.5a8.51,8.51,0,0,1,17,0,8.4,8.4,0,0,1-2.38,5.89L11,13.12V11.76a2.63,2.63,0,0,0,1.35-2.29v-5A2.62,2.62,0,0,0,9.71,1.89H7.29A2.62,2.62,0,0,0,4.67,4.51v5A2.61,2.61,0,0,0,6,11.77V13.1L2.34,14.38A8.5,8.5,0,0,1,0,8.5"/></g><g class="cls-2"><path class="cls-4" d="M8.5,17A8.41,8.41,0,0,1,3,15l3.86-1.34,0-.3s0-.06,0-.09,0,0,0-.06V11.26l-.24-.1A1.84,1.84,0,0,1,5.45,9.48v-5A1.83,1.83,0,0,1,6.91,2.72a2.21,2.21,0,0,1,.37,0H9.7a1.5,1.5,0,0,1,.37,0,1.83,1.83,0,0,1,1.46,1.79v5a1.82,1.82,0,0,1-1.11,1.68l-.24.1v1.93s0,.06,0,.09l0,.39L14,15A8.41,8.41,0,0,1,8.5,17"/></g></g></g></svg>