<svg width="30" height="27" class="medical-and-health-icon" viewBox="0 0 30 27" fill="none" xmlns="http://www.w3.org/2000/svg">
<mask id="mask0_512_844" style="mask-type:luminance" maskUnits="userSpaceOnUse" x="0" y="0" width="30" height="27">
<path d="M29.3002 0H0.457153V27H29.3002V0Z" fill="white"/>
</mask>
<g mask="url(#mask0_512_844)">
<path d="M6.66322 12.6471L8.47757 5.75495H10.0715L13.2254 17.7473L14.3784 13.2846L15.1754 12.6471H18.1937L20.008 5.75495H21.6019L23.3824 12.6471H28.6728C29.0424 11.4363 29.2311 10.1759 29.2324 8.9081C29.2708 7.76385 29.0844 6.62328 28.6841 5.55306C28.2837 4.48285 27.6775 3.50446 26.9007 2.67507C26.124 1.84568 25.1923 1.18193 24.1603 0.722622C23.1282 0.263312 22.0163 0.0176522 20.8897 0C19.7346 0.0175545 18.596 0.281193 17.5474 0.773878C16.4989 1.26656 15.5637 1.97733 14.8024 2.86024C14.0445 1.97312 13.11 1.25946 12.0607 0.766417C11.0113 0.27337 9.87099 0.0121471 8.71496 0C7.59125 0.0221739 6.48309 0.271162 5.45493 0.732482C4.42678 1.1938 3.49915 1.85825 2.726 2.68717C1.95285 3.5161 1.34962 4.49296 0.951375 5.56094C0.553134 6.62891 0.367837 7.7667 0.406263 8.9081C0.413051 10.1767 0.607394 11.4371 0.982785 12.6471H6.66322Z" fill="#E7A58C"/>
</g>
<mask id="mask1_512_844" style="mask-type:luminance" maskUnits="userSpaceOnUse" x="0" y="0" width="30" height="27">
<path d="M29.3002 0H0.457153V27H29.3002V0Z" fill="white"/>
</mask>
<g mask="url(#mask1_512_844)">
<path d="M22.8058 14.3529H28.0454C24.5354 21.9859 14.8532 27 14.8532 27C14.8532 27 5.20495 21.9859 1.69495 14.3529H7.34147L8.10451 13.7843L9.30842 9.32161L12.4623 21.2795H14.0563L15.8706 14.3873H18.8549L19.6519 13.7843L20.7541 9.25269L22.0089 13.7843L22.8058 14.3529Z" fill="#BF0D0D"/>
</g>
</svg>
