<svg width="32" height="32" viewBox="0 0 32 32" fill="none" xmlns="http://www.w3.org/2000/svg">
<mask id="mask0_1_347" style="mask-type:luminance" maskUnits="userSpaceOnUse" x="1" y="2" width="31" height="27">
<path d="M31.7659 2H1V29H31.7659V2Z" fill="white"/>
</mask>
<g mask="url(#mask0_1_347)">
<path d="M7.6198 14.6471L9.55511 7.75495H11.2553L14.6195 19.7473L15.8493 15.2846L16.6995 14.6471H19.919L21.8542 7.75495H23.5544L25.4536 14.6471H31.0967C31.4909 13.4363 31.6922 12.1759 31.6936 10.9081C31.7346 9.76385 31.5357 8.62328 31.1087 7.55306C30.6817 6.48285 30.035 5.50446 29.2065 4.67507C28.378 3.84568 27.3842 3.18193 26.2834 2.72262C25.1825 2.26331 23.9964 2.01765 22.7947 2C21.5626 2.01755 20.3481 2.28119 19.2296 2.77388C18.1112 3.26656 17.1137 3.97733 16.3016 4.86024C15.4932 3.97312 14.4964 3.25946 13.3771 2.76642C12.2578 2.27337 11.0414 2.01215 9.80833 2C8.6097 2.02217 7.42767 2.27116 6.33096 2.73248C5.23427 3.1938 4.2448 3.85825 3.4201 4.68717C2.59541 5.5161 1.95196 6.49296 1.52717 7.56094C1.10238 8.62891 0.904729 9.7667 0.945717 10.9081C0.952957 12.1767 1.16026 13.4371 1.56067 14.6471H7.6198Z" fill="#E7A58C"/>
</g>
<mask id="mask1_1_347" style="mask-type:luminance" maskUnits="userSpaceOnUse" x="1" y="2" width="31" height="27">
<path d="M31.7659 2H1V29H31.7659V2Z" fill="white"/>
</mask>
<g mask="url(#mask1_1_347)">
<path d="M24.8386 16.3529H30.4275C26.6835 23.9859 16.3558 29 16.3558 29C16.3558 29 6.06431 23.9859 2.32031 16.3529H8.34327L9.15718 15.7843L10.4413 11.3216L13.8055 23.2795H15.5058L17.441 16.3873H20.6243L21.4744 15.7843L22.6501 11.2527L23.9885 15.7843L24.8386 16.3529Z" fill="#BF0D0D"/>
</g>
</svg>
