<svg width="32" height="32" viewBox="0 0 32 32" fill="none" xmlns="http://www.w3.org/2000/svg">
<g clip-path="url(#clip0_1_358)">
<path d="M29.9782 24.0247C29.6024 24.4521 29.0926 24.771 28.5134 24.9417C27.7324 25.1605 26.9184 25.2718 26.0994 25.2718C24.987 25.245 23.8808 25.1159 22.7984 24.8866C23.0416 24.323 23.2482 23.7474 23.4172 23.1627C23.7992 21.8359 24.0818 20.488 24.2632 19.128C25.3952 18.3198 26.4638 17.4435 27.4612 16.5055C27.4612 16.6522 27.75 16.799 27.8532 16.9457C28.6448 17.8759 29.3356 18.8708 29.9164 19.9166C30.3228 20.6816 30.5544 21.5108 30.5972 22.3557C30.6248 22.9659 30.4052 23.5646 29.9782 24.043M21.5192 24.5749C20.8542 24.4188 20.1996 24.229 19.5591 24.0064C18.837 23.768 18.1562 23.5296 17.4959 23.2361C18.6788 22.6736 19.8549 22.0624 21.024 21.4021C21.643 21.0171 22.262 20.6318 22.819 20.2468C22.5856 21.7372 22.1704 23.2009 21.581 24.6116M20.962 25.987C20.382 27.1024 19.5699 28.1104 18.5688 28.958C18.1827 29.264 17.7525 29.523 17.2896 29.7282C16.8813 29.8914 16.4375 29.9728 15.9898 29.9666C15.5479 29.9813 15.1087 29.8996 14.7106 29.7282C13.8152 29.3404 13.0423 28.7605 12.4618 28.0411C11.8506 27.2562 11.3255 26.421 10.8938 25.5468C11.5957 25.4009 12.2852 25.2108 12.9569 24.9783C13.9985 24.6672 15.0123 24.2871 15.9898 23.8412C17.0008 24.318 18.053 24.7033 19.064 25.0884L21.1272 25.6569L20.9414 25.9504M9.8828 22.8693C9.65584 22.0073 9.4289 21.1454 9.26384 20.1367C9.8209 20.5218 10.4399 20.907 10.9969 21.2372C12.1729 21.9524 13.3489 22.5758 14.525 23.1995L12.3792 23.8412C11.7084 24.0763 11.0188 24.2663 10.3161 24.4098C10.0891 23.8964 9.90342 23.3828 9.6971 22.7959M5.90084 25.1801C5.06644 25.2073 4.23368 25.0953 3.44566 24.85C2.8581 24.6736 2.33686 24.3563 1.93953 23.933C1.55585 23.4587 1.35994 22.8846 1.38247 22.3008C1.40097 21.435 1.63341 20.5836 2.06332 19.8066C2.73042 18.5806 3.56922 17.4345 4.55978 16.3955V16.4872C5.56896 17.4165 6.65144 18.2807 7.79898 19.0731C8.00678 21.0126 8.45656 22.9255 9.14004 24.7765C8.08174 25.0231 6.9946 25.1584 5.90084 25.1801ZM7.63392 17.4592C6.86744 16.8842 6.13734 16.2719 5.44694 15.6252L5.6739 15.3868C6.32026 14.7914 7.00944 14.2339 7.73708 13.7179C7.73708 14.3415 7.63392 15.02 7.63392 15.6802C7.62872 16.2928 7.66316 16.9051 7.73708 17.5142M2.06332 11.2238C1.66563 10.4594 1.46139 9.62677 1.465 8.78462C1.429 8.18212 1.64177 7.58864 2.06332 7.11573C2.4449 6.69374 2.95262 6.37593 3.52818 6.19877C4.29632 5.98492 5.09594 5.87367 5.90084 5.86866C7.0132 5.8955 8.11946 6.02457 9.20194 6.25378C8.975 6.82231 8.80994 7.35415 8.58298 7.97769C8.22248 9.30585 7.96058 10.6537 7.79898 12.0124C6.65158 12.8181 5.58188 13.7076 4.60104 14.6716C4.42768 14.5384 4.2688 14.3911 4.1265 14.2314C3.30538 13.3062 2.61266 12.2963 2.06332 11.2238ZM10.3161 6.52887C10.935 6.71227 11.6571 6.91401 12.3792 7.15241C13.0895 7.35872 13.7795 7.61634 14.4424 7.92267C13.2733 8.48508 12.0973 9.09639 10.9144 9.75662C10.2954 10.1417 9.67648 10.5269 9.11942 10.912C9.38542 9.40932 9.79964 7.93035 10.3573 6.4922M10.9763 5.15342C11.5603 4.0299 12.3795 3.01541 13.3902 2.16409C13.7905 1.8482 14.2428 1.58845 14.7313 1.39384C15.1298 1.22395 15.5687 1.14216 16.0105 1.15543C16.458 1.15099 16.9013 1.2323 17.3103 1.39384C18.1861 1.7854 18.9379 2.36539 19.4972 3.08107C20.1226 3.83186 20.6488 4.64414 21.0652 5.50187C20.4464 5.68526 19.7861 5.887 19.0021 6.07038C18.2181 6.25378 16.9389 6.84064 15.9692 7.22578C14.9582 6.80396 13.906 6.41884 12.9569 6.07038L10.9763 5.50187C11.0086 5.40718 11.05 5.31515 11.1001 5.22677M22.1382 8.25278C22.365 9.05972 22.592 10.0867 22.757 10.9854C22.2 10.6002 21.643 10.2151 21.024 9.82997C19.8842 9.16521 18.7066 8.55308 17.4959 7.99604C18.2181 7.7026 18.8989 7.46418 19.5591 7.22578C20.2308 6.99321 20.9204 6.80322 21.6224 6.65724C21.7874 7.13408 22.0144 7.7026 22.1794 8.28946M23.1904 15.6252C23.1904 16.6339 23.1904 17.6426 23.0252 18.5963C22.1348 19.2601 21.1976 19.8725 20.2194 20.4302C18.8869 21.2256 17.5096 21.9602 16.093 22.6309C14.6735 21.9445 13.2961 21.1915 11.9666 20.3751C11.0175 19.8066 10.0685 19.1831 9.22258 18.5412C8.975 17.5509 8.87184 16.5055 8.87184 15.5886C8.87184 14.6716 8.87184 13.5345 9.03688 12.5625C9.94468 11.939 10.8319 11.3155 11.8428 10.7286C13.1663 9.93168 14.5444 9.20892 15.9692 8.56455C17.4204 9.1795 18.8022 9.91644 20.0956 10.7653C21.0542 11.3229 21.9708 11.9355 22.8396 12.5992C22.8396 13.5712 23.0046 14.4332 23.0046 15.5886M24.2838 13.7546C25.0678 14.4332 25.79 15.0567 26.347 15.5886L26.182 15.827C25.563 16.3588 24.9028 16.9273 24.1188 17.5142C24.1188 16.8906 24.1188 16.2121 24.1188 15.5886C24.1188 14.965 24.1188 14.2865 24.1188 13.7546M25.8518 6.08873C26.6692 6.06606 27.4852 6.16524 28.2658 6.38217C28.8534 6.55852 29.3746 6.87588 29.7718 7.29913C30.1556 7.77346 30.3514 8.34748 30.329 8.93134C30.2938 9.79506 30.0622 10.6435 29.6482 11.4255C29.0542 12.579 28.3136 13.6681 27.4404 14.6716H27.3374C26.383 13.7458 25.3558 12.8817 24.2632 12.0857C24.0362 10.144 23.5656 8.23092 22.8602 6.38217C23.9324 6.10777 25.0462 5.98402 26.1614 6.01538M28.3482 15.6436C28.5252 15.3973 28.7328 15.1697 28.9672 14.965C29.8364 13.9586 30.5898 12.8773 31.2162 11.7373C31.7006 10.8236 31.9674 9.8309 32.0002 8.8213C31.9988 7.99109 31.7028 7.18242 31.1542 6.51054C30.614 5.91646 29.9002 5.46599 29.091 5.20844C28.1552 4.92626 27.1698 4.79582 26.182 4.82331C24.8988 4.84471 23.621 4.97365 22.365 5.20844L22.1382 4.73161C21.5132 3.4432 20.6168 2.27291 19.4972 1.2838C19.0071 0.899394 18.4584 0.57835 17.8673 0.330151C16.6646 -0.11005 15.315 -0.11005 14.1123 0.330151C13.0359 0.800411 12.1126 1.50747 11.4302 2.38416C10.714 3.23979 10.131 4.17746 9.6971 5.17175C8.45518 4.89465 7.18118 4.74693 5.90084 4.73161C4.92628 4.70034 3.9537 4.83093 3.03302 5.11675C2.217 5.33323 1.49631 5.76884 0.969834 6.36382C0.377848 7.05086 0.0782202 7.90183 0.123928 8.76629C0.153808 9.7821 0.420786 10.7813 0.907938 11.7006C1.64631 13.0671 2.59026 14.3381 3.71386 15.4785C3.48692 15.7169 3.25996 15.9553 3.09492 16.1571C2.2053 17.1442 1.45042 18.2215 0.846042 19.3664C0.348924 20.2789 0.061354 21.2702 0.000136896 22.2825C-0.00731416 23.1138 0.28958 23.925 0.846042 24.5932C1.3878 25.186 2.1011 25.6361 2.90922 25.8953C3.84338 26.184 4.83008 26.3147 5.81832 26.2804C7.08282 26.2862 8.34352 26.157 9.57332 25.8953C9.65924 26.069 9.73498 26.2466 9.80026 26.4272C10.4186 27.6919 11.3167 28.8332 12.4411 29.7833C12.921 30.1941 13.4711 30.5346 14.0711 30.792C14.6707 31.0192 15.3174 31.1317 15.9692 31.122C16.6072 31.1276 17.2395 31.0153 17.8261 30.792C18.9325 30.3163 19.8946 29.6119 20.632 28.738C21.3254 27.8693 21.9066 26.9342 22.365 25.9504C23.5916 26.2388 24.8518 26.3988 26.12 26.4272C27.0644 26.4336 28.0018 26.2844 28.8848 25.987C29.7512 25.7337 30.5044 25.2416 31.0348 24.582C31.5654 23.9225 31.8456 23.1298 31.835 22.3191C31.809 21.2964 31.5196 20.2926 30.9892 19.3849C30.2804 18.0204 29.364 16.7493 28.2658 15.6069" fill="#26AD61"/>
<path d="M19.332 15.5885C19.2945 16.3393 18.9282 17.0473 18.3115 17.5613C17.6947 18.0752 16.8762 18.3545 16.0309 18.3394C15.1808 18.3506 14.3582 18.0715 13.7326 17.5598C13.107 17.048 12.726 16.3425 12.668 15.5885C12.6896 14.8118 13.0548 14.074 13.6843 13.535C14.3138 12.996 15.157 12.6993 16.0309 12.7092C16.4608 12.7044 16.8874 12.7751 17.2863 12.9174C17.6853 13.0597 18.0486 13.2708 18.3554 13.5384C18.6622 13.806 18.9065 14.1249 19.0741 14.4767C19.2417 14.8286 19.3294 15.2064 19.332 15.5885Z" fill="#7DCEA0"/>
</g>
<defs>
<clipPath id="clip0_1_358">
<rect width="32" height="32" fill="white"/>
</clipPath>
</defs>
</svg>
