<svg xmlns="http://www.w3.org/2000/svg" xmlns:xlink="http://www.w3.org/1999/xlink" viewBox="0 0 15.51 16.97"><defs><style>.cls-1{fill:none;}.cls-2{clip-path:url(#clip-path);}.cls-3{fill:#26ad61;}.cls-4{fill:#7dcea0;}</style><clipPath id="clip-path"><rect class="cls-1" x="0.01" width="15.5" height="16.97"/></clipPath></defs><title>research</title><g id="Layer_2" data-name="Layer 2"><g id="Layer_1-2" data-name="Layer 1"><g class="cls-2"><path class="cls-3" d="M14.53,13.1a1.5,1.5,0,0,1-.71.5,3.89,3.89,0,0,1-1.17.18,7.82,7.82,0,0,1-1.6-.21,8.61,8.61,0,0,0,.3-.94,16.9,16.9,0,0,0,.41-2.2A15.42,15.42,0,0,0,13.31,9c0,.08.14.16.19.24a10.08,10.08,0,0,1,1,1.62,3.48,3.48,0,0,1,.33,1.33,1.39,1.39,0,0,1-.3.92m-4.1.29a8.71,8.71,0,0,1-.95-.31c-.35-.13-.68-.26-1-.42q.86-.46,1.71-1c.3-.21.6-.42.87-.63a11.32,11.32,0,0,1-.6,2.38m-.3.75A5.32,5.32,0,0,1,9,15.79a2.83,2.83,0,0,1-.62.42,1.48,1.48,0,0,1-.63.13,1.31,1.31,0,0,1-.62-.13,2.91,2.91,0,0,1-1.09-.92,8.14,8.14,0,0,1-.76-1.36,7.4,7.4,0,0,0,1-.31A10.65,10.65,0,0,0,7.75,13c.49.26,1,.47,1.49.68l1,.31-.09.16M4.79,12.47c-.11-.47-.22-.94-.3-1.49.27.21.57.42.84.6.57.39,1.14.73,1.71,1.07L6,13a7,7,0,0,1-1,.31c-.11-.28-.2-.56-.3-.88M2.86,13.73a3.24,3.24,0,0,1-1.19-.18,1.63,1.63,0,0,1-.73-.5,1.44,1.44,0,0,1-.27-.89A3.22,3.22,0,0,1,1,10.8,8.81,8.81,0,0,1,2.21,8.94l0,.05A14.81,14.81,0,0,0,3.78,10.4a14.33,14.33,0,0,0,.65,3.11,6.79,6.79,0,0,1-1.57.22M3.7,9.52a13.18,13.18,0,0,1-1.06-1l.11-.13a10.42,10.42,0,0,1,1-.91c0,.34-.05.71-.05,1.07a8.71,8.71,0,0,0,.05,1M1,6.12A3.14,3.14,0,0,1,.71,4.79,1.35,1.35,0,0,1,1,3.88a1.57,1.57,0,0,1,.71-.5A3.94,3.94,0,0,1,2.86,3.2a7.82,7.82,0,0,1,1.6.21c-.11.31-.19.6-.3.94a17,17,0,0,0-.38,2.2A12.73,12.73,0,0,0,2.23,8,1.77,1.77,0,0,1,2,7.76,8,8,0,0,1,1,6.12m4-2.56c.3.1.65.21,1,.34a6.64,6.64,0,0,1,1,.42q-.85.46-1.71,1c-.3.21-.6.42-.87.63a14.14,14.14,0,0,1,.6-2.41m.3-.73A5.32,5.32,0,0,1,6.49,1.18,2.55,2.55,0,0,1,7.14.76,1.33,1.33,0,0,1,7.76.63a1.51,1.51,0,0,1,.63.13,2.85,2.85,0,0,1,1.06.92A6.64,6.64,0,0,1,10.21,3c-.3.1-.62.21-1,.31s-1,.42-1.47.63c-.49-.23-1-.44-1.46-.63L5.32,3a.94.94,0,0,1,.06-.15M10.73,4.5c.11.44.22,1,.3,1.49-.27-.21-.54-.42-.84-.63a19.24,19.24,0,0,0-1.71-1c.35-.16.68-.29,1-.42a7.4,7.4,0,0,1,1-.31c.08.26.19.57.27.89m.49,4c0,.55,0,1.1-.08,1.62a13.23,13.23,0,0,1-1.36,1,22.89,22.89,0,0,1-2,1.2,22.1,22.1,0,0,1-2-1.23c-.46-.31-.92-.65-1.33-1C4.35,9.57,4.3,9,4.3,8.5s0-1.12.08-1.65c.44-.34.87-.68,1.36-1a18.63,18.63,0,0,1,2-1.18,12.22,12.22,0,0,1,2,1.2,12.76,12.76,0,0,1,1.33,1c0,.53.08,1,.08,1.63m.62-1c.38.37.73.71,1,1l-.08.13c-.3.29-.62.6-1,.92,0-.34,0-.71,0-1.05s0-.71,0-1m.84-4.18a3.55,3.55,0,0,1,1.17.16,1.63,1.63,0,0,1,.73.5,1.44,1.44,0,0,1,.27.89,3.49,3.49,0,0,1-.33,1.36A9.05,9.05,0,0,1,13.3,8l-.05,0a14.41,14.41,0,0,0-1.49-1.41,14.28,14.28,0,0,0-.68-3.11,5.19,5.19,0,0,1,1.6-.2m1.06,5.25a2.11,2.11,0,0,1,.3-.37A10.35,10.35,0,0,0,15.13,6.4a4,4,0,0,0,.38-1.59,2.15,2.15,0,0,0-.41-1.26,2.27,2.27,0,0,0-1-.71,4,4,0,0,0-1.41-.21,9.89,9.89,0,0,0-1.85.21l-.11-.26A6,6,0,0,0,9.45.7,3.37,3.37,0,0,0,8.66.18a2.39,2.39,0,0,0-1.82,0A3.41,3.41,0,0,0,5.54,1.3,6.46,6.46,0,0,0,4.7,2.82a8,8,0,0,0-1.84-.24,3.8,3.8,0,0,0-1.39.21,2,2,0,0,0-1,.68A2,2,0,0,0,.06,4.78a4,4,0,0,0,.38,1.6A9.12,9.12,0,0,0,1.8,8.44c-.11.13-.22.26-.3.37A8.73,8.73,0,0,0,.41,10.56,4.16,4.16,0,0,0,0,12.15a2.09,2.09,0,0,0,.41,1.26,2.29,2.29,0,0,0,1,.71,3.84,3.84,0,0,0,1.41.21,7.65,7.65,0,0,0,1.82-.21,3,3,0,0,1,.11.29,5.61,5.61,0,0,0,1.28,1.83,3.05,3.05,0,0,0,.79.55,2.25,2.25,0,0,0,.92.18,2.23,2.23,0,0,0,.9-.18A3.73,3.73,0,0,0,10,15.67a7.75,7.75,0,0,0,.84-1.52,7.89,7.89,0,0,0,1.82.26A3.7,3.7,0,0,0,14,14.17a2.08,2.08,0,0,0,1.43-2,3.65,3.65,0,0,0-.41-1.6,8.94,8.94,0,0,0-1.32-2.06"/></g><g class="cls-2"><path class="cls-4" d="M9.37,8.5h0A1.57,1.57,0,0,1,7.77,10,1.61,1.61,0,0,1,6.14,8.5,1.61,1.61,0,0,1,7.77,6.93,1.58,1.58,0,0,1,9.37,8.5"/></g></g></g></svg>