<svg width="16" height="18" viewBox="0 0 16 18" fill="none" xmlns="http://www.w3.org/2000/svg">
<path d="M14.9891 13.5139C14.8012 13.7543 14.5463 13.9337 14.2567 14.0297C13.8662 14.1528 13.4592 14.2154 13.0497 14.2154C12.4935 14.2003 11.9404 14.1277 11.3992 13.9987C11.5208 13.6817 11.6241 13.3579 11.7086 13.029C11.8996 12.2827 12.0409 11.5245 12.1316 10.7595C12.6976 10.3049 13.2319 9.81199 13.7306 9.28436C13.7306 9.36688 13.875 9.44941 13.9266 9.53194C14.3224 10.0552 14.6678 10.6148 14.9582 11.2031C15.1614 11.6334 15.2772 12.0998 15.2986 12.5751C15.3124 12.9183 15.2026 13.2551 14.9891 13.5242M10.7596 13.8234C10.4271 13.7356 10.0998 13.6288 9.77957 13.5036C9.41851 13.3695 9.07808 13.2354 8.74797 13.0703C9.33942 12.7539 9.92743 12.4101 10.512 12.0387C10.8215 11.8221 11.131 11.6054 11.4095 11.3888C11.2928 12.2272 11.0852 13.0505 10.7905 13.844M10.481 14.6177C10.191 15.2451 9.78497 15.8121 9.2844 16.2889C9.09134 16.461 8.87626 16.6067 8.64481 16.7221C8.44063 16.8139 8.21876 16.8597 7.99491 16.8562C7.77395 16.8645 7.55434 16.8185 7.35532 16.7221C6.90758 16.504 6.52116 16.1778 6.23089 15.7731C5.9253 15.3316 5.66276 14.8618 5.44688 14.3701C5.79786 14.288 6.14259 14.1811 6.47847 14.0503C6.99923 13.8753 7.50613 13.6615 7.99491 13.4107C8.50039 13.6789 9.0265 13.8956 9.53198 14.1122L10.5636 14.432L10.4707 14.5971M4.9414 12.864C4.82792 12.3791 4.71445 11.8943 4.63192 11.3269C4.91045 11.5435 5.21993 11.7602 5.49846 11.9459C6.08646 12.3482 6.67447 12.6989 7.26248 13.0497L6.18962 13.4107C5.85422 13.5429 5.5094 13.6498 5.15803 13.7305C5.04456 13.4417 4.95171 13.1528 4.84855 12.8227M2.95042 14.1638C2.53322 14.1791 2.11684 14.1161 1.72283 13.9781C1.42905 13.8789 1.16843 13.7004 0.969765 13.4623C0.777926 13.1955 0.679972 12.8726 0.691235 12.5442C0.700484 12.0572 0.816704 11.5783 1.03166 11.1412C1.36521 10.4516 1.78461 9.80688 2.27989 9.22246V9.27404C2.78448 9.79678 3.32572 10.2829 3.89949 10.7286C4.00339 11.8196 4.22828 12.8956 4.57002 13.9368C4.04087 14.0755 3.4973 14.1516 2.95042 14.1638ZM3.81696 9.82078C3.43372 9.49735 3.06867 9.15296 2.72347 8.78919L2.83695 8.65508C3.16013 8.32017 3.50472 8.00659 3.86854 7.71633C3.86854 8.06708 3.81696 8.44877 3.81696 8.82014C3.81436 9.16471 3.83158 9.50914 3.86854 9.85173M1.03166 6.31337C0.832815 5.88341 0.730695 5.41506 0.732499 4.94135C0.7145 4.60244 0.820884 4.26861 1.03166 4.0026C1.22245 3.76523 1.47631 3.58646 1.76409 3.48681C2.14816 3.36652 2.54797 3.30394 2.95042 3.30112C3.5066 3.31622 4.05973 3.38882 4.60097 3.51775C4.4875 3.83755 4.40497 4.13671 4.29149 4.48745C4.11124 5.23454 3.98029 5.99268 3.89949 6.75695C3.32579 7.21018 2.79094 7.71052 2.30052 8.25276C2.21384 8.17786 2.1344 8.09497 2.06325 8.00518C1.65269 7.48472 1.30633 6.91669 1.03166 6.31337ZM5.15803 3.67249C5.46751 3.77565 5.82857 3.88913 6.18962 4.02323C6.54473 4.13928 6.88974 4.28419 7.22122 4.4565C6.63665 4.77286 6.04864 5.11672 5.45719 5.4881C5.14771 5.70473 4.83824 5.92136 4.55971 6.138C4.69271 5.29274 4.89982 4.46082 5.17866 3.65186M5.48814 2.8988C5.78017 2.26682 6.18977 1.69617 6.6951 1.2173C6.89527 1.03961 7.12139 0.893502 7.36564 0.784034C7.56492 0.68847 7.78434 0.642463 8.00523 0.649927C8.22898 0.64743 8.45064 0.693171 8.65513 0.784034C9.09304 1.00429 9.46894 1.33053 9.74862 1.7331C10.0613 2.15542 10.3244 2.61233 10.5326 3.0948C10.2232 3.19796 9.89304 3.31144 9.50104 3.41459C9.10903 3.51775 8.46944 3.84786 7.98459 4.0645C7.47911 3.82723 6.953 3.6106 6.47847 3.41459L5.48814 3.0948C5.50429 3.04154 5.525 2.98977 5.55004 2.94006M11.0691 4.64219C11.1825 5.09609 11.296 5.67378 11.3785 6.17926C11.1 5.96263 10.8215 5.74599 10.512 5.52936C9.94209 5.15543 9.3533 4.81111 8.74797 4.49777C9.10903 4.33271 9.44946 4.1986 9.77957 4.0645C10.1154 3.93368 10.4602 3.82681 10.8112 3.7447C10.8937 4.01292 11.0072 4.33271 11.0897 4.66282M11.5952 8.78919C11.5952 9.35657 11.5952 9.92394 11.5126 10.4604C11.0674 10.8338 10.5988 11.1783 10.1097 11.492C9.44343 11.9394 8.75481 12.3526 8.04649 12.7299C7.33676 12.3438 6.64806 11.9202 5.98331 11.461C5.50877 11.1412 5.03424 10.7905 4.61129 10.4294C4.4875 9.87236 4.43592 9.28436 4.43592 8.76856C4.43592 8.25276 4.43592 7.61318 4.51844 7.06643C4.97234 6.71569 5.41593 6.36495 5.92141 6.03484C6.58316 5.58657 7.27222 5.18002 7.98459 4.81756C8.71022 5.16347 9.40109 5.578 10.0478 6.05547C10.5271 6.36912 10.9854 6.71371 11.4198 7.08706C11.4198 7.63381 11.5023 8.11866 11.5023 8.76856M12.1419 7.73697C12.5339 8.11866 12.895 8.4694 13.1735 8.76856L13.091 8.90267C12.7815 9.20183 12.4514 9.52162 12.0594 9.85173C12.0594 9.50099 12.0594 9.1193 12.0594 8.76856C12.0594 8.41782 12.0594 8.03613 12.0594 7.73697M12.9259 3.42491C13.3346 3.41216 13.7426 3.46795 14.1329 3.58997C14.4267 3.68917 14.6873 3.86768 14.8859 4.10576C15.0778 4.37257 15.1757 4.69546 15.1645 5.02388C15.1469 5.50972 15.0311 5.98697 14.8241 6.42684C14.5271 7.07567 14.1568 7.68831 13.7202 8.25276H13.6687C13.1915 7.73202 12.6779 7.24593 12.1316 6.79822C12.0181 5.706 11.7828 4.62989 11.4301 3.58997C11.9662 3.43562 12.5231 3.36601 13.0807 3.38365M14.1741 8.79951C14.2626 8.661 14.3664 8.53296 14.4836 8.41782C14.9182 7.85172 15.2949 7.24347 15.6081 6.60222C15.8503 6.08829 15.9837 5.52988 16.0001 4.96198C15.9994 4.49499 15.8514 4.04011 15.5771 3.66218C15.307 3.32801 14.9501 3.07462 14.5455 2.92975C14.0776 2.77102 13.5849 2.69765 13.091 2.71311C12.4494 2.72515 11.8105 2.79768 11.1825 2.92975L11.0691 2.66153C10.7566 1.9368 10.3084 1.27851 9.74862 0.722138C9.50353 0.505909 9.22918 0.325322 8.93366 0.18571C8.33232 -0.0619033 7.6575 -0.0619033 7.05616 0.18571C6.51796 0.450231 6.05632 0.847951 5.71509 1.34109C5.35699 1.82238 5.06551 2.34982 4.84855 2.90911C4.22759 2.75324 3.59059 2.67015 2.95042 2.66153C2.46314 2.64394 1.97685 2.7174 1.51651 2.87817C1.1085 2.99994 0.748157 3.24497 0.484917 3.57965C0.188924 3.96611 0.0391101 4.44478 0.061964 4.93104C0.076904 5.50243 0.210393 6.06449 0.453969 6.58158C0.823157 7.35025 1.29513 8.06516 1.85693 8.70666C1.74346 8.84077 1.62998 8.97488 1.54746 9.08835C1.10265 9.64359 0.725211 10.2496 0.423021 10.8936C0.174462 11.4069 0.030677 11.9645 6.8448e-05 12.5339C-0.00365708 13.0015 0.14479 13.4578 0.423021 13.8337C0.693898 14.1671 1.05055 14.4203 1.45461 14.5661C1.92169 14.7285 2.41504 14.802 2.90916 14.7827C3.54141 14.786 4.17176 14.7133 4.78666 14.5661C4.82962 14.6638 4.86749 14.7637 4.90013 14.8653C5.20932 15.5767 5.65836 16.2187 6.22057 16.7531C6.46048 16.9842 6.73556 17.1757 7.03553 17.3205C7.33534 17.4483 7.65871 17.5116 7.98459 17.5061C8.3036 17.5093 8.61977 17.4461 8.91303 17.3205C9.46623 17.0529 9.94731 16.6567 10.316 16.1651C10.6627 15.6765 10.9533 15.1505 11.1825 14.5971C11.7958 14.7593 12.4259 14.8493 13.06 14.8653C13.5322 14.8689 14.0009 14.785 14.4424 14.6177C14.8756 14.4752 15.2522 14.1984 15.5174 13.8274C15.7827 13.4564 15.9228 13.0105 15.9175 12.5545C15.9045 11.9792 15.7598 11.4146 15.4946 10.904C15.1402 10.1365 14.682 9.42149 14.1329 8.77888" fill="#26AD61"/>
<path d="M9.66602 8.76854C9.64726 9.19085 9.46412 9.58909 9.15573 9.87821C8.84733 10.1673 8.43812 10.3244 8.01547 10.3159C7.59041 10.3222 7.17912 10.1652 6.86631 9.87737C6.5535 9.58951 6.36298 9.19266 6.33398 8.76854C6.3448 8.33164 6.52738 7.91662 6.84215 7.61345C7.15691 7.31027 7.57848 7.14337 8.01547 7.14894C8.23038 7.14621 8.44371 7.18602 8.64317 7.26606C8.84263 7.34611 9.0243 7.46481 9.1777 7.61534C9.33111 7.76587 9.45323 7.94526 9.53704 8.14317C9.62084 8.34108 9.66468 8.55362 9.66602 8.76854Z" fill="#7DCEA0"/>
</svg>
