<svg xmlns="http://www.w3.org/2000/svg" xmlns:xlink="http://www.w3.org/1999/xlink" viewBox="0 0 11.66 16.94"><defs><style>.cls-1{fill:none;}.cls-2{clip-path:url(#clip-path);}.cls-3{fill:#faec96;}.cls-4{fill:#f2db00;}.cls-5{fill:#1a171b;}.cls-6{fill:#fff;}</style><clipPath id="clip-path"><rect class="cls-1" width="11.67" height="16.95"/></clipPath></defs><title>security</title><g id="Layer_2" data-name="Layer 2"><g id="Layer_1-2" data-name="Layer 1"><g class="cls-2"><path class="cls-3" d="M9.94,11a.67.67,0,0,1-.67-.67V2.74a1.4,1.4,0,0,0-1.4-1.4H3.78a1.4,1.4,0,0,0-1.4,1.4v7.54a.67.67,0,0,1-1.34,0V2.74A2.74,2.74,0,0,1,3.78,0H7.87a2.74,2.74,0,0,1,2.74,2.74v7.54a.67.67,0,0,1-.67.67"/></g><g class="cls-2"><path class="cls-4" d="M11.66,16a.92.92,0,0,1-.92.92H.92A.92.92,0,0,1,0,16V8.24a.92.92,0,0,1,.92-.92h9.82a.92.92,0,0,1,.92.92Z"/></g><g class="cls-2"><path class="cls-5" d="M9.34,12.13A3.51,3.51,0,1,1,5.83,8.62a3.51,3.51,0,0,1,3.51,3.51"/></g><polygon class="cls-6" points="5.83 10.73 5.49 10.73 5.19 14.54 5.83 14.54 6.47 14.54 6.17 10.73 5.83 10.73"/><g class="cls-2"><path class="cls-6" d="M6.91,10.81A1.08,1.08,0,1,1,5.83,9.73a1.08,1.08,0,0,1,1.08,1.08"/></g></g></g></svg>