<svg width="32" height="32" viewBox="0 0 32 32" fill="none" xmlns="http://www.w3.org/2000/svg">
<mask id="mask0_1_249" style="mask-type:luminance" maskUnits="userSpaceOnUse" x="0" y="3" width="32" height="27">
<path d="M31.6988 2.99999H0V29.2588H31.6988V2.99999Z" fill="white"/>
</mask>
<g mask="url(#mask0_1_249)">
<path d="M20.3294 7.61176H1.33647C0.975314 7.62162 0.632573 7.77332 0.382442 8.03402C0.13231 8.29472 -0.00508493 8.64344 -1.11238e-06 9.0047V22.8023C-0.00508493 23.1636 0.13231 23.5123 0.382442 23.773C0.632573 24.0337 0.975314 24.1854 1.33647 24.1953H12.2729L16.9412 28.9953C17.0041 29.0693 17.0819 29.1293 17.1694 29.1714C17.2569 29.2135 17.3523 29.2369 17.4494 29.24H17.7318C17.8752 29.185 17.9977 29.0864 18.0821 28.9581C18.1666 28.8297 18.2086 28.6782 18.2024 28.5247V24.1953H20.3294C20.6906 24.1854 21.0333 24.0337 21.2834 23.773C21.5336 23.5123 21.671 23.1636 21.6659 22.8023V9.0047C21.6684 8.82424 21.6353 8.64506 21.5685 8.47739C21.5018 8.30972 21.4026 8.15685 21.2768 8.0275C21.1509 7.89815 21.0008 7.79486 20.835 7.72352C20.6692 7.65219 20.491 7.61421 20.3106 7.61176" fill="#EE813C"/>
</g>
<mask id="mask1_1_249" style="mask-type:luminance" maskUnits="userSpaceOnUse" x="0" y="3" width="32" height="27">
<path d="M31.6988 2.99999H0V29.2588H31.6988V2.99999Z" fill="white"/>
</mask>
<g mask="url(#mask1_1_249)">
<path d="M29.7412 4.86352H15.0588C15.0588 4.86352 15.0588 4.86352 15.0588 4.95764V6.55764H13.1765V5.01411C13.1281 4.75913 13.1281 4.49732 13.1765 4.24234C13.2758 3.9862 13.43 3.7549 13.6282 3.5647C13.8119 3.38079 14.0292 3.23383 14.2682 3.13175C14.5178 3.02515 14.7875 2.97378 15.0588 2.98117H29.7412C29.9935 2.98165 30.2432 3.03286 30.4753 3.13175C30.7111 3.21979 30.919 3.36927 31.0777 3.5647C31.272 3.76208 31.4312 3.99127 31.5482 4.24234C31.6408 4.48888 31.6856 4.75081 31.68 5.01411V15.7435C31.6821 16.0065 31.6375 16.2679 31.5482 16.5153C31.443 16.7568 31.2817 16.9698 31.0777 17.1365L30.8518 17.4188L30.5318 17.607C30.2919 17.6685 30.0453 17.7001 29.7976 17.7012H29.0635V20.1106C29.0592 20.2595 29.0273 20.4063 28.9694 20.5435C28.9694 20.6941 28.9694 20.8259 28.8376 20.9765L28.5176 21.3153C28.4023 21.3965 28.2754 21.4599 28.1412 21.5035C28.1412 21.5035 28.1412 21.5035 28.0094 21.5035C27.9894 21.5151 27.9667 21.5212 27.9435 21.5212C27.9204 21.5212 27.8977 21.5151 27.8777 21.5035C27.8289 21.5207 27.7758 21.5207 27.7271 21.5035H27.5953C27.5031 21.5302 27.4052 21.5302 27.3129 21.5035C27.2139 21.4895 27.1183 21.4576 27.0306 21.4094C26.9842 21.4024 26.9399 21.3853 26.9009 21.3592C26.8619 21.3332 26.829 21.2989 26.8047 21.2588H26.6165L22.9647 17.5506L22.7388 17.2682V14.6894L24.1694 16.1765L27.2188 19.3012V15.8753H29.7976V4.95764C29.7976 4.95764 29.7976 4.95764 29.7976 4.86352H29.7412Z" fill="#FAD0B0"/>
</g>
<mask id="mask2_1_249" style="mask-type:luminance" maskUnits="userSpaceOnUse" x="0" y="3" width="32" height="27">
<path d="M31.6988 2.99999H0V29.2588H31.6988V2.99999Z" fill="white"/>
</mask>
<g mask="url(#mask2_1_249)">
<path d="M16.0753 16.9482H6.11765C5.93122 16.9531 5.75408 17.0307 5.62398 17.1643C5.49388 17.2979 5.42111 17.477 5.42118 17.6635C5.42608 17.845 5.50162 18.0173 5.63171 18.1439C5.76179 18.2704 5.93615 18.3412 6.11765 18.3412H16.0753C16.1659 18.3437 16.256 18.328 16.3404 18.2951C16.4248 18.2622 16.5017 18.2126 16.5667 18.1495C16.6316 18.0863 16.6832 18.0107 16.7184 17.9273C16.7537 17.8438 16.7718 17.7541 16.7718 17.6635C16.7718 17.477 16.6991 17.2979 16.569 17.1643C16.4389 17.0307 16.2617 16.9531 16.0753 16.9482Z" fill="white"/>
</g>
<mask id="mask3_1_249" style="mask-type:luminance" maskUnits="userSpaceOnUse" x="0" y="3" width="32" height="27">
<path d="M31.6988 2.99999H0V29.2588H31.6988V2.99999Z" fill="white"/>
</mask>
<g mask="url(#mask3_1_249)">
<path d="M16.0753 12.9953H6.11765C5.92794 12.9953 5.746 13.0706 5.61186 13.2048C5.47771 13.3389 5.40235 13.5209 5.40235 13.7106C5.40235 13.9003 5.47771 14.0822 5.61186 14.2164C5.746 14.3505 5.92794 14.4259 6.11765 14.4259H16.0753C16.265 14.4259 16.4469 14.3505 16.5811 14.2164C16.7152 14.0822 16.7906 13.9003 16.7906 13.7106C16.7906 13.5209 16.7152 13.3389 16.5811 13.2048C16.4469 13.0706 16.265 12.9953 16.0753 12.9953Z" fill="white"/>
</g>
</svg>
