<svg xmlns="http://www.w3.org/2000/svg" xmlns:xlink="http://www.w3.org/1999/xlink" class="social-sciences-icon" viewBox="0 0 16.83 13.95"><defs><style>.social-sciences-icon .cls-1{fill:none;}.social-sciences-icon .cls-2{clip-path:url(#clip-path);}.social-sciences-icon .cls-3{fill:#ee813c;}.social-sciences-icon .cls-4{fill:#fad0b0;}.social-sciences-icon .cls-5{fill:#fff;}</style><clipPath id="clip-path"><rect class="cls-1" y="0.01" width="16.84" height="13.95"/></clipPath></defs><title>digital</title><g id="Layer_2" data-name="Layer 2"><g id="Layer_1-2" data-name="Layer 1"><g class="cls-2"><path class="cls-3" d="M10.8,2.46H.71A.73.73,0,0,0,0,3.2v7.33a.73.73,0,0,0,.71.74H6.52L9,13.82a.37.37,0,0,0,.27.13l.15,0a.39.39,0,0,0,.25-.38V11.27h1.13a.73.73,0,0,0,.71-.74V3.2a.73.73,0,0,0-.72-.74"/></g><g class="cls-2"><path class="cls-4" d="M15.8,1H8S8,1,8,1h0s0,0,0,.05v.85H7V1.08A1.1,1.1,0,0,1,7,.67,1,1,0,0,1,7.24.31,1.08,1.08,0,0,1,7.58.08,1,1,0,0,1,8,0H15.8a1,1,0,0,1,.39.08.75.75,0,0,1,.32.23,1.29,1.29,0,0,1,.25.36,1.1,1.1,0,0,1,.07.41v5.7a1.18,1.18,0,0,1-.07.41.88.88,0,0,1-.25.33l-.12.15h0l-.17.1a1.6,1.6,0,0,1-.39.05h-.39V9.1a.64.64,0,0,1-.05.23c0,.08,0,.15-.07.23l-.17.18a.75.75,0,0,1-.2.1s0,0-.07,0a.07.07,0,0,1-.07,0,.12.12,0,0,1-.08,0h-.07a.27.27,0,0,1-.15,0,.44.44,0,0,1-.15-.05.17.17,0,0,1-.12-.08l-.1,0,0,0v0L12.2,7.74l-.12-.15V6.22l.76.79,1.62,1.66V6.85h1.37s0,0,0,0,0,0,0,0h0V1.05s0,0,0-.05h0Z"/></g><g class="cls-2"><path class="cls-5" d="M8.54,7.42H3.25a.38.38,0,0,0-.37.38.37.37,0,0,0,.37.36H8.54a.36.36,0,0,0,.37-.36.38.38,0,0,0-.37-.38"/></g><g class="cls-2"><path class="cls-5" d="M8.54,5.32H3.25a.38.38,0,0,0,0,.76H8.54a.38.38,0,0,0,0-.76"/></g></g></g></svg>
