<svg xmlns="http://www.w3.org/2000/svg" xmlns:xlink="http://www.w3.org/1999/xlink" viewBox="0 0 16.99 13.34"><defs><style>.cls-1{fill:none;}.cls-2{clip-path:url(#clip-path);}.cls-3{fill:#122a67;}.cls-4{fill:#9695b9;}</style><clipPath id="clip-path"><rect class="cls-1" x="0.01" y="0.01" width="16.99" height="13.34"/></clipPath></defs><title>space</title><g id="Layer_2" data-name="Layer 2"><g id="Layer_1-2" data-name="Layer 1"><g class="cls-2"><path class="cls-3" d="M16.41,1a1.2,1.2,0,0,0-.15-.37c-1-1.51-5.36-.21-9.8,2.9S-.78,10.38.2,11.88a1.24,1.24,0,0,0,.27.29c-.4-1.69,2.31-5.1,6.41-8S15.06,0,16.41,1"/></g><g class="cls-2"><path class="cls-3" d="M6,11.58a5.18,5.18,0,0,0,2.47.63,5.44,5.44,0,0,0,5.33-5.54,5.07,5.07,0,0,0,0-.55,27.28,27.28,0,0,1-3.67,3.07A26.32,26.32,0,0,1,6,11.58M3.88,9.43a5.38,5.38,0,0,0,1.39,1.64A26.49,26.49,0,0,0,9.72,8.54a27.71,27.71,0,0,0,3.93-3.33A5.37,5.37,0,0,0,8.51,1.14,5.44,5.44,0,0,0,3.18,6.68a5.54,5.54,0,0,0,.7,2.75"/></g><g class="cls-2"><path class="cls-4" d="M.59,12.35a1.2,1.2,0,0,0,.15.37c1,1.5,5.36.21,9.8-2.9S17.78,3,16.8,1.47a1.24,1.24,0,0,0-.27-.29c.4,1.68-2.31,5.1-6.41,8S1.94,13.36.59,12.35"/></g></g></g></svg>